<?xml version="1.0" encoding="UTF-8"?>
<!DOCTYPE svg PUBLIC "-//W3C//DTD SVG 1.1//EN" "http://www.w3.org/Graphics/SVG/1.1/DTD/svg11.dtd">
<!-- Creator: CorelDRAW 2020 (64-Bit) -->
<svg xmlns="http://www.w3.org/2000/svg" xml:space="preserve" width="29.2881mm" height="9.6984mm" version="1.1" style="shape-rendering:geometricPrecision; text-rendering:geometricPrecision; image-rendering:optimizeQuality; fill-rule:evenodd; clip-rule:evenodd"
viewBox="0 0 1204.47 398.85"
 xmlns:xlink="http://www.w3.org/1999/xlink"
 xmlns:xodm="http://www.corel.com/coreldraw/odm/2003">
 <defs>
  <style type="text/css">
   <![CDATA[
    .fil0 {fill:black;fill-rule:nonzero}
   ]]>
  </style>
 </defs>
 <g id="Capa_x0020_1">
  <metadata id="CorelCorpID_0Corel-Layer"/>
  <g id="_2850792549424">
   <path class="fil0" d="M355.44 91.08c-5.4,0 -10.12,-1.2 -14.15,-3.59 -4.05,-2.4 -7.2,-5.76 -9.43,-10.08 -2.24,-4.33 -3.36,-9.39 -3.36,-15.17l0 -21.24c0,-5.82 1.12,-10.88 3.36,-15.22 2.23,-4.33 5.38,-7.69 9.43,-10.08 4.03,-2.4 8.76,-3.6 14.15,-3.6 4.47,0 8.56,0.96 12.27,2.87 3.71,1.92 6.81,4.6 9.32,8.05 2.51,3.43 4.2,7.47 5.09,12.08l0 0 -11.14 0 0 0c-0.67,-2.49 -1.8,-4.65 -3.38,-6.52 -1.58,-1.87 -3.43,-3.31 -5.56,-4.34 -2.13,-1.02 -4.32,-1.54 -6.6,-1.54 -4.76,0 -8.57,1.69 -11.46,5.03 -2.91,3.36 -4.34,7.78 -4.34,13.28l0 21.24c0,5.5 1.44,9.92 4.34,13.26 2.89,3.32 6.7,5 11.46,5 3.36,0 6.54,-1.07 9.52,-3.2 2.98,-2.13 5,-5.19 6.02,-9.21l0 0 11.14 0 0 0c-0.89,4.61 -2.6,8.65 -5.12,12.08 -2.51,3.45 -5.61,6.12 -9.3,8.05 -3.69,1.91 -7.78,2.87 -12.25,2.87z"/>
   <path id="1" class="fil0" d="M417.67 91.08c-7.25,0 -12.84,-2.11 -16.82,-6.3 -3.98,-4.22 -5.96,-10.12 -5.96,-17.75l0 -8.99c0,-7.56 1.98,-13.43 5.96,-17.57 3.98,-4.16 9.58,-6.23 16.82,-6.23 7.23,0 12.85,2.07 16.82,6.23 3.96,4.14 5.96,10.01 5.96,17.57l0 9.16c0,7.58 -2,13.46 -5.96,17.64 -3.98,4.16 -9.59,6.25 -16.82,6.25zm0 -10.32c3.8,0 6.72,-1.2 8.81,-3.58 2.07,-2.38 3.11,-5.71 3.11,-9.99l0 -9.16c0,-4.31 -1.04,-7.61 -3.11,-9.96 -2.09,-2.34 -5.01,-3.52 -8.81,-3.52 -3.76,0 -6.68,1.18 -8.79,3.52 -2.09,2.34 -3.13,5.65 -3.13,9.96l0 9.16c0,4.29 1.04,7.61 3.13,9.99 2.11,2.38 5.03,3.58 8.79,3.58z"/>
   <path id="2" class="fil0" d="M455.9 90.28l0 -55.25 10.85 0 0 55.25 -10.85 0zm33.52 0l0 -33.48c0,-3.91 -1,-6.93 -3,-9.05 -2,-2.12 -4.85,-3.2 -8.54,-3.2 -3.56,0 -6.29,0.95 -8.23,2.83 -1.92,1.87 -2.9,4.52 -2.9,7.92l-1.11 -10.65c1.71,-3.32 3.92,-5.9 6.69,-7.72 2.74,-1.8 5.78,-2.71 9.12,-2.71 6,0 10.63,1.97 13.92,5.89 3.29,3.92 4.92,9.47 4.92,16.62l0 33.54 -10.87 0z"/>
   <path id="3" class="fil0" d="M548.2 90.28l0 -77.4 10.87 0 0 77.4 -10.87 0zm-13.88 0.96c-6.1,0 -10.83,-1.96 -14.13,-5.88 -3.33,-3.93 -4.98,-9.45 -4.98,-16.59l0 -12.17c0,-7.18 1.62,-12.72 4.87,-16.64 3.25,-3.92 7.81,-5.88 13.7,-5.88 3.27,0 6.27,0.85 8.98,2.56 2.71,1.71 4.91,4.09 6.58,7.18l-1.13 11.28c0,-2.32 -0.42,-4.34 -1.27,-6.01 -0.86,-1.65 -2.09,-2.92 -3.71,-3.8 -1.62,-0.87 -3.56,-1.31 -5.87,-1.31 -3.6,0 -6.36,1.12 -8.34,3.36 -1.96,2.23 -2.94,5.38 -2.94,9.41l0 12.03c0,4.01 0.98,7.12 2.94,9.3 1.98,2.18 4.74,3.27 8.34,3.27 2.31,0 4.25,-0.45 5.87,-1.36 1.62,-0.91 2.85,-2.2 3.71,-3.91 0.86,-1.71 1.27,-3.74 1.27,-6.12l0.74 11.65c-0.98,2.49 -2.71,4.73 -5.12,6.69 -2.43,1.98 -5.62,2.96 -9.5,2.96z"/>
   <path id="4" class="fil0" d="M608.89 90.28l0 -55.25 10.79 0 0 55.25 -10.79 0zm-22.47 -55.25l0 33.59c0,3.87 1,6.85 2.96,8.96 1.96,2.11 4.74,3.18 8.34,3.18 3.58,0 6.34,-0.96 8.27,-2.85 1.95,-1.91 2.91,-4.58 2.91,-8.01l0.74 11.56c-1,2.47 -2.74,4.7 -5.21,6.67 -2.49,1.98 -5.74,2.96 -9.74,2.96 -6.11,0 -10.83,-1.96 -14.13,-5.88 -3.33,-3.92 -4.98,-9.45 -4.98,-16.57l0 -33.59 10.85 0z"/>
   <path id="5" class="fil0" d="M658.49 91.08c-7.6,0 -13.46,-2.09 -17.64,-6.28 -4.16,-4.18 -6.25,-10.08 -6.25,-17.72l0 -9.1c0,-7.56 2.09,-13.41 6.25,-17.55 4.18,-4.12 10.05,-6.2 17.64,-6.2 4.34,0 8.23,0.76 11.72,2.29 3.47,1.53 6.25,3.71 8.3,6.54l0 0 -7.83 7.03 0 0c-1.53,-1.78 -3.32,-3.14 -5.43,-4.1 -2.09,-0.95 -4.29,-1.44 -6.59,-1.44 -4.18,0 -7.43,1.18 -9.74,3.52 -2.31,2.34 -3.45,5.63 -3.45,9.9l0 9.1c0,4.36 1.15,7.72 3.45,10.1 2.31,2.38 5.56,3.58 9.74,3.58 2.31,0 4.5,-0.53 6.59,-1.55 2.11,-1.03 3.91,-2.49 5.43,-4.38l0 0 7.83 7.56 0 0c-2.06,2.78 -4.84,4.9 -8.34,6.41 -3.49,1.51 -7.38,2.27 -11.68,2.27z"/>
   <path id="6" class="fil0" d="M712.78 91.08c-7.6,0 -13.46,-2.09 -17.64,-6.28 -4.16,-4.18 -6.25,-10.08 -6.25,-17.72l0 -9.1c0,-7.56 2.09,-13.41 6.25,-17.55 4.18,-4.12 10.05,-6.2 17.64,-6.2 4.34,0 8.23,0.76 11.72,2.29 3.47,1.53 6.25,3.71 8.3,6.54l0 0 -7.83 7.03 0 0c-1.53,-1.78 -3.32,-3.14 -5.43,-4.1 -2.09,-0.95 -4.29,-1.44 -6.59,-1.44 -4.18,0 -7.43,1.18 -9.74,3.52 -2.31,2.34 -3.45,5.63 -3.45,9.9l0 9.1c0,4.36 1.15,7.72 3.45,10.1 2.31,2.38 5.56,3.58 9.74,3.58 2.31,0 4.5,-0.53 6.59,-1.55 2.11,-1.03 3.91,-2.49 5.43,-4.38l0 0 7.83 7.56 0 0c-2.06,2.78 -4.84,4.9 -8.34,6.41 -3.49,1.51 -7.38,2.27 -11.68,2.27z"/>
   <path id="7" class="fil0" d="M744.77 23.75l0 -10.87 10.85 0 0 10.87 -10.85 0zm0 66.54l0 -55.25 10.85 0 0 55.25 -10.85 0z"/>
   <path id="8" class="fil0" d="M793.32 91.08c-7.25,0 -12.84,-2.11 -16.82,-6.3 -3.98,-4.22 -5.96,-10.12 -5.96,-17.75l0 -8.99c0,-7.56 1.98,-13.43 5.96,-17.57 3.98,-4.16 9.58,-6.23 16.82,-6.23 7.23,0 12.85,2.07 16.82,6.23 3.96,4.14 5.96,10.01 5.96,17.57l0 9.16c0,7.58 -2,13.46 -5.96,17.64 -3.98,4.16 -9.59,6.25 -16.82,6.25zm0 -10.32c3.8,0 6.72,-1.2 8.81,-3.58 2.07,-2.38 3.11,-5.71 3.11,-9.99l0 -9.16c0,-4.31 -1.04,-7.61 -3.11,-9.96 -2.09,-2.34 -5.01,-3.52 -8.81,-3.52 -3.76,0 -6.68,1.18 -8.79,3.52 -2.09,2.34 -3.13,5.65 -3.13,9.96l0 9.16c0,4.29 1.04,7.61 3.13,9.99 2.11,2.38 5.03,3.58 8.79,3.58zm0.97 -56.38l-6.81 -5.49 15.21 -18.9 7.83 6.51 -16.22 17.88z"/>
   <path id="9" class="fil0" d="M831.55 90.28l0 -55.25 10.85 0 0 55.25 -10.85 0zm33.52 0l0 -33.48c0,-3.91 -1,-6.93 -3,-9.05 -2,-2.12 -4.85,-3.2 -8.54,-3.2 -3.56,0 -6.29,0.95 -8.23,2.83 -1.92,1.87 -2.9,4.52 -2.9,7.92l-1.11 -10.65c1.71,-3.32 3.92,-5.9 6.69,-7.72 2.74,-1.8 5.78,-2.71 9.12,-2.71 6,0 10.63,1.97 13.92,5.89 3.29,3.92 4.92,9.47 4.92,16.62l0 33.54 -10.87 0z"/>
   <path class="fil0" d="M224.53 269.22c-3.99,5.25 -12.81,17.94 -16.66,25.3 -17.83,34.04 -21.22,53.05 -54.93,75.41 -6.85,4.54 -13.47,7.72 -18.95,10.69 -5.48,2.98 -10.02,5.21 -13.74,6.7 -5.42,2.5 -11.17,4.33 -17.26,5.48 -6.09,1.15 -12.25,1.69 -18.61,1.69 -1.96,0 -4.19,-0.27 -6.63,-0.88 -2.44,-0.61 -5.07,-1.29 -7.84,-2.1 -3.39,-0.95 -6.3,-1.69 -8.67,-2.37 -2.43,-0.67 -4.4,-1.09 -5.95,-1.22l-2.36 -2.37 -5.75 -0.81c-2.5,-0.14 -5.55,-1.35 -9,-3.73 -3.52,-2.43 -7.31,-5.68 -11.43,-9.94 -3.93,-3.99 -7.18,-7.72 -9.61,-11.31 -2.43,-3.59 -4.2,-6.83 -5.21,-9.74l-5.35 -17.05c-1.9,-5.82 -3.25,-10.55 -4.19,-14.08 -0.95,-3.58 -1.29,-5.88 -1.15,-6.97l2.16 -8.93c-1.09,-3.05 -1.9,-5.55 -2.5,-7.51 -0.61,-2.03 -0.88,-3.52 -0.88,-4.6 0,-1.02 0.33,-4.27 1.01,-9.75 0.61,-5.41 1.56,-12.92 2.78,-22.6 0.88,-1.83 1.9,-4.06 2.98,-6.77 1.02,-2.64 2.03,-5.62 2.98,-8.93l-0.6 -4.33c0,-1.09 0.2,-2.3 0.67,-3.66 0.48,-1.42 1.08,-2.98 1.9,-4.67 3.04,-6.5 6.09,-13.06 9.13,-19.63 3.05,-6.63 6.09,-13.06 9.13,-19.28 2.64,-4.74 6.02,-9.68 10.22,-14.69 4.12,-5.01 8.93,-10.29 14.34,-15.7 1.22,-1.28 2.64,-3.05 4.4,-5.14 1.7,-2.1 3.8,-4.4 6.16,-6.97 2.23,-1.28 4.94,-3.31 8.19,-6.02 3.24,-2.71 7.1,-6.16 11.64,-10.43 1.29,-0.54 2.91,-1.28 4.74,-2.16 1.9,-0.95 4.13,-2.1 6.77,-3.39 0.68,-0.4 1.49,-1.08 2.5,-1.96 0.95,-0.95 2.1,-1.96 3.45,-2.98 1.42,-1.35 6.77,-3.32 15.83,-5.96 9.14,-2.64 15.09,-3.99 17.86,-3.99 6.09,0 11.24,0.4 15.5,1.28 4.26,0.88 7.58,2.24 10.15,4.06l6.3 1.22c5.35,1.15 9.2,5.21 11.71,12.11 2.5,6.9 3.79,16.79 3.79,29.77 0,6.09 -0.07,10.96 -0.2,14.62 -0.14,3.59 -0.34,6.09 -0.61,7.45 -0.74,3.92 -1.69,8.93 -2.64,14.95 -1.02,6.02 -2.3,13 -3.92,20.98 -0.14,2.1 -1.02,5.62 -2.64,10.42 -1.69,4.8 -3.79,10.83 -6.5,17.93 -2.78,7.85 -5.14,13.74 -7.11,17.79 -2.03,4.06 -3.66,6.3 -5.01,6.63 -5.28,1.36 -10.96,2.78 -17.05,4.4 -2.91,0 -4.94,-0.21 -6.16,-0.68 -1.15,-0.47 -1.76,-1.22 -1.76,-2.3 0,-0.95 0.2,-2.37 0.67,-4.4 0.48,-1.97 0.68,-3.38 0.68,-4.12 -0.4,-5.08 -0.75,-10.15 -1.15,-15.29 0,-1.9 0.54,-5.56 1.55,-10.96 1.09,-5.42 2.64,-12.39 4.74,-20.85 2.3,-9.27 4.26,-16.58 6.02,-21.92 1.69,-5.42 3.11,-8.73 4.12,-10.08 3.86,-3.59 6.7,-6.97 8.46,-10.22 1.83,-3.25 2.71,-6.16 2.71,-8.87 0,-3.66 -0.88,-6.9 -2.64,-9.68 -1.83,-2.84 -4.46,-4.94 -8.05,-6.36 -3.45,-0.81 -6.9,-1.55 -10.42,-2.3 -3.52,-0.74 -6.97,-1.62 -10.42,-2.71 -2.78,1.09 -5.28,1.9 -7.44,2.37 -2.17,0.54 -4.06,1.01 -5.69,1.42 -8.86,1.49 -17.32,5.55 -25.51,12.32 -8.13,6.77 -15.91,16.04 -23.29,27.95 -6.09,10.36 -11.03,20.71 -14.68,31.13 -3.73,10.36 -6.23,20.78 -7.58,31.27 -0.54,3.12 -1.15,7.1 -1.97,11.77 -0.81,4.74 -1.96,10.22 -3.38,16.58 1.22,4 2.24,7.58 3.18,10.9l-1.96 18.07c0,0.67 0.54,2.03 1.76,4.05 1.22,2.1 3.05,5.08 5.55,9.07 1.49,2.24 2.78,4.88 3.99,7.92 1.15,3.04 2.1,6.5 2.78,10.36 0.27,0.88 0.74,1.9 1.48,2.98 0.75,1.02 1.56,1.89 2.44,2.57 2.04,1.69 3.93,3.24 5.75,4.53 5.75,6.09 11.77,10.69 18.21,13.81 6.43,3.11 13.27,4.66 20.5,4.66 0.68,0 3.11,-0.34 7.44,-1.01 4.26,-0.61 10.15,-1.69 17.66,-3.18 1.29,-0.95 3.05,-1.9 5.21,-2.77 2.17,-0.95 4.74,-1.97 7.78,-3.05 2.64,-2.64 5.29,-4.52 7.92,-5.68 21.27,-9.49 43.99,-53.06 55.15,-73.56 2.17,-3.99 6.49,-9.66 10.87,-15.01l0.5 -0.76c0.71,-1.11 1.62,-2.33 2.81,-3.64l1.34 -1.16c2.85,-3.33 5.38,-6.17 6.92,-7.9l0 -0.15c-0.08,-0.99 -0.16,-1.82 -0.32,-2.41 0,-1.78 0.32,-4.74 1.03,-8.93 0.67,-4.15 1.3,-6.64 1.85,-7.51l-0.71 -2.17c0.99,-5.17 2.41,-10.83 4.22,-16.95 1.82,-6.12 3.87,-12.81 6.17,-19.95 0.79,-1.23 1.58,-2.81 2.45,-4.7 0.83,-1.85 1.78,-4.03 2.88,-6.4 1.3,-4.03 3.05,-8.22 5.18,-12.6 2.18,-4.38 4.59,-8.93 7.27,-13.55 3.64,-6.09 6.83,-10.67 9.64,-13.75 2.81,-3.08 5.34,-4.63 7.59,-4.63 4.47,0 7.51,0.87 9.17,2.61 1.66,1.74 2.49,4.98 2.49,9.76 0,1.22 -0.2,3.16 -0.63,5.73 -0.43,2.57 -0.63,4.54 -0.63,5.85 0,1.31 -0.44,3.16 -1.27,5.54 -0.87,2.41 -1.26,4.62 -1.26,6.6 -0.08,0.63 -0.28,1.22 -0.59,1.85l0.12 1.62c-0.32,1.07 -0.79,2.41 -1.39,3.95 -0.63,1.54 -1.42,3.36 -2.45,5.54 -0.52,1.94 -1.23,4.15 -2.06,6.72 -0.87,2.53 -1.85,5.29 -3,8.33 -0.47,0.75 -1.07,1.7 -1.78,2.81 -0.75,1.15 -1.54,2.37 -2.37,3.75 -0.24,1.03 -0.63,2.17 -1.19,3.48 -0.51,1.3 -1.27,2.85 -2.17,4.63 -0.48,0.95 -1.07,1.93 -1.86,3 -0.75,1.11 -1.7,2.49 -2.76,4.19 -0.47,0.75 -0.95,1.74 -1.5,2.88 -0.56,1.15 -1.15,2.45 -1.86,3.91 -0.83,1.34 -1.94,2.97 -3.36,4.86 -1.38,1.94 -2.96,4.23 -4.7,6.83 -2.41,4.23 -4.86,8.3 -7.39,12.14 0,7.51 1.46,13.16 4.43,16.95 2.97,3.84 7.43,5.73 13.36,5.73 0.36,0 1.5,-0.28 3.44,-0.83 1.93,-0.51 4.58,-1.38 7.94,-2.57 0.99,-0.59 2.21,-1.46 3.59,-2.61 1.34,-1.15 2.92,-2.49 4.7,-4.03l4.5 10.67c-2.02,1.78 -3.99,3.6 -6,5.45 -1.98,1.86 -4.03,3.68 -6.12,5.45 -2.37,2.02 -4.79,3.56 -7.27,4.59 -2.45,1.07 -4.86,1.58 -7.27,1.58 -1.23,0 -3.08,-0.12 -5.65,-0.4 -2.53,-0.28 -4.43,-0.44 -5.77,-0.44 -4.31,0 -7.86,-1.74 -10.67,-5.21 -2.8,-3.48 -4.78,-8.69 -5.93,-15.65 -0.16,-0.71 -0.35,-1.3 -0.63,-1.86 -0.19,-0.39 -0.49,-0.79 -0.89,-1.25zm692.22 -36.34c0.77,-1.16 1.58,-2.04 2.56,-2.57 0.94,-0.49 1.89,-0.75 2.87,-0.75 2.56,0 4.76,0.64 6.53,1.92 1.77,1.28 2.94,3.24 3.51,5.81 0.53,2.3 1.02,4.61 1.44,6.91 0.45,2.34 0.83,4.68 1.14,7.02 0.49,1.47 1.13,3.7 1.84,6.68 0.76,2.99 1.29,4.68 1.67,5.14 0.34,0.71 0.9,1.25 1.62,1.58 0.76,0.35 1.66,0.49 2.76,0.49 1.32,0 2.68,-0.22 4.08,-0.72 1.36,-0.45 2.79,-1.29 4.26,-2.49 1.1,-0.95 2.26,-1.93 3.48,-2.91 1.2,-1.02 2.38,-2 3.54,-2.95l4.53 10.2c-1.17,1.17 -2.76,2.53 -4.68,4.04 -1.97,1.51 -4.31,3.29 -7.02,5.28 -3.02,2.19 -5.59,3.85 -7.7,4.91 -2.15,1.1 -3.74,1.62 -4.87,1.62 -6.68,0 -11.03,-0.79 -13.02,-2.34 -1.96,-1.55 -4.19,-5.86 -6.61,-12.92 -0.3,-0.64 -0.72,-1.31 -1.32,-2.15 -0.56,-0.79 -1.25,-1.77 -1.97,-2.87 -0.9,-1.69 -1.66,-2.98 -2.34,-3.81 -4.99,-6.74 -0.23,-19.34 3.71,-25.14zm24.2 -64.02c1.84,0 3.2,0.37 4.04,1.09 0.86,0.76 1.28,1.81 1.28,3.21 -0.45,2.09 -0.82,3.82 -1.09,5.21 -0.75,2.64 -1.4,4.83 -1.96,6.53 -0.53,1.69 -0.94,2.91 -1.25,3.66 -0.68,1.58 -1.59,3.02 -2.72,4.22 -1.14,1.21 -2.53,2.31 -4.16,3.29 -1.69,1.17 -3.09,2 -4.26,2.49 -1.13,0.46 -1.92,0.69 -2.38,0.61 -1.25,-0.15 -2.46,-0.3 -3.59,-0.42 -1.13,-0.08 -2.26,-0.15 -3.36,-0.15 -0.97,-0.53 -1.73,-1.51 -2.26,-2.98 -0.57,-1.48 -0.83,-3.48 -0.83,-5.97 0,-2.23 1.32,-5.02 4.04,-8.34 2.68,-3.36 5.06,-5.17 7.14,-5.4 1.25,-1.55 2.71,-3.29 4.42,-5.28 0.72,-0.53 1.7,-0.95 2.87,-1.29 1.17,-0.34 2.53,-0.49 4.08,-0.49zm17.17 87.19l0.68 -0.75 0.3 -1.09c1.37,-1.62 2.49,-2.87 3.48,-3.82 0.94,-0.9 1.69,-1.62 2.19,-2.11 0.38,-0.38 1.2,-0.87 2.46,-1.44 1.28,-0.6 2.98,-1.32 5.09,-2.19l1.47 -0.9c0.5,-0.79 1.44,-1.96 2.76,-3.51 1.32,-1.55 2.94,-3.33 4.76,-5.33 0.37,-0.45 0.94,-0.9 1.66,-1.44 0.76,-0.52 1.52,-1.16 2.34,-1.99 1.78,-1.7 3.54,-3.44 5.29,-5.25 1.77,-1.81 3.43,-3.59 4.98,-5.36 0.68,-0.64 2.04,-1.85 4.11,-3.59 2.04,-1.74 4.88,-4.15 8.39,-7.25 0.53,-0.38 1.43,-0.91 2.8,-1.59 1.32,-0.72 3.06,-1.55 5.17,-2.49 0.98,-0.46 1.7,-1.17 2.15,-2.15 0.49,-1.02 0.72,-2.27 0.72,-3.81 0.6,-0.98 1.16,-2.15 1.73,-3.52 0.57,-1.36 1.09,-2.98 1.59,-4.8 0.75,-2.31 1.32,-4.15 1.74,-5.58 0.41,-1.47 0.72,-2.41 0.95,-2.94 1.24,-3.32 2.94,-7.21 5.06,-11.66 2.15,-4.49 4.68,-9.59 7.67,-15.37 1.46,-3.02 3.21,-6.37 5.17,-10.04 1.25,-1.85 2.68,-3.24 4.22,-4.15 1.55,-0.94 3.17,-1.4 4.83,-1.4 1.36,0 2.34,0.53 2.94,1.55 0.65,1.02 0.95,2.53 0.95,4.53 0,3.17 -0.23,6.2 -0.68,9.11 -0.41,2.86 -1.24,5.55 -2.41,8.07 -0.23,0.49 -0.41,1.29 -0.57,2.3 -0.15,1.02 -0.3,2.3 -0.45,3.78 -0.08,1.02 -0.35,2 -0.83,2.99 -0.5,0.93 -1.09,1.85 -1.81,2.64 0,0.53 -0.08,1.14 -0.23,1.85 -0.15,0.68 -0.3,1.51 -0.45,2.49l-1.55 1.97c-0.15,0.45 -0.23,0.98 -0.23,1.62 0,0.6 0,1.24 0,1.92 0,0.46 -0.26,1.32 -0.79,2.61 -0.49,1.28 -1.28,3.13 -2.3,5.47 -1.2,2.53 -2.14,4.49 -2.83,5.97 -0.72,1.48 -1.1,2.42 -1.17,2.79 -0.3,0.35 -0.68,0.95 -1.16,1.78 -0.49,0.79 -1.06,1.7 -1.7,2.76l0.3 2.41 -7.09 25.45c0,2.79 0.04,5.17 0.11,7.17 0.08,1.97 0.3,3.55 0.68,4.72 0.34,1.25 0.94,2.79 1.82,4.56 0.82,1.81 1.92,3.74 3.2,5.82 0.83,1.4 1.78,2.42 2.87,3.02 1.09,0.64 2.27,0.94 3.51,0.94 1.39,0 2.79,-0.37 4.23,-1.17 1.43,-0.75 2.86,-1.97 4.33,-3.59 0.9,1.93 1.77,3.74 2.57,5.44 0.79,1.69 1.43,3.28 1.95,4.75 -0.37,0.23 -1.17,0.98 -2.38,2.26 -1.2,1.29 -2.83,3.13 -4.8,5.48 -1.16,1.4 -2.64,2.42 -4.38,3.06 -1.74,0.6 -3.85,0.95 -6.35,0.95 -5.55,0 -10.04,-1.47 -13.47,-4.35 -3.47,-2.87 -5.89,-7.17 -7.28,-12.91 -0.31,-1.18 -0.57,-2.19 -0.79,-3.06 -0.23,-0.9 -0.46,-1.69 -0.69,-2.41 -0.49,-1.39 -1.4,-2.9 -2.64,-4.53 -0.49,0.76 -0.91,1.28 -1.21,1.66 -0.87,0.6 -1.85,1.44 -2.95,2.53 -1.05,1.13 -2.15,2.53 -3.24,4.23 -0.23,0.72 -0.65,1.62 -1.21,2.68 -0.6,1.09 -1.39,2.34 -2.45,3.81 -2.34,2.75 -4.72,5.47 -7.17,8.26 -2.41,2.76 -4.87,5.48 -7.29,8.12 -3.32,3.7 -6.37,6.38 -9.17,8.11 -2.79,1.74 -5.21,2.61 -7.28,2.61 -3.7,0 -6.42,-0.88 -8.19,-2.61 -1.77,-1.73 -2.64,-4.45 -2.64,-8.15 0,-1.7 0.64,-4.08 1.92,-7.14 1.28,-3.1 1.92,-5.36 1.92,-6.84l-0.68 -1.77 -4.53 -10.2zm55.64 -31.51c0,-0.38 -0.15,-0.95 -0.45,-1.66 -1.1,1.09 -2.45,2.37 -4.08,3.88 -1.62,1.47 -3.52,3.06 -5.74,4.84 -0.53,1.2 -1.69,3.05 -3.51,5.58 -1.85,2.57 -4.42,5.7 -7.74,9.48 -0.98,1.09 -2.26,2.98 -3.89,5.7 -1.59,2.68 -3.59,5.96 -5.92,9.89 -0.83,1.55 -1.67,3.4 -2.57,5.63 0,0.45 0.3,0.9 0.9,1.44 2.19,-0.64 4.91,-2.61 8.11,-5.82 3.17,-3.21 6.99,-7.63 11.4,-13.32 4.57,-6.04 7.97,-11.18 10.15,-15.41 2.23,-4.23 3.33,-7.67 3.33,-10.23zm40.47 26.72l10.03 -6.56c0.38,-0.38 0.8,-0.86 1.32,-1.51 0.53,-0.6 1.1,-1.51 1.78,-2.68 0.53,-0.98 1.21,-1.77 2.04,-2.46 0.83,-0.64 1.81,-1.25 2.94,-1.78 0.56,-0.71 1.43,-1.66 2.53,-2.75 1.09,-1.1 2.5,-2.38 4.19,-3.85 0.83,-0.46 1.85,-1.1 3.1,-1.97 1.25,-0.83 2.6,-1.97 4.08,-3.36 6.72,-6.34 12.57,-11.1 17.63,-14.27 5.06,-3.17 9.29,-4.76 12.76,-4.76 1.92,0 3.32,0.42 4.23,1.21 0.95,0.83 1.39,1.96 1.39,3.43 0,1.54 -0.26,2.91 -0.83,4.08 -0.57,1.2 -1.39,2.19 -2.61,2.98 -1.81,1.37 -3.81,2.84 -5.96,4.46 -1.17,1.55 -2.6,3.17 -4.31,4.91 -1.69,1.74 -3.66,3.44 -5.97,5.13 -0.71,0.98 -1.35,1.82 -1.84,2.57 -0.38,0.34 -1.1,1.02 -2.12,1.96 -1.02,0.98 -2.37,2.08 -4.08,3.32 -0.76,1.62 -2.34,3.73 -4.83,6.3 -2.46,2.6 -5.74,5.7 -9.86,9.29 -0.52,0.53 -1.43,1.7 -2.79,3.55 -1.32,1.85 -3.06,4.27 -5.17,7.32l0.75 0.98c1.62,-0.53 3.32,-1.39 5.1,-2.64 1.78,-1.28 3.74,-2.95 5.88,-4.98 2.5,-2.3 4.53,-4.15 6.12,-5.58 1.59,-1.44 2.72,-2.38 3.4,-2.83 0.49,-0.3 1.02,-0.6 1.51,-0.87 0.53,-0.3 1.14,-0.68 1.77,-1.14 3.41,-4.04 6.57,-7.06 9.48,-8.98 2.95,-1.97 5.66,-2.94 8.2,-2.94 1.54,0 2.71,0.6 3.51,1.81 0.83,1.21 1.28,3.06 1.44,5.48 -0.15,3.7 -0.23,7.24 -0.23,10.61 -0.08,2.38 0.57,4.49 1.93,6.38 1.36,1.88 3.13,2.83 5.32,2.83 0.67,0 1.32,-0.19 1.92,-0.56 0.64,-0.38 1.28,-0.87 1.92,-1.47 0.53,-0.69 1.02,-1.32 1.47,-1.93 0.49,-0.6 0.98,-1.17 1.48,-1.77 0.3,-0.15 0.71,-0.42 1.28,-0.79 0.53,-0.38 1.05,-0.83 1.59,-1.37 1.05,2.23 1.96,4.16 2.68,5.82 0.71,1.66 1.25,3.13 1.62,4.38 -1.7,1.55 -3.36,3.17 -5.02,4.84 -1.66,1.69 -3.4,3.28 -5.25,4.76 -2.22,1.69 -4.34,2.98 -6.42,3.85 -2.04,0.87 -4.12,1.27 -6.19,1.27 -4.76,0 -8.46,-1.35 -11.03,-4.07 -2.57,-2.76 -4.07,-6.88 -4.53,-12.43 0,-0.64 -0.11,-1.32 -0.26,-2.04 -0.19,-0.67 -0.6,-1.39 -1.17,-2.15 -0.38,0.37 -0.8,0.75 -1.2,1.17 -0.45,0.42 -0.99,0.95 -1.55,1.59 -0.99,0.75 -2.19,1.66 -3.63,2.79 -1.43,1.09 -3.09,2.41 -5.02,3.96 -2.61,2.64 -4.76,4.83 -6.53,6.53 -1.77,1.7 -3.06,2.91 -3.78,3.66 -1.47,1.25 -3.2,2.49 -5.17,3.73 -1.92,1.25 -4.15,2.53 -6.57,3.89 -1.55,0.8 -2.87,1.44 -4,1.93 -1.09,0.49 -1.92,0.71 -2.41,0.71 -3.55,0 -6.19,-0.87 -7.89,-2.6 -1.7,-1.73 -2.53,-4.42 -2.53,-8.08 0,-2 0.45,-3.89 1.32,-5.7 0.86,-1.81 2.15,-3.59 3.88,-5.28 0.16,-0.98 0.23,-1.74 0.23,-2.34 0,-0.38 -0.07,-0.76 -0.27,-1.14 -0.19,-0.42 -0.45,-0.87 -0.72,-1.36 -0.45,-1.05 -0.94,-2.22 -1.51,-3.51 -0.53,-1.32 -1.14,-2.72 -1.81,-4.19 0.3,-0.29 0.71,-0.87 1.28,-1.69 0.53,-0.83 1.17,-1.89 1.93,-3.1zm81.38 4.8c0.68,-0.71 1.32,-1.62 2,-2.67 0.68,-1.06 1.55,-2.23 2.68,-3.48l7.36 -6.38c0.31,-0.19 0.46,-0.49 0.49,-0.86 0.05,-0.38 0.05,-0.87 0.05,-1.55 -0.08,-0.94 -0.15,-1.74 -0.31,-2.3 0,-1.7 0.31,-4.53 0.99,-8.53 0.64,-3.96 1.25,-6.34 1.78,-7.17l-0.68 -2.08c0.94,-4.94 2.3,-10.34 4.04,-16.19 1.74,-5.85 3.7,-12.23 5.89,-19.07 0.75,-1.17 1.51,-2.69 2.34,-4.49 0.8,-1.77 1.7,-3.85 2.76,-6.12 1.25,-3.85 2.91,-7.85 4.95,-12.05 2.07,-4.18 4.38,-8.53 6.95,-12.94 3.47,-5.82 6.53,-10.19 9.21,-13.14 2.68,-2.94 5.1,-4.42 7.25,-4.42 4.26,0 7.17,0.83 8.76,2.49 1.59,1.66 2.38,4.76 2.38,9.32 0,1.17 -0.19,3.02 -0.6,5.47 -0.41,2.45 -0.61,4.35 -0.61,5.58 0,1.25 -0.41,3.02 -1.2,5.28 -0.83,2.3 -1.21,4.42 -1.21,6.31 -0.07,0.6 -0.26,1.17 -0.56,1.78l0.12 1.54c-0.3,1.02 -0.75,2.3 -1.32,3.77 -0.6,1.48 -1.36,3.21 -2.34,5.28 -0.49,1.85 -1.17,3.97 -1.96,6.42 -0.83,2.41 -1.78,5.06 -2.87,7.97 -0.46,0.72 -1.02,1.63 -1.7,2.68 -0.72,1.1 -1.48,2.26 -2.27,3.59 -0.23,0.98 -0.61,2.07 -1.13,3.32 -0.49,1.24 -1.21,2.72 -2.08,4.41 -0.46,0.91 -1.02,1.85 -1.78,2.87 -0.72,1.05 -1.62,2.38 -2.64,4 -0.46,0.71 -0.9,1.66 -1.44,2.76 -0.53,1.09 -1.09,2.33 -1.78,3.73 -0.79,1.29 -1.84,2.83 -3.2,4.65 -1.32,1.85 -2.83,4.04 -4.49,6.53 -2.3,4.04 -4.64,7.92 -7.06,11.58 0,7.18 1.39,12.57 4.23,16.2 2.83,3.66 7.09,5.47 12.76,5.47 0.35,0 1.44,-0.27 3.29,-0.79 1.85,-0.49 4.38,-1.32 7.59,-2.45 0.94,-0.57 2.11,-1.39 3.43,-2.5 1.28,-1.09 2.79,-2.38 4.49,-3.85l4.3 10.2c-1.92,1.7 -3.81,3.44 -5.74,5.21 -1.89,1.77 -3.85,3.51 -5.85,5.21 -2.27,1.92 -4.57,3.39 -6.95,4.38 -2.34,1.02 -4.64,1.51 -6.95,1.51 -1.17,0 -2.94,-0.11 -5.4,-0.37 -2.42,-0.26 -4.23,-0.42 -5.51,-0.42 -4.12,0 -7.51,-1.66 -10.19,-4.98 -2.68,-3.32 -4.57,-8.31 -5.67,-14.95 -0.15,-0.68 -0.33,-1.25 -0.6,-1.78 -0.26,-0.53 -0.72,-1.1 -1.39,-1.77 -0.95,0.94 -2.09,2.11 -3.36,3.43 -1.28,1.32 -2.83,2.83 -4.68,4.53l-4.53 -10.2zm52.74 -86.63l-0.76 -0.46c-4.11,3.97 -7.24,7.74 -9.32,11.29 -2.11,3.52 -3.13,6.95 -3.13,10.26 0,0.49 -0.26,1.37 -0.72,2.61 -0.49,1.21 -1.21,2.76 -2.15,4.68 -1.21,2.27 -2.41,4.8 -3.66,7.51 -1.4,4.12 -2.46,7.47 -3.21,10.04 -0.71,2.61 -1.09,4.42 -1.09,5.55l0.68 0.87c0.64,-0.07 1.47,-0.72 2.42,-2 0.95,-1.25 2.08,-3.1 3.32,-5.51 0.56,-1.32 1.44,-2.87 2.53,-4.65 1.09,-1.78 2.34,-3.85 3.74,-6.31 1.16,-1.62 3.05,-5.77 5.62,-12.45 2.57,-6.72 4,-10.99 4.19,-12.84 0.07,-1.47 0.3,-2.94 0.6,-4.38 0.34,-1.43 0.64,-2.83 0.95,-4.22zm-402.38 32.3c1.25,-2.24 2.42,-4.19 3.43,-5.88 0.62,-3.86 1.06,-7.58 1.41,-11.24 0.33,-3.59 0.94,-7.38 1.6,-11.17 0.45,-5.68 0.28,-10.22 -0.51,-13.67 -0.79,-3.45 -2.2,-5.62 -4.13,-6.57l-11.02 -5.34c-1.25,-0.54 -3.09,-1.15 -5.54,-1.97 -1.42,0 -2.72,0.67 -3.74,1.97 -1.11,1.35 -2.05,3.24 -2.85,5.75 -0.3,0.95 -0.81,3.59 -1.51,7.92 -0.79,4.4 -1.79,10.49 -3.16,18.41 -0.33,1.9 -0.66,3.79 -1.09,5.75 -0.44,2.03 -0.79,3.99 -1.02,5.95 -0.43,1.35 -0.45,2.91 -0.14,4.67 0.39,1.76 0.94,3.85 1.6,6.23 -1.52,2.64 -2.14,9.06 -1.86,19.21 0.21,10.15 1.32,23.89 3.17,41.21 1.56,14.42 3.03,27.01 4.32,37.83 1.28,10.83 2.63,19.76 3.93,26.73 0.7,3.72 1.53,7.72 2.54,11.98 0.98,4.33 1.99,8.8 3.03,13.4 -2.1,2.78 -3.99,5.28 -5.78,7.51 -0.45,1.83 -0.61,3.18 -0.46,3.99 1.16,2.1 2.59,4.8 4.31,8.12 1.74,3.25 3.8,6.97 6.14,11.1 2.13,1.15 4.42,2.5 6.87,3.93 1.12,2.64 2.07,4.94 2.71,6.97 2.05,1.42 4.08,2.5 6,3.25 1.92,0.75 3.85,1.09 5.68,1.09 3.31,0 6.86,-1.56 10.71,-4.74 3.92,-3.17 6.38,-6.42 7.44,-9.74 0.71,-2.23 0.04,-5.01 -1.95,-8.32 -1.99,-3.31 -2.99,-5.48 -3.07,-6.49l1.25 -2.03 2.78 -2.57c1.6,-3.32 3.29,-6.3 5.03,-9 1.81,-2.71 3.8,-5.35 5.89,-7.85 3.61,-3.92 7.34,-8.8 11,-14.55 3.66,-5.75 7.52,-12.31 11.42,-19.69 1.78,-3.45 3.13,-6.23 4.12,-8.25 0.99,-2.03 1.62,-3.38 1.84,-4.06 0.84,-0.95 1.8,-2.23 3.01,-3.92 1.24,-1.76 2.61,-3.72 4.06,-5.95 2.08,-4.4 4.64,-9.88 7.75,-16.44 3.13,-6.63 6.61,-14.35 10.52,-23.22 0.35,-1.08 0.87,-2.3 1.68,-3.79 0.79,-1.42 1.85,-3.24 3.2,-5.34 1.44,-1.97 2.52,-3.66 3.2,-5.14 0.73,-1.42 1.29,-2.77 1.66,-3.92 1.1,-3.86 2.24,-7.65 3.4,-11.31 1.74,-2.91 2.57,-4.67 2.46,-5.14l0.92 -7.78c1.87,-1.83 3.66,-4.05 5.39,-6.7 1.72,-2.64 3.12,-5.75 4.26,-9.34 0.41,-1.29 0.62,-2.57 0.6,-3.79 0.03,-1.15 -0.08,-2.3 -0.3,-3.31 1.37,-2.17 2.51,-4.26 3.63,-6.5 1.09,-2.16 2.03,-4.47 2.83,-6.97 2,-2.03 3.58,-3.99 4.79,-5.88 1.14,-1.9 1.82,-3.59 1.89,-5.07l1.3 -7.92c1.17,-1.96 2.16,-3.59 3,-4.93 1.04,-7.92 1.85,-14.28 2.27,-19.02 0.5,-4.74 0.65,-7.78 0.55,-9.13 -0.5,-4.6 -2.15,-8.32 -4.83,-11.17 -2.75,-2.85 -6.66,-4.8 -11.73,-5.89 -1.41,-1.28 -2.7,-2.37 -3.88,-3.11 -1.1,-0.81 -2.25,-1.22 -3.48,-1.22 -1.42,0 -2.99,0.67 -4.72,2.1 -1.72,1.35 -3.38,3.38 -4.97,6.02 -1.39,2.23 -2.55,4.4 -3.38,6.56 -0.87,2.1 -1.54,3.99 -1.97,5.75 -1.02,4.87 -2.26,10.49 -3.75,16.85 -1.53,6.3 -3.39,13.4 -5.61,21.18 -0.03,0.95 0.11,2.44 0.4,4.47 0.23,2.03 0.19,3.66 -0.2,4.87 -0.41,1.29 -1.55,3.38 -3.36,6.29 -1.88,2.91 -3.04,5.07 -3.45,6.36 -0.26,0.81 -0.58,2.23 -1,4.4 -0.4,2.1 -1.27,6.09 -2.69,12.05 -1.45,3.05 -3.13,6.23 -5,9.54 -0.45,1.42 -1.01,3.79 -1.66,7.11 -0.65,3.31 -1.22,5.75 -1.74,7.37 -0.28,0.88 -0.66,1.62 -1.06,2.03 -0.42,0.47 -1.55,2.3 -3.37,5.48 -1,2.91 -2.39,6.23 -4.07,10.01 -1.66,3.72 -3.63,8.19 -5.97,13.4 -2.1,4.47 -4.7,10.08 -7.78,16.78 -3.17,6.77 -6.6,14.55 -10.38,23.42l-2.29 6.56c-0.28,0.88 -0.89,1.96 -1.84,3.25 -0.95,1.28 -2.18,2.57 -3.6,3.86 -1.96,3.59 -4.07,7.44 -6.31,11.5 -2.19,4.12 -4.48,8.32 -6.81,12.65 -0.74,1.49 -1.59,2.64 -2.43,3.38 -0.93,0.81 -1.81,1.22 -2.62,1.22 -1.91,-2.91 -3.27,-5.88 -4.05,-8.93 -0.7,-1.42 -1.39,-4.12 -2.06,-7.99 -0.64,-3.92 -1.26,-9.2 -1.81,-15.77 -0.05,-1.76 -0.42,-3.79 -0.95,-6.16 -0.6,-2.37 -1.22,-5.07 -1.95,-8.12 -0.92,-2.64 -1.76,-7.44 -2.48,-14.48 -0.83,-6.97 -1.52,-16.24 -2.27,-27.67 -0.48,-9.54 -0.89,-17.59 -1.2,-24.23 -0.34,-6.57 -0.49,-11.64 -0.36,-15.22l0.19 -3.79zm-161.52 64.56c0.55,-0.55 1.11,-1.23 1.7,-2.13 0.55,-0.87 1.22,-1.86 2.02,-2.93l8.93 -6.08c1.11,-1.3 2.77,-2.97 5.02,-4.98 2.25,-2.01 5.02,-4.5 8.34,-7.39 0.4,-0.87 1.03,-1.86 1.94,-2.97 0.87,-1.11 1.94,-2.21 3.16,-3.32 1.07,-0.99 2.17,-1.94 3.24,-2.8 1.07,-0.91 2.1,-1.78 3.01,-2.61 1.15,-1.18 2.25,-2.33 3.28,-3.48 1.07,-1.15 2.1,-2.29 3.2,-3.36 1.23,-1.07 2.49,-1.94 3.8,-2.57 1.3,-0.59 2.76,-0.91 4.3,-0.91 1.7,0 2.97,0.2 3.87,0.63 0.87,0.44 1.34,1.03 1.42,1.78 -0.75,1.78 -1.58,3.56 -2.41,5.33l0.67 1.07c3.4,-1.34 6.05,-2.29 7.98,-2.92 1.94,-0.6 3.16,-0.91 3.72,-0.91 5.61,0 9.84,1.7 12.64,5.13 2.8,3.44 4.23,8.66 4.23,15.57 0,1.34 -0.16,2.88 -0.47,4.66 -0.32,1.74 -0.79,3.68 -1.5,5.77 -0.75,2.33 -1.58,4.23 -2.49,5.77 -0.87,1.58 -1.7,2.69 -2.49,3.36 0.32,0.87 0.67,1.54 1.07,1.97 0.35,0.39 0.87,0.63 1.5,0.63 0.59,0 1.23,-0.2 1.9,-0.59 0.67,-0.39 1.46,-0.95 2.37,-1.74 0.79,1.7 1.54,3.48 2.25,5.29 0.75,1.82 1.51,3.6 2.25,5.38 -1.38,1.23 -2.73,2.45 -4.03,3.64 -1.34,1.15 -2.73,2.29 -4.19,3.36 -1.78,1.51 -3.44,2.57 -5.02,3.2 -1.58,0.67 -3.12,0.99 -4.66,0.99 -1.78,0 -3.24,-0.39 -4.43,-1.27 -1.15,-0.87 -2.06,-2.05 -2.77,-3.64 -1.93,2.57 -4.26,4.94 -6.99,7.07 -2.73,2.13 -5.77,3.92 -9.05,5.3 -1.94,0.95 -3.72,1.66 -5.3,2.17 -1.58,0.51 -3,0.75 -4.31,0.75 -0.39,0 -1.15,0.16 -2.26,0.47 -1.14,0.32 -2.05,0.47 -2.73,0.47 -4.38,0 -8.38,-1.85 -11.89,-5.61 -3.55,-3.72 -5.33,-7.9 -5.33,-12.49 0,-1.85 0.44,-4.31 1.27,-7.39 0.87,-3.04 1.3,-4.82 1.3,-5.38 0,-0.56 -0.2,-0.99 -0.55,-1.34 -0.32,-0.32 -0.83,-0.51 -1.42,-0.51 -0.4,0 -1.31,0.59 -2.81,1.74 -1.46,1.15 -3.52,2.8 -6.2,4.98 -0.24,0.32 -0.51,0.79 -0.83,1.38 -0.32,0.63 -0.79,1.3 -1.51,2.09 -0.63,-1.78 -1.34,-3.55 -2.13,-5.38 -0.79,-1.82 -1.66,-3.59 -2.61,-5.29zm55.71 -20.98c-0.39,0.08 -0.95,0.47 -1.66,1.23 -0.75,0.71 -1.46,1.62 -2.13,2.72 -1.11,1.74 -2.33,3.68 -3.71,5.77 -0.87,0.95 -1.74,1.66 -2.73,2.13 -0.95,0.51 -2.06,0.87 -3.28,1.11 -0.79,0.08 -1.58,0.83 -2.45,2.25 -0.83,1.42 -1.66,3.52 -2.53,6.21 -0.83,2.41 -1.46,4.43 -1.86,6.12 -0.39,1.7 -0.55,3.12 -0.55,4.31 0,2.13 0.51,3.75 1.62,4.86 1.07,1.07 2.73,1.62 4.94,1.62 3.55,0 6.8,-0.99 9.8,-2.97 2.96,-1.97 5.73,-4.93 8.38,-8.85 1.23,-1.46 2.37,-2.85 3.44,-4.19 0.63,-0.44 1.14,-1.18 1.5,-2.25 0.39,-1.02 0.79,-2.33 1.18,-3.87l2.06 -6.6c-0.67,-2.29 -1.34,-4.15 -1.94,-5.49 -0.63,-1.34 -1.27,-2.17 -1.86,-2.49 -0.39,-0.24 -1.22,-0.47 -2.57,-0.75 -1.3,-0.28 -3.2,-0.55 -5.65,-0.87zm-121.94 20.98l0.71 -0.79 0.32 -1.18c2.09,-2.85 5.77,-6.56 11.03,-11.14 5.26,-4.59 8.85,-8.3 10.87,-11.14 0.79,-1.23 1.66,-2.13 2.69,-2.69 0.99,-0.51 1.97,-0.79 3,-0.79 2.69,0 4.98,0.67 6.83,2.01 1.86,1.34 3.08,3.4 3.67,6.09 0.56,2.41 1.07,4.82 1.5,7.23 0.48,2.45 0.87,4.9 1.19,7.35 0.51,1.54 1.18,3.87 1.93,7 0.79,3.12 1.34,4.9 1.74,5.38 0.35,0.75 0.95,1.3 1.7,1.66 0.79,0.36 1.74,0.51 2.88,0.51 1.39,0 2.81,-0.23 4.27,-0.75 1.42,-0.47 2.92,-1.34 4.47,-2.61 1.14,-0.99 2.37,-2.02 3.64,-3.04 1.27,-1.07 2.49,-2.09 3.71,-3.08l4.74 10.67c-1.23,1.23 -2.88,2.65 -4.9,4.23 -2.06,1.58 -4.51,3.44 -7.35,5.54 -3.16,2.29 -5.84,4.03 -8.06,5.13 -2.25,1.15 -3.91,1.7 -5.1,1.7 -7,0 -11.54,-0.83 -13.63,-2.45 -2.06,-1.62 -4.39,-6.12 -6.92,-13.51 -0.32,-0.67 -0.75,-1.38 -1.38,-2.25 -0.59,-0.83 -1.3,-1.86 -2.05,-3.01 -0.95,-1.78 -1.74,-3.12 -2.46,-3.99 -0.67,-0.91 -1.26,-1.34 -1.74,-1.34 -1.23,0 -2.89,0.83 -4.94,2.49 -2.1,1.66 -4.63,4.15 -7.63,7.47l-0.57 -1.42 0.53 1.42c-0.39,0.24 -1.23,1.03 -2.49,2.37 -1.27,1.34 -2.97,3.28 -5.02,5.73 -1.23,1.46 -2.76,2.53 -4.58,3.2 -1.82,0.63 -4.03,0.99 -6.64,0.99 -5.81,0 -10.51,-1.54 -14.11,-4.54 -3.64,-3.01 -6.16,-7.51 -7.62,-13.52 -0.32,-1.23 -0.6,-2.29 -0.83,-3.2 -0.24,-0.95 -0.47,-1.78 -0.71,-2.53 -0.51,-1.46 -1.46,-3.04 -2.77,-4.74 -0.51,0.79 -0.95,1.34 -1.27,1.74 -0.91,0.64 -1.93,1.51 -3.08,2.65 -1.11,1.18 -2.25,2.65 -3.4,4.43 -0.24,0.75 -0.67,1.7 -1.26,2.8 -0.63,1.15 -1.47,2.45 -2.57,3.99 -2.45,2.88 -4.93,5.72 -7.51,8.65 -2.53,2.88 -5.1,5.73 -7.62,8.5 -3.48,3.87 -6.68,6.68 -9.6,8.49 -2.92,1.82 -5.46,2.73 -7.63,2.73 -3.87,0 -6.72,-0.91 -8.57,-2.73 -1.86,-1.81 -2.77,-4.66 -2.77,-8.53 0,-1.78 0.67,-4.27 2.02,-7.47 1.34,-3.24 2.02,-5.61 2.02,-7.15l-0.71 -1.86 -4.74 -10.67 0.71 -0.79 0.31 -1.14c1.42,-1.7 2.61,-3.01 3.64,-4 0.99,-0.95 1.78,-1.7 2.29,-2.21 0.39,-0.39 1.26,-0.91 2.57,-1.5 1.34,-0.63 3.12,-1.39 5.33,-2.29l1.54 -0.95c0.51,-0.83 1.51,-2.06 2.89,-3.68 1.38,-1.62 3.08,-3.48 4.98,-5.57 0.39,-0.47 0.99,-0.95 1.74,-1.5 0.79,-0.56 1.58,-1.23 2.45,-2.1 1.86,-1.78 3.71,-3.59 5.53,-5.49 1.85,-1.9 3.6,-3.75 5.22,-5.61 0.71,-0.67 2.13,-1.93 4.31,-3.75 2.13,-1.82 5.1,-4.35 8.77,-7.59 0.55,-0.39 1.5,-0.95 2.92,-1.66 1.38,-0.75 3.2,-1.62 5.41,-2.6 1.03,-0.48 1.78,-1.23 2.25,-2.26 0.51,-1.07 0.75,-2.37 0.75,-3.99 0.63,-1.03 1.23,-2.25 1.82,-3.67 0.59,-1.42 1.15,-3.13 1.66,-5.02 0.79,-2.41 1.39,-4.35 1.82,-5.85 0.43,-1.54 0.75,-2.53 0.99,-3.08 1.3,-3.48 3.08,-7.54 5.29,-12.21 2.25,-4.7 4.9,-10.03 8.02,-16.08 1.54,-3.16 3.36,-6.68 5.42,-10.52 1.3,-1.93 2.8,-3.4 4.43,-4.34 1.62,-0.99 3.32,-1.46 5.06,-1.46 1.42,0 2.45,0.56 3.08,1.62 0.67,1.07 0.99,2.65 0.99,4.74 0,3.32 -0.24,6.48 -0.71,9.52 -0.44,3 -1.3,5.81 -2.53,8.46 -0.23,0.51 -0.43,1.34 -0.59,2.41 -0.16,1.07 -0.32,2.41 -0.47,3.95 -0.08,1.07 -0.36,2.09 -0.87,3.12 -0.51,0.99 -1.15,1.94 -1.9,2.77 0,0.56 -0.08,1.19 -0.24,1.94 -0.16,0.71 -0.32,1.58 -0.47,2.61l-1.62 2.05c-0.16,0.48 -0.24,1.03 -0.24,1.7 0,0.63 0,1.3 0,2.02 0,0.48 -0.28,1.38 -0.83,2.73 -0.51,1.34 -1.34,3.28 -2.41,5.73 -1.27,2.65 -2.26,4.7 -2.97,6.24 -0.75,1.54 -1.14,2.53 -1.23,2.92 -0.31,0.36 -0.71,0.99 -1.22,1.85 -0.51,0.83 -1.11,1.78 -1.78,2.89l0.31 2.53 -7.43 26.64c0,2.92 0.04,5.41 0.12,7.51 0.08,2.06 0.32,3.72 0.71,4.94 0.36,1.3 0.99,2.92 1.9,4.78 0.87,1.9 2.02,3.92 3.36,6.09 0.87,1.46 1.85,2.53 3,3.16 1.14,0.67 2.37,0.99 3.68,0.99 1.46,0 2.92,-0.39 4.43,-1.22 1.5,-0.79 3,-2.06 4.54,-3.75 0.95,2.02 1.86,3.91 2.69,5.69 0.31,0.7 0.64,1.4 0.93,2.09l-0.29 -0.7c-0.59,-1.39 -1.23,-3.01 -1.86,-4.86 -0.16,-0.47 -0.35,-0.91 -0.59,-1.3 -0.24,-0.35 -0.51,-0.67 -0.83,-0.91zm48.25 -91.28c1.94,0 3.36,0.39 4.23,1.15 0.91,0.79 1.34,1.9 1.34,3.36 -0.47,2.17 -0.87,3.99 -1.14,5.45 -0.79,2.77 -1.46,5.06 -2.06,6.83 -0.55,1.78 -0.99,3.05 -1.3,3.84 -0.71,1.66 -1.66,3.16 -2.85,4.42 -1.18,1.27 -2.65,2.41 -4.35,3.44 -1.78,1.23 -3.24,2.09 -4.47,2.61 -1.18,0.47 -2.02,0.71 -2.49,0.63 -1.3,-0.16 -2.57,-0.32 -3.75,-0.44 -1.19,-0.08 -2.37,-0.16 -3.52,-0.16 -1.03,-0.56 -1.82,-1.58 -2.37,-3.12 -0.59,-1.55 -0.87,-3.64 -0.87,-6.25 0,-2.33 1.38,-5.26 4.23,-8.73 2.81,-3.52 5.3,-5.41 7.47,-5.65 1.3,-1.62 2.85,-3.44 4.62,-5.54 0.75,-0.55 1.78,-0.99 3.01,-1.34 1.23,-0.36 2.64,-0.51 4.26,-0.51zm-86.77 58.29c0,-0.39 -0.16,-0.99 -0.47,-1.74 -1.15,1.14 -2.57,2.49 -4.27,4.07 -1.7,1.54 -3.68,3.2 -6,5.05 -0.56,1.27 -1.78,3.2 -3.68,5.85 -1.93,2.69 -4.62,5.96 -8.1,9.92 -1.02,1.14 -2.37,3.12 -4.07,5.96 -1.66,2.81 -3.75,6.24 -6.21,10.35 -0.87,1.62 -1.74,3.56 -2.69,5.89 0,0.48 0.32,0.95 0.95,1.5 2.29,-0.67 5.14,-2.72 8.5,-6.08 3.31,-3.36 7.31,-7.98 11.93,-13.95 4.78,-6.32 8.34,-11.7 10.63,-16.12 2.33,-4.43 3.48,-8.02 3.48,-10.71zm-154.59 32.99c0.32,-0.23 0.55,-0.51 0.75,-0.79 0.2,-0.32 0.32,-0.71 0.32,-1.14 1.3,-1.07 2.8,-2.57 4.46,-4.43 1.7,-1.9 3.59,-4.07 5.69,-6.6 1.7,-2.34 3.44,-4.63 5.26,-6.96 1.82,-2.33 3.75,-4.62 5.85,-6.95 1.7,-2.33 3.36,-4.74 5.02,-7.23 1.66,-2.53 3.44,-4.98 5.3,-7.34 3.08,-1.5 5.45,-2.53 7.15,-3.17 1.7,-0.59 2.85,-0.91 3.48,-0.91 1.15,0 2.05,0.36 2.69,1.11 0.59,0.72 0.91,1.78 0.91,3.17 0,0.47 -0.12,1.14 -0.35,1.97 -0.24,0.87 -0.48,1.78 -0.79,2.8 -0.55,1.54 -1.18,3.12 -1.85,4.74 -0.63,2.69 -1.34,5.41 -2.21,8.1 -0.83,2.73 -1.66,5.38 -2.41,8.02 -0.79,3.32 -1.38,6.37 -1.82,9.13 -0.43,2.8 -0.63,5.34 -0.63,7.67 0,4.31 0.2,7.51 0.63,9.6 0.44,2.09 1.03,3 1.82,2.77 0.75,-0.44 1.7,-0.99 2.89,-1.66 1.15,-0.67 2.49,-1.42 4.03,-2.25 1.38,-1.46 2.96,-3.28 4.7,-5.46 1.74,-2.17 3.84,-4.7 6.28,-7.67 1.42,-2.13 2.85,-4.26 4.31,-6.36 0.52,-0.6 1.15,-1.34 1.9,-2.21 0.75,-0.83 1.42,-1.7 2.02,-2.53 1.46,-3.71 3.12,-6.48 4.94,-8.29 1.82,-1.82 3.83,-2.73 6.05,-2.73 2.02,0 3.64,0.28 4.82,0.75 1.19,0.51 2.02,1.26 2.49,2.29 0.24,0.51 0.44,1.46 0.56,2.76 0.16,1.3 0.23,3.04 0.23,5.21 0,0.83 0.2,2.1 0.51,3.72 0.36,1.62 0.56,2.8 0.56,3.59 0,2.84 0.47,4.98 1.5,6.4 0.99,1.46 2.53,2.17 4.62,2.17 0.6,0 1.31,-0.16 2.14,-0.39 0.83,-0.28 1.66,-0.55 2.49,-0.91l4.74 10.67c-4.62,2.8 -8.41,4.94 -11.38,6.4 -3,1.46 -5.21,2.18 -6.67,2.18 -3.83,0 -7,-0.99 -9.48,-3.01 -2.45,-2.02 -4.27,-4.98 -5.42,-8.93 -0.16,-0.91 -0.51,-1.86 -0.99,-2.77 -0.51,-0.95 -1.14,-1.86 -1.94,-2.8 -0.67,0.79 -1.46,1.7 -2.37,2.8 -0.87,1.07 -1.82,2.13 -2.81,3.24 -2.09,2.53 -4.19,5.02 -6.28,7.47 -2.06,2.45 -4.19,4.86 -6.36,7.23 -2.69,3.16 -5.41,5.49 -8.14,6.92 -2.73,1.42 -5.29,2.13 -7.7,2.13 -3.52,0 -6.4,-1.07 -8.54,-3.2 -2.18,-2.1 -3.56,-5.26 -4.19,-9.45 -0.67,-3.99 -1.14,-7.11 -1.38,-9.36 -0.23,-2.25 -0.28,-3.6 -0.12,-4.07 -0.16,-2.25 -0.35,-3.95 -0.63,-5.1 -0.28,-1.15 -0.67,-1.74 -1.23,-1.74l-0.67 0.35 -6.6 6.76c-0.24,0.55 -0.63,1.23 -1.15,2.02 -0.55,0.79 -1.3,1.78 -2.21,2.92 -0.32,-1.14 -0.87,-2.6 -1.66,-4.31l-0.51 -1.08 0.35 0.8c0.75,1.74 1.3,3.29 1.7,4.59 -1.78,1.62 -3.52,3.32 -5.26,5.06 -1.74,1.78 -3.56,3.44 -5.49,4.98 -2.33,1.78 -4.55,3.12 -6.72,4.03 -2.13,0.91 -4.31,1.34 -6.48,1.34 -4.98,0 -8.85,-1.42 -11.54,-4.26 -2.69,-2.88 -4.26,-7.19 -4.74,-13 0,-0.67 -0.12,-1.38 -0.28,-2.14 -0.2,-0.71 -0.63,-1.46 -1.23,-2.25 -0.39,0.39 -0.83,0.79 -1.26,1.23 -0.47,0.43 -1.03,0.99 -1.62,1.66 -1.03,0.79 -2.29,1.74 -3.8,2.92 -1.5,1.14 -3.24,2.53 -5.25,4.15 -2.73,2.77 -4.98,5.06 -6.84,6.84 -1.85,1.78 -3.2,3.04 -3.95,3.83 -1.55,1.3 -3.36,2.61 -5.42,3.92 -2.02,1.3 -4.35,2.64 -6.88,4.07 -1.62,0.83 -3,1.5 -4.19,2.02 -1.14,0.51 -2.01,0.75 -2.53,0.75 -3.72,0 -6.48,-0.91 -8.26,-2.73 -1.78,-1.81 -2.64,-4.62 -2.64,-8.46 0,-2.09 0.47,-4.07 1.38,-5.96 0.91,-1.9 2.25,-3.76 4.07,-5.54 0.16,-1.03 0.24,-1.82 0.24,-2.45 0,-0.39 -0.08,-0.79 -0.28,-1.18 -0.2,-0.43 -0.48,-0.91 -0.75,-1.42 -0.47,-1.11 -0.99,-2.34 -1.58,-3.68 -0.55,-1.38 -1.18,-2.84 -1.9,-4.38 0.32,-0.32 0.75,-0.91 1.34,-1.78 0.55,-0.87 1.22,-1.98 2.01,-3.24l10.51 -6.87c0.39,-0.39 0.83,-0.91 1.38,-1.58 0.56,-0.63 1.15,-1.58 1.86,-2.8 0.55,-1.03 1.27,-1.85 2.13,-2.57 0.87,-0.67 1.9,-1.3 3.08,-1.86 0.59,-0.75 1.5,-1.74 2.64,-2.89 1.15,-1.14 2.61,-2.49 4.39,-4.03 0.87,-0.47 1.94,-1.14 3.24,-2.05 1.3,-0.87 2.73,-2.06 4.26,-3.52 7.04,-6.64 13.16,-11.62 18.46,-14.94 5.3,-3.31 9.72,-4.98 13.35,-4.98 2.02,0 3.48,0.44 4.43,1.27 0.99,0.87 1.46,2.05 1.46,3.59 0,1.62 -0.28,3.04 -0.87,4.26 -0.59,1.27 -1.46,2.29 -2.73,3.13 -1.9,1.42 -3.99,2.96 -6.24,4.66 -1.23,1.62 -2.73,3.32 -4.5,5.14 -1.78,1.82 -3.84,3.59 -6.25,5.37 -0.75,1.03 -1.42,1.9 -1.93,2.69 -0.4,0.36 -1.15,1.07 -2.21,2.06 -1.07,1.02 -2.49,2.17 -4.27,3.48 -0.79,1.7 -2.45,3.91 -5.05,6.6 -2.57,2.73 -6.01,5.96 -10.31,9.72 -0.55,0.55 -1.5,1.78 -2.93,3.71 -1.38,1.94 -3.2,4.47 -5.41,7.67l0.79 1.03c1.7,-0.56 3.48,-1.46 5.33,-2.77 1.86,-1.34 3.92,-3.08 6.17,-5.22 2.6,-2.41 4.74,-4.34 6.4,-5.84 1.66,-1.51 2.85,-2.49 3.56,-2.97 0.51,-0.31 1.07,-0.63 1.58,-0.9 0.56,-0.32 1.18,-0.71 1.86,-1.19 3.56,-4.22 6.88,-7.39 9.92,-9.41 3.09,-2.05 5.93,-3.08 8.58,-3.08 1.62,0 2.85,0.63 3.68,1.9 0.87,1.27 1.34,3.2 1.5,5.73 -0.16,3.87 -0.24,7.58 -0.24,11.1 -0.08,2.49 0.59,4.7 2.02,6.67 1.42,1.98 3.28,2.97 5.57,2.97 0.72,0 1.39,-0.2 2.02,-0.59 0.67,-0.4 1.34,-0.91 2.02,-1.55 0.56,-0.71 1.07,-1.38 1.54,-2.02 0.51,-0.63 1.02,-1.23 1.54,-1.85 0.32,-0.16 0.75,-0.44 1.34,-0.83 0.53,-0.38 1.05,-0.82 1.58,-1.34l-0.04 -0.08zm-99.1 -90.69l-0.79 -0.47c-4.31,4.15 -7.59,8.1 -9.76,11.82 -2.22,3.67 -3.28,7.27 -3.28,10.75 0,0.51 -0.28,1.42 -0.75,2.73 -0.51,1.26 -1.26,2.89 -2.25,4.9 -1.26,2.37 -2.53,5.02 -3.83,7.86 -1.46,4.31 -2.57,7.82 -3.36,10.51 -0.75,2.73 -1.15,4.62 -1.15,5.81l0.71 0.91c0.67,-0.08 1.54,-0.75 2.53,-2.09 0.99,-1.3 2.18,-3.24 3.48,-5.77 0.59,-1.39 1.5,-3 2.65,-4.86 1.14,-1.85 2.45,-4.03 3.91,-6.6 1.23,-1.7 3.2,-6.04 5.89,-13.04 2.69,-7.04 4.19,-11.5 4.38,-13.44 0.08,-1.54 0.32,-3.08 0.64,-4.59 0.35,-1.5 0.67,-2.97 0.99,-4.43z"/>
  </g>
 </g>
</svg>
