<?xml version="1.0" encoding="UTF-8"?>
<!DOCTYPE svg PUBLIC "-//W3C//DTD SVG 1.1//EN" "http://www.w3.org/Graphics/SVG/1.1/DTD/svg11.dtd">
<!-- Creator: CorelDRAW 2020 (64-Bit) -->
<svg xmlns="http://www.w3.org/2000/svg" xml:space="preserve" width="51.8672mm" height="51.8672mm" version="1.1" style="shape-rendering:geometricPrecision; text-rendering:geometricPrecision; image-rendering:optimizeQuality; fill-rule:evenodd; clip-rule:evenodd"
viewBox="0 0 2254.48 2254.48"
 xmlns:xlink="http://www.w3.org/1999/xlink"
 xmlns:xodm="http://www.corel.com/coreldraw/odm/2003">
 <defs>
  <style type="text/css">
   <![CDATA[
    .fil3 {fill:black}
    .fil2 {fill:#016AFF}
    .fil5 {fill:#E2FDFF}
    .fil4 {fill:#FDFFFF}
    .fil1 {fill:black;fill-rule:nonzero}
    .fil0 {fill:#016AFF;fill-rule:nonzero}
   ]]>
  </style>
 </defs>
 <g id="Capa_x0020_1">
  <metadata id="CorelCorpID_0Corel-Layer"/>
  <path class="fil0" d="M1127.24 0c311.27,0 593.09,126.18 797.07,330.17 203.99,203.99 330.17,485.8 330.17,797.07 0,311.27 -126.18,593.09 -330.17,797.08 -203.99,203.99 -485.81,330.17 -797.08,330.17 -311.27,0 -593.08,-126.18 -797.07,-330.17 -203.99,-203.99 -330.17,-485.81 -330.17,-797.07 0,-311.27 126.18,-593.08 330.17,-797.07 203.99,-203.99 485.8,-330.17 797.07,-330.17zm775.67 351.57c-198.5,-198.5 -472.75,-321.29 -775.67,-321.29 -302.92,0 -577.16,122.79 -775.67,321.29 -198.5,198.5 -321.29,472.75 -321.29,775.67 0,302.92 122.79,577.17 321.29,775.67 198.5,198.51 472.75,321.29 775.67,321.29 302.92,0 577.17,-122.79 775.67,-321.29 198.5,-198.51 321.29,-472.76 321.29,-775.67 0,-302.92 -122.79,-577.16 -321.29,-775.67z"/>
  <g id="_2886257750112">
   <path class="fil1" d="M1869.64 1499.82c-69.17,139.13 -176.3,256.26 -307.72,337.72 -127.25,78.87 -277.21,124.41 -437.64,124.41 -229.72,0 -437.72,-93.14 -588.27,-243.69 -150.55,-150.55 -243.69,-358.57 -243.69,-588.29 0,-28.97 1.58,-58.08 4.59,-87.15 3.06,-29.37 7.61,-58.1 13.52,-86.08 4.9,-17.29 53.99,-7.16 48.83,10.37 -5.63,26.64 -9.92,53.62 -12.75,80.77 -2.75,26.5 -4.19,53.89 -4.19,82.09 0,215.93 87.55,411.46 229.03,552.94 141.48,141.48 336.99,229.03 552.92,229.03 151.09,0 292.07,-42.74 411.48,-116.76 123.48,-76.54 224.13,-186.6 289.17,-317.43 9.37,-22.61 54.23,4.68 44.7,22.07z"/>
   <path class="fil0" d="M297.97 908.05l-153.59 -60.99 20.55 -51.72 70.93 11.84c0.37,0.08 4.66,1.13 13,3.2 8.3,2.05 16.62,4.07 25.02,6.07 -5.56,-3.24 -12.45,-7.26 -20.69,-12.06 -8.22,-4.82 -12.74,-7.51 -13.58,-8.1l-59.27 -39.72 20.34 -51.23 153.58 60.99 -13.87 34.92 -117.43 -50.35 108.74 72.19 -11.19 28.2 -128.65 -22.09 119.96 43.95 -13.87 34.9z"/>
   <path class="fil0" d="M223.43 660.14l20.08 -34.88 89.74 51.68c13.56,7.82 22.47,11.76 26.74,11.86 4.21,0.1 7.61,-2.06 10.18,-6.54 2.61,-4.53 2.73,-8.62 0.38,-12.27 -2.35,-3.69 -10.18,-9.31 -23.5,-17l-89.76 -51.68 19.64 -34.09 91.4 52.63c10.34,5.95 17.83,10.87 22.41,14.74 4.56,3.87 8.18,7.94 10.71,12.25 4.41,7.18 6.23,15 5.42,23.36 -0.79,8.36 -4.29,17.9 -10.44,28.54 -5.65,9.82 -11.66,17.03 -18.03,21.58 -6.4,4.6 -13.73,6.89 -22.01,6.95 -5.91,0.1 -12.61,-1.33 -20.14,-4.23 -7.45,-2.89 -19.37,-9.07 -35.75,-18.48l-77.07 -44.41zm226.48 -47.23l-104.88 -82.04 -19.66 25.14 -25.28 -19.76 64.82 -82.9 25.28 19.78 -20.63 26.38 104.88 82.04 -24.54 31.36zm-57.69 -187.23l29.11 -27.81 71.54 74.88c10.83,11.31 18.26,17.61 22.33,18.91 4.01,1.3 7.87,0.16 11.62,-3.38 3.79,-3.64 5.04,-7.51 3.83,-11.68 -1.26,-4.19 -7.16,-11.8 -17.79,-22.94l-71.54 -74.88 28.44 -27.18 72.86 76.25c8.26,8.65 14.07,15.47 17.36,20.47 3.3,5 5.59,9.92 6.82,14.76 2.23,8.16 1.76,16.15 -1.38,23.95 -3.14,7.79 -9.17,15.95 -18.06,24.45 -8.22,7.84 -15.99,13.06 -23.38,15.63 -7.45,2.59 -15.14,2.73 -23.1,0.47 -5.69,-1.6 -11.72,-4.86 -18.12,-9.74 -6.34,-4.9 -16.03,-14.17 -29.07,-27.81l-61.48 -64.33zm204.92 -39.01l18.69 -13.2 -50.81 -52.35 32.13 65.55zm-4.74 78.58l-64.86 -156.44 38.66 -27.24 125.14 113.95 -32.47 22.89 -22.31 -22.99 -25.55 18.01 14.15 28.73 -32.77 23.1zm190.37 -114.98l-78.1 39.62 -74.72 -147.39 35.51 -18.02 59.64 117.59 42.57 -21.58 15.1 29.78zm274.8 -67.31l-8.68 -113.73 -33.83 2.59 -1.93 -25.18 1.86 -0.14c12.18,-0.93 21.76,-3.95 28.72,-9.01 6.9,-5.04 11.24,-12.12 13,-21.29l26.08 -1.98 12.67 165.85 -37.89 2.89zm79.19 -4.13l0.2 -2.67c0.49,-6.28 1.66,-12.43 3.59,-18.42 1.88,-5.99 4.59,-11.94 8.08,-17.93 7.09,-12.45 17.67,-24.58 31.72,-36.44 2.06,-1.7 3.54,-2.96 4.53,-3.7l1.05 -1.06c15.45,-13.48 23.62,-25.75 24.45,-36.72 0.38,-5.08 -0.33,-9.01 -2.21,-11.92 -1.86,-2.85 -4.72,-4.43 -8.56,-4.74 -5.44,-0.4 -9.55,1.5 -12.37,5.73 -2.79,4.21 -4.58,11.2 -5.35,20.89l-0.2 2.87 -35.18 -2.69 0.34 -4.37c1.33,-17.7 6.84,-30.89 16.48,-39.64 9.63,-8.75 22.85,-12.47 39.59,-11.18 15.14,1.15 26.64,6.11 34.56,14.9 7.92,8.81 11.31,20.39 10.2,34.78 -0.65,8.52 -3.12,16.46 -7.37,23.85 -4.25,7.39 -10.63,14.67 -19.11,21.92 -1.8,1.6 -4.52,3.85 -8.14,6.82 -15.02,12.14 -24.59,22.37 -28.74,30.73l56.22 4.29 -2.49 32.43 -101.29 -7.73zm259.76 -94.74l-28.34 100.45c0.73,0.37 1.46,0.65 2.16,0.85 0.73,0.2 1.8,0.5 3.28,0.93 4.11,1.15 7.71,1.56 10.74,1.23 3.04,-0.32 5.77,-1.46 8.14,-3.42 1.94,-1.48 3.95,-4.96 6.05,-10.3 2.11,-5.39 5.41,-16.1 9.96,-32.25l2.04 -7.23c3.73,-13.24 5.99,-22.23 6.84,-27.01 0.81,-4.79 0.79,-8.28 -0.08,-10.36 -0.87,-2.69 -2.55,-5 -5.12,-6.9 -2.55,-1.9 -6.07,-3.5 -10.48,-4.76 -1.4,-0.38 -2.41,-0.67 -3.18,-0.85 -0.73,-0.17 -1.42,-0.29 -2.03,-0.39zm-75.06 118.55l44.9 -159.03 42.24 11.92c15.47,4.37 26.52,8.91 33.24,13.56 6.7,4.68 11.38,10.79 13.95,18.26 2.03,5.87 2.65,12.85 1.88,21.01 -0.77,8.16 -4.13,22.79 -10.12,44.03 -5.99,21.21 -10.79,35.44 -14.4,42.77 -3.56,7.29 -7.77,12.96 -12.59,16.96 -6.09,5 -13.28,7.77 -21.44,8.24 -8.16,0.49 -19.96,-1.43 -35.43,-5.81l-42.25 -11.92zm124.13 40.06l67.77 -150.71 84.42 37.97 -13.16 29.25 -48.3 -21.72 -12.43 27.65 44.55 20.06 -13.62 30.24 -44.55 -20.04 -14.78 32.87 48.3 21.72 -13.8 30.65 -84.39 -37.96zm186.54 34.7l28.68 22.45 -2.98 3.8c-5.61,7.18 -8.68,12.91 -9.23,17.19 -0.57,4.29 1.23,8.06 5.39,11.3 3.28,2.57 6.76,3.5 10.42,2.77 3.66,-0.73 6.96,-3.02 9.98,-6.84 4.94,-6.34 5.02,-16.06 0.27,-29.13 -0.73,-2.19 -1.3,-3.89 -1.7,-5l-0.75 -2.09c-6.15,-18.1 -9.15,-30.37 -8.95,-36.99 0.24,-4.86 1.33,-9.7 3.28,-14.55 1.9,-4.84 4.7,-9.64 8.34,-14.31 8.91,-11.38 19.27,-17.65 31.15,-18.8 11.84,-1.22 23.72,2.89 35.59,12.18 12.97,10.12 20.32,20.99 22.19,32.71 1.86,11.68 -1.93,23.56 -11.36,35.61 -0.38,0.51 -0.99,1.2 -1.74,2.03 -0.75,0.87 -1.3,1.52 -1.72,2.04l-28.16 -22 1.25 -1.62c4.42,-5.67 6.84,-10.67 7.31,-15.02 0.44,-4.36 -1.06,-7.88 -4.54,-10.61 -2.96,-2.29 -6.11,-3.09 -9.49,-2.47 -3.42,0.65 -6.44,2.65 -9.09,6.03 -4.29,5.51 -3.79,15.34 1.56,29.5 0.95,2.63 1.66,4.61 2.13,6.03 0.5,1.1 1.07,2.67 1.78,4.78 5.71,15.33 8.26,26.5 7.73,33.54 -0.43,4.46 -1.6,9.03 -3.56,13.63 -1.98,4.59 -4.7,9.11 -8.18,13.56 -10.18,13.04 -21.48,20.32 -33.99,21.94 -12.47,1.62 -25.16,-2.65 -38.08,-12.75 -13.58,-10.61 -21.18,-21.94 -22.73,-34.03 -1.52,-12.07 2.89,-24.74 13.28,-38.04 0.65,-0.83 1.4,-1.72 2.13,-2.61 0.75,-0.91 2.03,-2.33 3.79,-4.23zm62.27 119.65l119.11 -114.53 64.15 66.72 -23.14 22.23 -36.68 -38.16 -21.86 21.01 33.87 35.23 -23.93 22.99 -33.85 -35.22 -25.97 24.98 36.68 38.15 -24.23 23.32 -64.15 -66.72zm177.98 57.35c0.3,0.51 0.69,1.1 1.1,1.72 0.43,0.69 1.07,1.54 1.94,2.67 4.92,6.19 9.9,9.59 14.94,10.1 5,0.57 10.63,-1.64 16.92,-6.62 5.22,-4.13 7.75,-8.56 7.73,-13.32 -0.04,-4.76 -2.77,-10.58 -8.2,-17.45l-2.13 -2.69 -32.31 25.59zm-98.68 27.04l129.56 -102.57 24.31 30.73c8.95,11.3 15.06,20.02 18.4,26.15 3.32,6.15 5.3,11.98 5.99,17.45 0.99,7.21 -0.4,14.37 -4.13,21.5 -3.71,7.11 -9.58,13.83 -17.53,20.12 -13.12,10.38 -25.91,14.76 -38.36,13.01 -12.43,-1.74 -24.15,-9.49 -35.06,-23.28l-8.71 -10.99 -49.63 39.27 -24.84 -31.4zm85.12 121.3l115.26 -66.66 -15.97 -27.63 27.77 -16.05 52.67 91.07 -27.75 16.07 -16.78 -29.01 -115.26 66.68 -19.94 -34.47zm41.09 78.02l153.68 -60.77 14.62 37.05 -153.64 60.77 -14.66 -37.04zm25.93 60.87l159.03 -44.86 25.12 89.07 -30.87 8.71 -14.37 -50.95 -29.19 8.24 13.26 47 -31.94 9.01 -13.24 -47 -34.7 9.78 14.39 50.95 -32.37 9.13 -25.12 -89.07zm32.61 111.44l163.99 -20.35 6.84 55.22 -67.88 23.72c-0.37,0.1 -4.63,1.23 -12.94,3.44 -8.24,2.19 -16.52,4.43 -24.84,6.7 6.44,0.16 14.41,0.38 23.93,0.65 9.51,0.26 14.77,0.44 15.81,0.54l71.05 6.34 6.78 54.7 -163.97 20.36 -4.64 -37.27 127.17 -12.33 -130.06 -11.01 -3.73 -30.1 123.42 -42.49 -126.32 19.15 -4.63 -37.29zm115 225.71l-0.18 2.53c-0.6,7.77 0.51,13.6 3.44,17.55 2.87,3.95 7.65,6.15 14.31,6.66 5.77,0.44 10.36,-1.06 13.74,-4.48 3.38,-3.44 5.32,-8.56 5.83,-15.36 0.08,-1.07 0.14,-1.9 0.16,-2.51 0,-0.61 -0.02,-1.07 -0.08,-1.46l-37.23 -2.94zm-71.22 -5.4l-0.26 3.42c-0.63,8.26 0.79,14.66 4.23,19.15 3.44,4.45 8.91,6.98 16.42,7.55 6.96,0.53 12.23,-1.13 15.79,-4.98 3.56,-3.89 5.65,-10.28 6.32,-19.15l0.2 -2.76 -42.69 -3.24zm-26.13 -41.92l164.78 12.51 -3.26 42.69c-0.97,12.9 -2.19,22.15 -3.6,27.67 -1.42,5.53 -3.46,10.28 -6.15,14.19 -3.99,5.85 -9.05,10.1 -15.17,12.77 -6.09,2.67 -13.1,3.7 -21.11,3.09 -7.11,-0.54 -13.34,-2.51 -18.73,-5.81 -5.32,-3.34 -10.42,-8.36 -15.2,-15.16 -4.31,7.28 -9.74,12.57 -16.44,15.93 -6.68,3.3 -14.47,4.66 -23.36,3.97 -7.37,-0.55 -14.21,-2.37 -20.59,-5.43 -6.38,-3.09 -11.68,-7.1 -15.95,-12.06 -4.17,-4.8 -6.92,-10.43 -8.32,-17.05 -1.36,-6.6 -1.5,-16.64 -0.49,-30.14l3.59 -47.19zm74.98 189.8c-0.14,0.65 -0.34,1.5 -0.69,2.51 -0.3,0.99 -0.53,1.76 -0.65,2.29 -1.84,7.99 -1.6,14.07 0.77,18.13 2.39,4.07 7.27,6.95 14.71,8.67 6.9,1.6 12.17,1.09 15.83,-1.6 3.65,-2.65 6.46,-8.02 8.32,-16.01 0.1,-0.55 0.24,-1.32 0.41,-2.35 0.16,-1.06 0.34,-1.93 0.48,-2.57l-39.19 -9.07zm-85.06 -60.14l160.97 37.31 -10.1 43.63c-3.32,14.27 -6.38,24.49 -9.15,30.6 -2.77,6.19 -6.19,10.89 -10.26,14.21 -4.88,3.8 -10.28,6.27 -16.37,7.35 -6.03,1.05 -12.86,0.69 -20.42,-1.07 -9.27,-2.14 -16.68,-5.61 -22.19,-10.4 -5.49,-4.74 -9.43,-11.14 -11.84,-19.07 -7.96,10.77 -21.66,14.25 -41.09,10.42l-0.51 -0.1c-2.06,-0.4 -5,-0.99 -8.88,-1.82 -18.16,-3.91 -30.27,-3.44 -36.19,1.36l10.51 -45.33c3.58,-0.26 7.25,-0.18 11.05,0.18 3.73,0.43 7.71,1.07 11.86,2.04 2.61,0.61 5.71,1.4 9.35,2.39 3.65,0.99 5.95,1.62 7.11,1.88 9.82,2.29 16.88,2.53 21.11,0.71 4.23,-1.8 7.15,-6.15 8.73,-13.01l1.86 -8 -64.43 -14.92 8.91 -38.36zm-30.32 127.8l153.56 60.95 -34.13 86.03 -29.84 -11.84 19.53 -49.21 -28.18 -11.2 -18.03 45.41 -30.83 -12.23 18.03 -45.43 -33.5 -13.28 -19.52 49.21 -31.26 -12.41 34.15 -86.01z"/>
   <rect class="fil2" transform="matrix(2.93491 3.38231 -3.38231 2.93491 895.051 213.882)" width="9.35" height="9.35" rx="1.46" ry="1.46"/>
   <g>
    <path class="fil2" d="M987.53 890.44l-32.72 21.5c-5.12,2.94 -29.57,18.19 -31.95,21.22 0.38,1.43 2.52,4.69 3.42,6.62 1.97,4.25 5.51,19.04 7.96,25.13 1.39,3.44 1.13,4.81 2.46,8.11l18.09 58.68c2.49,7.69 7.83,27.48 10.31,33.2l25.61 83.64c1.71,5.46 3.17,11.64 4.93,16.94 2.87,8.65 11.46,27.41 0.76,33.37 -5.12,2.85 -13.14,2.76 -17.12,-2.19 -3.74,-4.65 -37.06,-116.78 -41.81,-132.95l-30.87 -100.03c-1.51,-4.64 -3.18,-13.84 -7.3,-16.14 -2,9.4 0.15,20.29 3.39,29.23 6.27,17.26 16.88,62.85 23.09,83.22 11.1,36.4 20.2,73.99 30.85,110.6 2.86,9.84 -3.66,20.62 -14.83,17.97 -11.09,-2.63 -10.33,-13.21 -13.5,-22.31l-15.35 -55.43c-3.38,-12.24 -28.62,-107.01 -31.82,-109.33 -6.28,4.92 -68.72,173.07 -74.95,177.99 -13.88,10.94 -22.59,-7.45 -22.59,-7.45 -4.32,-0.4 -4.56,0.93 -8.05,1.71 -3.72,0.83 -72.01,0.3 -77.38,0.3 -13.74,-0 -24.04,-1.04 -28.9,-15.96 -1.96,-6.01 -1.36,-36.31 0.48,-42.67 4.29,-14.74 17.99,-14.24 30.68,-14.3 14.8,-0.08 29.6,0 44.4,-0.01 10.44,-0 32.73,-2.36 40.56,4.28 14.71,12.47 4.28,25.03 9.43,34.9 2.87,-4.11 54.05,-131.57 60.48,-147.18 1.94,-4.71 7.58,-17.06 8.04,-21.42 -10.54,3.01 -32.13,19.16 -42.98,25.58 -14.27,8.44 -28.77,18.21 -42.84,27.14 -13.46,8.54 -31.9,25.4 -47.12,10.24 -6.77,-6.75 -8.23,-17.94 -3.44,-26.2 3.49,-6.01 14.07,-11.66 20.14,-15.37 28.56,-17.48 56.54,-36.33 84.98,-54.08 28.55,-17.81 56.87,-36.09 85.38,-54.01l31.78 -20.14c4.31,-3.04 7.64,-3.9 11.33,-6.31 10.03,-6.54 -24.39,-26.61 -13.63,-45.49 2.71,-4.76 14.9,-12.44 20.01,-14.84 26.08,-12.24 52.64,11.04 65.52,33.05 11.14,19.04 19.92,58.33 22.62,81.41 0.96,8.18 4.9,24.22 4.81,31.17 -0.16,11.24 -18.72,7.45 -25.29,4.97 -10.1,-3.79 -13.16,-8.06 -18.97,-16.57 -9.44,-13.83 -18.74,-27.9 -28.13,-41.8zm-297.62 -199.83c-2.04,7.56 -16.41,10.14 -13.06,19.79 7.99,23 8.81,22.69 27.8,30.95l19.03 7.3c3.03,1.23 9.39,2.79 12,5.31 3.03,2.93 4.86,8.04 3.73,12.47 -0.39,1.5 -2.22,3.8 -3.96,4.38 -3.08,1.01 -4.16,-0.8 -6.84,0.63 -3.03,1.61 -9.91,3.01 -13.81,2.72 -8.33,-0.6 -21.96,-9.45 -19.16,7.84 1.48,9.14 -7.27,16 -14.65,19.33 -15.44,6.98 -7.98,13.95 -10.23,22.12 -1.46,5.33 -2.14,4.43 2.92,12.1 2,3.03 4.33,7.77 5.26,11.29 1.18,4.43 3.97,7.39 5.53,11.88 3.16,9.09 -11.24,2.9 -16.5,15.39 -3.09,7.35 -8.3,15.73 -15.57,19.04 -2.8,1.27 -3.73,0.2 -7.02,1.26 -11.58,3.75 -6.32,6.51 -5.03,15.89 1.45,10.57 3.77,19.4 -2.83,28.93 -11.58,16.73 -21.21,26.44 -7.05,45.42 0.48,0.65 7.55,7.71 10.6,12.97 0.7,1.21 0.4,2.02 1.37,3.26 7.97,10.22 7.57,25.66 -1.84,34.27 -2.69,2.45 -1.7,4.95 -6.85,8.69 -6.29,4.57 -16.42,9.76 -14.91,18.78 1.1,6.55 5.03,20.28 7.35,26.61 2.38,6.51 2.79,6.6 -0.46,12.82 -2.35,4.49 -2.59,7.06 -6.75,10.53 -15.53,12.94 -28.44,7.99 -37.59,30.89 -2.28,5.69 -7.42,20.06 -8.19,25.67 -1.98,14.42 -10.88,12.74 -17.2,13.63 -7.52,1.05 -13.1,11.81 -15.85,18.05 -4,9.05 -2.85,18.77 1.16,27.5 8.57,18.62 8.04,21.5 2.93,39.76 -1.73,6.16 -5.53,5.25 -0.49,11.21 3.83,4.53 7.26,17.05 7.88,22.99 1.29,12.44 17.19,31.07 17.17,8.47 -0.01,-13.08 -3.72,-11.26 -6.9,-20.14 -1.18,-3.28 0.45,-7.46 3.4,-9.77 3.84,1.5 3.46,-1.01 6.73,2.57 9.6,10.52 5.7,26.01 26.2,23.69 8.79,-0.99 17.32,-1.57 26.03,-4.85 2.55,-0.96 4.96,-2.26 7.26,-2.4l17.34 -2.35c7.47,-1.52 19.62,-5.72 26.94,-2.73 3.77,1.54 3.58,2.73 5.78,4.93 -3.09,4.06 -5.45,9.04 -10.32,11.91 -2.21,1.3 -2.59,2.17 -4.62,3.66l-15.37 7.96c-15.73,7.79 -21.98,-2.27 -32.65,-0.31 -2.39,0.44 -3.19,1.38 -5.56,1.99l-9.38 4.17c-1.18,0.73 -0.2,-0.02 -1.3,0.99 -2.25,2.08 -1.64,3.48 -4.83,1.74 -0.3,2.71 -0.95,3.59 -2.62,5.08l-1.16 1.1c-2.6,2.53 -3.66,2.45 -5.92,4.23 -4.69,-2.78 -5.49,-7.41 -11.05,-4.65 -2.95,8.84 1.52,18.6 3.66,26.97 0.78,3.08 0.43,3.32 1.63,6.65 1.66,4.62 4.72,14.18 7.21,17.63 9.11,1.16 14.35,-7.89 19.89,-13.58 2.89,-2.97 4.01,-2.5 6.71,-4.59 7.5,-5.8 11,1.08 17.53,0.94 6.5,-0.13 17.77,-9.41 25.2,-3.19 1.78,1.49 4.58,3.51 5.82,5.46 3.79,5.92 3.98,19.29 7.01,26.86 1.46,3.65 2.84,2.91 3.35,7.94 0.4,3.89 0.68,15.33 -4.27,15.79 1.23,7.67 -8.35,12.1 -3.79,20.11 3.36,5.9 8.64,11.58 11.41,17.26 3.55,7.26 -6.68,13.16 -9.44,23.29 -0.71,2.61 0.63,2.34 -0.43,5.62 -2.12,6.6 -3.29,2.76 -3.21,11.91 0.18,19.18 9.32,17.84 17.53,25.39 6.49,5.96 15.64,6.38 24.95,17.95 6.95,8.63 5.67,9.98 7.42,20.43 2.97,1.85 6.35,2.48 9.88,2.09 8.24,-0.92 16.08,-0.16 24.44,-1.2 14.27,-1.78 72.14,-3.69 89.63,-3.69l26.15 -0.59c5.63,0.9 4.49,1.87 10.97,0.84 18.66,-2.97 26.55,4.29 35.36,2.02l2.04 2.76 2.62 -1.09 5.46 7.06c5.06,-4.94 3.55,-2.34 10.58,-1.06 3.98,0.72 7.09,1 11.01,2.49 4.6,1.76 7.66,0.52 11.54,2.01 4.69,1.8 6.56,2.44 11.41,3.64 10.28,2.53 22.68,7.97 32.01,13.2 4.42,2.48 4.42,-2.15 8.04,3.95 8.1,-1.19 9.58,5.94 18.68,2.39 0,-7.32 -2.35,-7.33 -6.29,-12.53 -2.59,-3.4 -5,-7.99 -8.65,-10.17 -5.79,-3.46 -12.34,-16.36 -15.29,-22.34 -1.57,-3.19 -3.17,-10.17 -4.82,-14 -3.25,-7.56 -6.55,-18.72 -12.54,-25.09l-7.54 -6.76c-0.7,-0.48 -1.84,-1.54 -2.94,-2.33 1.18,-13.77 11.8,-9.41 2.7,-33.66 -8.28,-22.07 -12.15,-45.29 -18.29,-67.99 -1.51,-5.59 -1.17,-8.82 0.44,-14.32 5.75,-19.52 -1.66,-20.71 11.78,-55.45 2.04,-5.28 6.09,-8.1 9.76,-12.06 4.38,-4.72 5.56,-9.44 9.04,-13.54 8.16,-9.62 45.87,-24.61 58.79,-30.76 4.66,-2.22 10.86,-4.09 14.99,-6.84 4.12,-2.75 6.93,-7.58 11.56,-11.14 17.35,-13.37 20.86,-43.49 23.66,-63.53 0.87,-6.25 2.33,-12.65 3.03,-18.85 1.4,-12.24 5.1,-50.49 7.85,-57.55 2.26,-5.8 13.36,-21.51 17.56,-26.84 6.72,-8.51 16.56,-13.94 22.64,-21.76 12.62,-16.21 8.46,-9.69 25.61,-17.38 19.42,-8.71 13.41,-8.18 26.38,-17.16 28.38,-19.66 23.04,-16.72 44.22,-43.19 9.77,-12.2 15.49,-6.03 23.4,-20.87 2.53,-4.76 7.41,-8.67 8.25,-13.8 1.86,-11.44 -10.26,-12.36 -3.03,-35.25 4.88,-15.43 9.59,-11.61 11.61,-32.71 1.82,-18.98 10.97,-29.11 -8.18,-50.64 -9.36,-10.51 -16.16,-11.58 -29.31,-12.62 -13.94,-1.1 -26.96,-1.23 -40.74,-2.11 -16.8,-1.06 -18.16,-3.25 -29.12,-15.27 -3.71,-4.08 -6.87,-7.83 -10.85,-11.73 -4.11,-4.02 -6.29,-8.42 -9.85,-12.73 -7.42,-8.99 -17.4,-12.04 -24.36,-19.69 -8.19,-8.99 -10.72,-15.13 -16.68,-25.06 -9.05,-15.09 -9.15,-12.6 -13.54,-30.79 -6.19,-25.65 0.96,-19.66 0.21,-37.92 -7.36,0.96 -42.28,0.46 -49.72,-0.7 -28.35,-4.43 -71.06,2.5 -101.83,-2.02l-37.02 -0.72c-5.92,0.9 -6.98,-0.27 -12.32,-0.36 -17.16,-0.27 -34.04,0.72 -51.12,-0.8 -25.31,-2.26 -87.33,0.96 -103.07,-0.79 -7.91,-0.88 -15.21,-0.2 -22.89,-1.13 -5.46,-0.67 -30.24,-4.46 -21.84,6.75 1.74,2.32 2.85,2.45 1.7,5.69 -2.35,6.67 -3.41,6.05 -7.02,10.53l-1.25 -0.63z"/>
    <path class="fil3" d="M1307.76 1100.76c7.91,-33.32 13.64,-71.95 20.37,-106.17 21.35,6.82 87.6,36.96 105.73,48.76 -1.43,2.88 -114.28,52.84 -126.1,57.41zm48.17 -152.01c1.44,-0.16 2.47,-0.53 3.53,-1 1.06,-0.47 2.16,-1.03 3.71,-1.54 18.6,-6.19 107.62,-37.55 112.21,-37.19 1.61,2.31 18.97,100.07 19.02,108.97 -5.22,0.11 -6.27,3.64 -12.04,3.76 -0,-10.56 -6.22,-17.36 -15.22,-21.65 -37.06,-17.71 -74.43,-33.82 -111.21,-51.34zm-9.25 -53.12c-1.66,-4.99 9.25,-45.09 9.25,-55.25 5.8,0.49 49.25,25.2 60.8,31.77l-70.05 23.48zm108.42 -106.25c0.48,0.7 7.89,40.58 8.45,47.24 -29.42,-15.19 -58.7,-31.3 -87.88,-46.88 2.05,-1.06 71.02,-1.19 79.44,-0.36zm-114.98 355.79c0.04,-0.06 156.84,-73.62 164.06,-73.75 21.49,113.71 40.32,229.53 59.53,343.85 3.47,20.65 3.48,50.14 32.07,48.89 30.5,-1.33 25.02,-31.06 21.09,-51.8 -21.69,-114.42 -39.3,-230.25 -59.74,-344.98 -8.18,-45.94 -15.89,-91.98 -23.84,-137.96 -7.94,-45.97 -16.42,-92.06 -23.68,-138.12 -2.37,-15.06 -11.26,-47.93 -27.51,-53.02 -10.08,-3.16 -27.38,-1.75 -38.22,-1.66 -23.88,0.18 -105.68,-2.56 -117.78,3.18 -7.53,3.58 -10.61,8.7 -11.93,15.4 -22.59,114.46 -39.83,235.5 -61.62,351.24 -2.13,11.3 -3.37,21.85 -3.14,33.33 0.27,13.63 3.37,19.39 14.88,24.85 45.71,21.69 89.79,45.06 136.27,66.1 16.82,7.62 41.17,23.73 58.94,13.97 9.61,-5.29 13.23,-17.53 11.61,-27.84 -1.86,-11.81 -9.64,-16.63 -19.66,-21.21 -36.24,-16.56 -74.61,-36.1 -111.34,-50.46z"/>
    <path class="fil2" d="M1211.09 1503.51l0.34 104.48c0,13.8 -1.23,19.67 9.61,18.69 7.99,-0.73 4.89,-9.74 4.89,-18.69 0,-9.21 -0.91,-44.49 0.95,-48.52 8.61,-1.67 6.28,3.89 6.25,10.89 -0.04,13.43 -1.31,44.41 1.59,54.22 3.49,0.34 8.11,0.8 10.86,-0.48 3.37,-3.52 -1.67,-104.54 2.02,-109.29 8.39,6.02 25.53,35.09 32.3,35.34 4.78,0.18 7.35,-3.68 9.74,-6.98 3.63,-5.01 21.33,-27.42 24.14,-27.7 3.63,5.85 -2.76,100.7 2.31,109.01l10.49 0.25c2.58,-18.04 -0.81,-51.81 1.14,-64.64 2.64,-1.45 4.3,-1.82 6.76,0.04 1.5,12.87 -2,60.95 1.72,63.82 2.58,1.5 8.18,1.18 11.06,0.16 1.4,-4.75 0.58,-90.33 0.57,-102.67 -0.03,-25.73 -1.46,-18.55 13.9,-37.09 4.69,-5.65 18.51,-25.46 23.63,-28.33 4.08,1.09 3.96,2.78 8.28,-1.46 8.02,-7.86 37.89,-48.52 41.81,-50.28 0.82,5.69 -11.55,78.04 -12.83,86.29 -0.26,4.17 1.44,9.92 4.7,12.18 3.46,2.4 11.28,1.04 15.66,1.69 5.06,15 -4.57,107.97 3.47,116.09 3.69,0.64 14.75,0.9 18.14,-0.17 7.57,-5.79 -0.98,-111.7 4.02,-115.65 2.77,-0.86 9.67,-0.94 12.27,0.12 4.89,4.43 -3.83,106.68 3.95,115.67 3.88,0.81 15.88,0.86 19.63,-0.24 5.72,-19.52 -0.89,-104.05 2.52,-115.57 3.77,-1.14 6.29,-0.45 8.89,-3.93 2.39,-3.2 2.88,-6.85 2.68,-10.93 -0.61,-12.26 -7.72,-69.27 -5.9,-72.71 4.18,1.95 22.64,46.87 29.07,50.34 5.06,2.73 18.46,-7.37 18.51,-7.47 1.96,-7.09 -11.26,-27.68 -15.14,-35.09 -6.14,-11.72 -30.7,-60.58 -35.41,-67.72 -4.54,-6.88 -7.15,-10.82 -15.26,-10.71 -59.28,0.8 -39.74,-4.53 -59.55,18.36 -10.45,12.08 -61.14,73.8 -61.38,79.83 -0.2,5.07 -0.62,4.07 -4.09,8.17l-18.92 24.05c-15.85,17.8 -6.73,14.38 -26.19,14.41 -13.21,0.02 -16.81,8.04 -24.38,17.8 -2.89,3.74 -16.64,21.78 -19.23,23.09 -7.88,-5.16 -28,-37.16 -34.46,-39.48 -4.51,-1.63 -13.24,-0.93 -18.29,-0.96 -7.74,-0.06 -6.72,-0.73 -11.33,-6.29 -7.12,-8.61 -19.46,-23.29 -27.23,-35.14 -2.49,-3.8 -2.61,-6.94 -5.3,-10.79 -8.62,-12.32 -40.88,-51.03 -45.86,-57.78 -3.54,-4.8 -20.63,-26.15 -25.7,-30.04 -6.02,-4.62 -4.85,-5.15 -13.17,-5.16 -12.25,-0.02 -24.71,0.25 -36.93,-0.04 -7.69,-0.18 -8.25,0.1 -12.1,6.33l-40.4 50.66c-4.99,5.6 -11.82,14.31 -16.49,20.38 -4.48,5.83 -14.31,15.2 -13.69,22.31l14.89 11.46c7.67,-3.13 9.58,-8.64 14.82,-14.75 4.3,-5.01 8.81,-10.55 13.24,-16.13 3.05,-3.85 23.86,-30.76 25.95,-31.4 1.82,4.61 0.82,167.52 0.8,199.11 0,5.01 -1.27,23.57 3.19,25.89 2.89,1.11 14.6,0.82 17.95,0.27 5.37,-5.22 3.31,-19.37 3.32,-26.91 0,-14.89 -1.05,-84.37 0.89,-89.21 3.4,-0.45 10.64,-1.21 13.02,0.66 1.67,1.59 0.72,75.48 0.73,87.81 0,6.51 -1.83,23.46 2.39,27.38 2.92,1.03 14.77,0.88 17.97,0.23 5.89,-5.69 3.34,-18.11 3.35,-26.11l-0 -88.05c0,-11.18 -1.16,-113.37 0.89,-115.62 0.54,-0.51 2.54,2.06 3.6,3.36l11.04 13.81c4.41,5.69 10.03,13.38 14.66,18.46 4.65,5.1 10.9,12.94 15.17,18.69 8.08,10.87 10.52,14.97 18.4,11.56 3.22,3.16 34.42,42.5 35.11,46.86z"/>
    <path class="fil4" d="M744.84 1101.11c-14.8,0.01 -29.6,-0.07 -44.4,0.01 -12.69,0.07 -26.38,-0.44 -30.68,14.3 -1.85,6.36 -2.44,36.66 -0.48,42.67 4.86,14.91 15.16,15.95 28.9,15.96 5.37,0 73.66,0.52 77.38,-0.3 3.48,-0.78 3.73,-2.11 8.05,-1.71 0,0 8.71,18.39 22.59,7.45 6.24,-4.92 68.67,-173.07 74.95,-177.99 3.19,2.32 28.44,97.09 31.82,109.33l15.35 55.43c3.17,9.11 2.41,19.68 13.5,22.31 11.17,2.65 17.69,-8.13 14.83,-17.97 -10.64,-36.62 -19.75,-74.2 -30.85,-110.6 -6.21,-20.37 -16.82,-65.96 -23.09,-83.22 -3.25,-8.94 -5.4,-19.83 -3.39,-29.23 4.12,2.3 5.79,11.5 7.3,16.14l30.87 100.03c4.75,16.17 38.07,128.3 41.81,132.95 3.98,4.96 12,5.04 17.12,2.19 10.7,-5.96 2.11,-24.71 -0.76,-33.37 -1.76,-5.29 -3.22,-11.48 -4.93,-16.94l-25.61 -83.64c-2.48,-5.72 -7.82,-25.51 -10.31,-33.2l-18.09 -58.68c-1.33,-3.3 -1.07,-4.67 -2.46,-8.11 -2.46,-6.09 -5.99,-20.89 -7.96,-25.13 -0.9,-1.92 -3.04,-5.19 -3.42,-6.62 2.38,-3.03 26.83,-18.28 31.95,-21.22l32.72 -21.5c9.39,13.9 18.69,27.97 28.13,41.8 5.81,8.51 8.87,12.78 18.97,16.57 6.58,2.47 25.14,6.27 25.29,-4.97 0.1,-6.94 -3.85,-22.99 -4.81,-31.17 -2.7,-23.08 -11.48,-62.37 -22.62,-81.41 -12.88,-22.01 -39.44,-45.29 -65.52,-33.05 -5.11,2.4 -17.3,10.08 -20.01,14.84 -10.77,18.88 23.65,38.95 13.63,45.49 -3.69,2.4 -7.02,3.26 -11.33,6.31l-31.78 20.14c-28.51,17.92 -56.82,36.2 -85.38,54.01 -28.44,17.74 -56.42,36.6 -84.98,54.08 -6.06,3.71 -16.65,9.36 -20.14,15.37 -4.79,8.26 -3.33,19.46 3.44,26.2 15.22,15.16 33.66,-1.7 47.12,-10.24 14.07,-8.94 28.57,-18.7 42.84,-27.14 10.84,-6.41 32.43,-22.56 42.98,-25.58 -0.46,4.36 -6.1,16.72 -8.04,21.42 -6.43,15.6 -57.61,143.07 -60.48,147.18 -5.15,-9.87 5.28,-22.42 -9.43,-34.9 -7.83,-6.65 -30.11,-4.29 -40.56,-4.28z"/>
    <path class="fil2" d="M1270.91 540.13c-17.2,12.07 -26.49,34.83 -27.91,55.28 -0.79,11.34 0.96,22.85 5.74,34.58 9.35,22.98 36.26,39.88 57.65,51.47 15.28,8.28 26.56,14.27 41.86,23.61 14.76,9 31.79,26.34 39.61,6.19 6.76,-17.43 7.01,-39.66 5.79,-58.35 -0.93,-14.27 -1.71,-26.1 -3.26,-40.4 -3.97,-36.76 -17.53,-64.38 -50.87,-80.07 -20.8,-9.8 -50.05,-5.34 -68.61,7.7z"/>
    <path class="fil2" d="M1432.54 568.45c-2.8,4.97 -4.64,10.48 -6.42,17.01 -2.49,9.18 -4.72,28.66 -4.41,38.43 0.17,5.06 1,17.78 2.3,22.72 3.96,15.12 10.67,12.26 17.03,7.83 10.7,-7.45 27.41,-15.25 41.21,-23.59 17.31,-10.47 28.19,-27.28 27.44,-44.58 -0.72,-16.45 -12,-31.82 -27.64,-37.15 -19.51,-6.64 -39.56,1.69 -49.51,19.33z"/>
    <path class="fil2" d="M1470.32 1273.85c-4.09,1.62 -13.92,1.68 -20.27,11.34 -2.78,4.22 -4.35,4.79 -5.33,10.47 -0.9,5.21 -2.6,8.15 -0.96,13.77 2,6.88 4.69,16.14 10.97,20.64 5.12,3.67 18.19,8.13 23.98,6.4 6.79,-2.02 16.08,-5.65 20.28,-11.38 6.96,-9.5 7.02,-12.82 6.74,-24.94 -0.19,-7.99 -7.08,-17.81 -11.07,-20.54 -5.34,-3.66 -18.2,-8.2 -24.34,-5.76z"/>
    <path class="fil2" d="M1074.43 1275.13c-8.81,1.27 -4.02,-0.22 -11.38,3.86 -5.06,2.8 -4.72,3.13 -7.91,7.89l-5.43 10.38c-2.23,11.63 2.57,25.82 12.81,33.7 4.29,3.3 17.34,6.87 25.26,4.36 6.28,-1.99 15.39,-5.52 18.79,-12.07 5.12,-9.85 9.1,-19.07 3.54,-30.1 -1.36,-2.69 -0.75,-2.32 -2.49,-5.03 -2.89,-4.49 -7.27,-8.88 -11.7,-11.63 -3.62,-2.25 -3.23,-0.4 -6.72,-1.56 -2.91,-0.97 -1.14,-1.65 -5.65,-1.87 -2.36,-0.12 -5.92,-0.03 -8.28,0.07 -1.36,2.26 0.49,-0.13 -0.83,1.99z"/>
    <path class="fil2" d="M1239.28 1437.12l-1.51 -0.53c-7.15,-0.52 -12.44,-2.36 -19.34,1.52 -16.73,9.42 -15.46,34.32 2.89,41.86 20.35,8.36 39.39,-15.06 29.1,-32.1 -3.96,-6.54 -5.12,-6.87 -11.14,-10.75z"/>
    <path class="fil2" d="M1327.33 1436.17c-5.52,1.35 -3.89,-0.27 -8.54,2.91 -7.82,5.35 -12.64,12.81 -10.39,22.88 3.38,15.09 11.92,19.95 27.26,19.04 11.78,-0.7 20.5,-15.01 18.2,-26.62 -2.47,-12.43 -13.69,-21.36 -26.53,-18.22z"/>
    <polygon class="fil4" points="1347.5,1434.59 1349.78,1434.87 1349.08,1432.68 "/>
    <path class="fil4" d="M1330.34 1618.53c1.21,0.74 -0.29,1.6 2.13,-0.26 -2.4,-1.15 -1.31,-0.26 -2.13,0.26z"/>
    <path class="fil5" d="M1036.09 1364.91c0,1.75 0.93,0.11 0.47,0 -0.01,-0 -0.47,-1.94 -0.47,0z"/>
    <polygon class="fil5" points="689.91,690.61 689.71,689.92 689.15,690.36 "/>
    <path class="fil5" d="M1271.64 840.37l0.23 -0.23c-0.01,0.01 -0.3,0.15 -0.23,0.23z"/>
   </g>
  </g>
 </g>
</svg>
