<?xml version="1.0" encoding="UTF-8"?>
<!DOCTYPE svg PUBLIC "-//W3C//DTD SVG 1.1//EN" "http://www.w3.org/Graphics/SVG/1.1/DTD/svg11.dtd">
<!-- Creator: CorelDRAW 2020 (64-Bit) -->
<svg xmlns="http://www.w3.org/2000/svg" xml:space="preserve" width="32.9949mm" height="2.7053mm" version="1.1" style="shape-rendering:geometricPrecision; text-rendering:geometricPrecision; image-rendering:optimizeQuality; fill-rule:evenodd; clip-rule:evenodd"
viewBox="0 0 1535.7 125.91"
 xmlns:xlink="http://www.w3.org/1999/xlink"
 xmlns:xodm="http://www.corel.com/coreldraw/odm/2003">
 <defs>
  <style type="text/css">
   <![CDATA[
    .fil0 {fill:white;fill-rule:nonzero}
   ]]>
  </style>
 </defs>
 <g id="Capa_x0020_1">
  <metadata id="CorelCorpID_0Corel-Layer"/>
  <g id="_2850924552800">
   <path class="fil0" d="M108.13 97.34c0,0.47 -0.12,0.9 -0.39,1.29 -0.27,0.37 -0.76,0.69 -1.44,0.93 -0.68,0.22 -1.62,0.42 -2.77,0.56 -1.15,0.15 -2.62,0.22 -4.38,0.22 -1.74,0 -3.18,-0.07 -4.34,-0.22 -1.15,-0.14 -2.06,-0.34 -2.74,-0.56 -0.66,-0.24 -1.15,-0.56 -1.42,-0.93 -0.29,-0.39 -0.44,-0.83 -0.44,-1.29l0 -75.6 -0.14 0 -26.81 75.52c-0.2,0.61 -0.49,1.13 -0.93,1.54 -0.44,0.42 -1.01,0.74 -1.76,0.98 -0.74,0.22 -1.69,0.39 -2.82,0.47 -1.15,0.07 -2.55,0.1 -4.16,0.1 -1.64,0 -3.02,-0.05 -4.17,-0.17 -1.15,-0.12 -2.1,-0.32 -2.84,-0.59 -0.74,-0.27 -1.32,-0.59 -1.76,-0.96 -0.41,-0.39 -0.71,-0.86 -0.86,-1.37l-25.88 -75.52 -0.15 0 0 75.6c0,0.47 -0.12,0.9 -0.39,1.29 -0.27,0.37 -0.76,0.69 -1.47,0.93 -0.73,0.22 -1.66,0.42 -2.79,0.56 -1.13,0.15 -2.57,0.22 -4.34,0.22 -1.74,0 -3.18,-0.07 -4.33,-0.22 -1.15,-0.14 -2.08,-0.34 -2.76,-0.56 -0.69,-0.24 -1.18,-0.56 -1.45,-0.93 -0.27,-0.39 -0.39,-0.83 -0.39,-1.29l0 -82.75c0,-2.45 0.64,-4.31 1.94,-5.61 1.3,-1.3 3.01,-1.93 5.19,-1.93l12.34 0c2.2,0 4.11,0.17 5.68,0.54 1.59,0.37 2.96,0.96 4.11,1.79 1.13,0.83 2.11,1.94 2.87,3.31 0.76,1.37 1.44,3.06 2.01,5.07l20.01 55.32 0.29 0 20.72 -55.2c0.61,-2.01 1.29,-3.7 2.03,-5.09 0.76,-1.37 1.62,-2.5 2.6,-3.36 0.98,-0.86 2.15,-1.47 3.48,-1.84 1.35,-0.37 2.91,-0.54 4.68,-0.54l12.73 0c1.3,0 2.4,0.17 3.33,0.51 0.93,0.32 1.72,0.81 2.3,1.47 0.61,0.64 1.05,1.42 1.37,2.35 0.32,0.93 0.47,2.01 0.47,3.21l0 82.75zm79.93 0.14c0,0.47 -0.12,0.88 -0.37,1.25 -0.22,0.37 -0.63,0.67 -1.25,0.91 -0.59,0.22 -1.37,0.42 -2.37,0.54 -0.98,0.12 -2.21,0.17 -3.67,0.17 -1.59,0 -2.87,-0.05 -3.84,-0.17 -0.98,-0.12 -1.76,-0.32 -2.33,-0.54 -0.59,-0.24 -0.98,-0.54 -1.22,-0.91 -0.25,-0.36 -0.37,-0.78 -0.37,-1.25l0 -7.4c-3.53,3.8 -7.13,6.66 -10.8,8.57 -3.68,1.91 -7.47,2.86 -11.39,2.86 -4.41,0 -8.13,-0.71 -11.11,-2.15 -2.99,-1.42 -5.41,-3.4 -7.25,-5.87 -1.83,-2.5 -3.16,-5.37 -3.97,-8.65 -0.78,-3.28 -1.18,-7.37 -1.18,-12.24l0 -39.18c0,-0.47 0.13,-0.88 0.4,-1.25 0.27,-0.37 0.76,-0.66 1.44,-0.91 0.68,-0.22 1.64,-0.41 2.82,-0.54 1.18,-0.12 2.62,-0.17 4.36,-0.17 1.76,0 3.23,0.05 4.38,0.17 1.15,0.13 2.09,0.32 2.77,0.54 0.71,0.25 1.2,0.54 1.47,0.91 0.3,0.37 0.44,0.78 0.44,1.25l0 36.17c0,3.35 0.22,5.9 0.64,7.66 0.44,1.79 1.1,3.31 1.98,4.56 0.88,1.28 2.01,2.25 3.38,2.96 1.35,0.68 2.94,1.03 4.78,1.03 2.3,0 4.6,-0.83 6.93,-2.5 2.3,-1.67 4.8,-4.11 7.42,-7.3l0 -42.58c0,-0.47 0.12,-0.88 0.39,-1.25 0.27,-0.37 0.74,-0.66 1.45,-0.91 0.68,-0.22 1.62,-0.41 2.74,-0.54 1.15,-0.12 2.62,-0.17 4.38,-0.17 1.76,0 3.23,0.05 4.38,0.17 1.13,0.13 2.06,0.32 2.72,0.54 0.67,0.25 1.15,0.54 1.42,0.91 0.29,0.37 0.44,0.78 0.44,1.25l0 64.06zm56.08 -6.29c0,2.1 -0.12,3.72 -0.39,4.85 -0.27,1.13 -0.61,1.91 -1.05,2.35 -0.41,0.47 -1.05,0.88 -1.89,1.22 -0.86,0.37 -1.84,0.68 -2.96,0.93 -1.1,0.27 -2.32,0.47 -3.65,0.61 -1.32,0.15 -2.64,0.22 -3.99,0.22 -3.57,0 -6.68,-0.47 -9.33,-1.37 -2.62,-0.91 -4.8,-2.3 -6.53,-4.19 -1.72,-1.89 -2.99,-4.26 -3.8,-7.15 -0.81,-2.86 -1.22,-6.27 -1.22,-10.19l0 -32.79 -7.76 0c-0.9,0 -1.62,-0.56 -2.08,-1.69 -0.49,-1.13 -0.74,-3.01 -0.74,-5.66 0,-1.39 0.05,-2.57 0.17,-3.52 0.12,-0.95 0.32,-1.71 0.56,-2.28 0.22,-0.54 0.54,-0.93 0.91,-1.18 0.34,-0.25 0.78,-0.37 1.25,-0.37l7.69 0 0 -14.33c0,-0.47 0.12,-0.9 0.39,-1.3 0.27,-0.36 0.76,-0.68 1.45,-0.95 0.68,-0.27 1.64,-0.47 2.82,-0.59 1.17,-0.12 2.62,-0.17 4.36,-0.17 1.76,0 3.23,0.05 4.41,0.17 1.18,0.12 2.11,0.32 2.79,0.59 0.66,0.27 1.15,0.59 1.42,0.95 0.29,0.4 0.44,0.83 0.44,1.3l0 14.33 13.88 0c0.49,0 0.91,0.12 1.25,0.37 0.37,0.25 0.66,0.64 0.91,1.18 0.24,0.56 0.41,1.32 0.54,2.28 0.12,0.95 0.17,2.13 0.17,3.52 0,2.65 -0.24,4.53 -0.71,5.66 -0.49,1.13 -1.18,1.69 -2.08,1.69l-13.96 0 0 30.07c0,3.5 0.54,6.13 1.64,7.86 1.1,1.74 3.06,2.62 5.88,2.62 0.95,0 1.81,-0.07 2.57,-0.24 0.76,-0.17 1.45,-0.37 2.03,-0.59 0.61,-0.2 1.1,-0.39 1.52,-0.56 0.39,-0.17 0.79,-0.24 1.1,-0.24 0.29,0 0.56,0.07 0.83,0.24 0.25,0.17 0.47,0.49 0.61,1.01 0.13,0.49 0.27,1.18 0.4,2.03 0.12,0.88 0.17,1.96 0.17,3.3zm73.71 6.29c0,0.47 -0.12,0.88 -0.37,1.25 -0.22,0.37 -0.63,0.67 -1.25,0.91 -0.59,0.22 -1.37,0.42 -2.37,0.54 -0.98,0.12 -2.21,0.17 -3.67,0.17 -1.59,0 -2.87,-0.05 -3.84,-0.17 -0.98,-0.12 -1.76,-0.32 -2.33,-0.54 -0.59,-0.24 -0.98,-0.54 -1.22,-0.91 -0.25,-0.36 -0.37,-0.78 -0.37,-1.25l0 -7.4c-3.53,3.8 -7.13,6.66 -10.8,8.57 -3.68,1.91 -7.47,2.86 -11.39,2.86 -4.41,0 -8.13,-0.71 -11.11,-2.15 -2.99,-1.42 -5.41,-3.4 -7.25,-5.87 -1.83,-2.5 -3.16,-5.37 -3.97,-8.65 -0.78,-3.28 -1.18,-7.37 -1.18,-12.24l0 -39.18c0,-0.47 0.13,-0.88 0.4,-1.25 0.27,-0.37 0.76,-0.66 1.44,-0.91 0.68,-0.22 1.64,-0.41 2.82,-0.54 1.18,-0.12 2.62,-0.17 4.36,-0.17 1.76,0 3.23,0.05 4.38,0.17 1.15,0.13 2.09,0.32 2.77,0.54 0.71,0.25 1.2,0.54 1.47,0.91 0.3,0.37 0.44,0.78 0.44,1.25l0 36.17c0,3.35 0.22,5.9 0.64,7.66 0.44,1.79 1.1,3.31 1.98,4.56 0.88,1.28 2.01,2.25 3.38,2.96 1.35,0.68 2.94,1.03 4.78,1.03 2.3,0 4.6,-0.83 6.93,-2.5 2.3,-1.67 4.8,-4.11 7.42,-7.3l0 -42.58c0,-0.47 0.12,-0.88 0.39,-1.25 0.27,-0.37 0.74,-0.66 1.45,-0.91 0.68,-0.22 1.62,-0.41 2.74,-0.54 1.15,-0.12 2.62,-0.17 4.38,-0.17 1.76,0 3.23,0.05 4.38,0.17 1.13,0.13 2.06,0.32 2.72,0.54 0.67,0.25 1.15,0.54 1.42,0.91 0.29,0.37 0.44,0.78 0.44,1.25l0 64.06zm72.68 0.22c0,0.67 -0.25,1.18 -0.71,1.57 -0.49,0.39 -1.25,0.66 -2.28,0.83 -1.03,0.17 -2.55,0.25 -4.58,0.25 -2.15,0 -3.72,-0.07 -4.7,-0.25 -0.98,-0.17 -1.69,-0.44 -2.09,-0.83 -0.41,-0.39 -0.61,-0.9 -0.61,-1.57l0 -5.09c-2.64,2.82 -5.63,4.99 -9.01,6.56 -3.36,1.57 -7.1,2.35 -11.22,2.35 -3.38,0 -6.51,-0.44 -9.36,-1.32 -2.84,-0.88 -5.29,-2.2 -7.37,-3.94 -2.08,-1.76 -3.7,-3.92 -4.85,-6.49 -1.15,-2.6 -1.71,-5.61 -1.71,-9.03 0,-3.75 0.74,-6.98 2.18,-9.72 1.47,-2.77 3.65,-5.02 6.54,-6.83 2.89,-1.79 6.46,-3.11 10.77,-3.97 4.28,-0.86 9.28,-1.3 14.96,-1.3l6.25 0 0 -3.87c0,-2.01 -0.2,-3.77 -0.61,-5.29 -0.39,-1.49 -1.08,-2.76 -2.01,-3.77 -0.93,-1.01 -2.15,-1.74 -3.72,-2.23 -1.54,-0.47 -3.48,-0.71 -5.75,-0.71 -3.01,0 -5.71,0.34 -8.06,1 -2.37,0.66 -4.46,1.42 -6.27,2.23 -1.81,0.81 -3.33,1.57 -4.55,2.23 -1.23,0.66 -2.21,1.01 -2.96,1.01 -0.54,0 -1.01,-0.17 -1.4,-0.49 -0.41,-0.34 -0.76,-0.83 -1.01,-1.44 -0.27,-0.61 -0.47,-1.4 -0.61,-2.3 -0.15,-0.9 -0.22,-1.91 -0.22,-2.99 0,-1.49 0.13,-2.67 0.37,-3.52 0.22,-0.86 0.69,-1.62 1.35,-2.33 0.68,-0.68 1.83,-1.44 3.52,-2.28 1.67,-0.83 3.63,-1.62 5.88,-2.33 2.25,-0.74 4.7,-1.32 7.34,-1.76 2.67,-0.47 5.41,-0.68 8.23,-0.68 5.02,0 9.3,0.49 12.88,1.47 3.55,0.98 6.49,2.49 8.77,4.53 2.3,2.03 3.99,4.65 5.05,7.86 1.05,3.18 1.57,7 1.57,11.38l0 43.07zm-17.78 -27.47l-6.88 0c-2.92,0 -5.39,0.22 -7.45,0.64 -2.06,0.44 -3.72,1.08 -5.02,1.96 -1.3,0.86 -2.23,1.89 -2.82,3.11 -0.61,1.22 -0.91,2.62 -0.91,4.19 0,2.69 0.86,4.8 2.55,6.32 1.69,1.55 4.04,2.3 7.05,2.3 2.52,0 4.85,-0.64 6.98,-1.94 2.13,-1.3 4.28,-3.18 6.49,-5.68l0 -10.9zm53.87 27.26c0,0.47 -0.15,0.88 -0.44,1.25 -0.27,0.37 -0.76,0.67 -1.47,0.91 -0.69,0.22 -1.62,0.42 -2.75,0.54 -1.15,0.12 -2.62,0.17 -4.38,0.17 -1.76,0 -3.23,-0.05 -4.38,-0.17 -1.13,-0.12 -2.06,-0.32 -2.74,-0.54 -0.71,-0.24 -1.2,-0.54 -1.47,-0.91 -0.29,-0.36 -0.44,-0.78 -0.44,-1.25l0 -94.4c0,-0.49 0.15,-0.9 0.44,-1.29 0.27,-0.37 0.76,-0.71 1.47,-0.96 0.68,-0.27 1.62,-0.47 2.74,-0.61 1.15,-0.15 2.62,-0.22 4.38,-0.22 1.76,0 3.23,0.07 4.38,0.22 1.13,0.14 2.06,0.34 2.75,0.61 0.71,0.25 1.2,0.59 1.47,0.96 0.29,0.39 0.44,0.81 0.44,1.29l0 94.4zm109.85 -4.75c0,1.35 -0.07,2.48 -0.22,3.41 -0.15,0.93 -0.34,1.69 -0.61,2.23 -0.25,0.56 -0.56,0.95 -0.88,1.17 -0.34,0.25 -0.74,0.37 -1.15,0.37l-51.35 0c-0.37,0 -0.74,-0.12 -1.08,-0.37 -0.32,-0.22 -0.61,-0.61 -0.88,-1.17 -0.27,-0.54 -0.47,-1.3 -0.61,-2.23 -0.15,-0.93 -0.22,-2.06 -0.22,-3.41 0,-1.37 0.05,-2.52 0.17,-3.48 0.13,-0.93 0.32,-1.66 0.59,-2.25 0.27,-0.56 0.56,-0.98 0.91,-1.25 0.32,-0.27 0.71,-0.39 1.13,-0.39l17.34 0 0 -60.39 -14.91 8.23c-1.08,0.51 -1.98,0.86 -2.67,0.98 -0.71,0.1 -1.25,-0.02 -1.67,-0.44 -0.39,-0.41 -0.66,-1.1 -0.81,-2.1 -0.14,-1.01 -0.22,-2.42 -0.22,-4.24 0,-1.15 0.02,-2.11 0.07,-2.84 0.05,-0.73 0.17,-1.37 0.37,-1.89 0.17,-0.54 0.44,-0.95 0.78,-1.3 0.32,-0.34 0.78,-0.68 1.35,-1.08l19.93 -12.91c0.24,-0.2 0.54,-0.34 0.88,-0.47 0.37,-0.12 0.83,-0.22 1.42,-0.29 0.56,-0.07 1.32,-0.12 2.25,-0.14 0.93,-0.03 2.13,-0.03 3.63,-0.03 1.81,0 3.28,0.03 4.41,0.1 1.13,0.07 1.98,0.2 2.55,0.37 0.59,0.17 0.95,0.4 1.15,0.69 0.2,0.29 0.29,0.63 0.29,1.08l0 76.67 15.18 0c0.44,0 0.83,0.12 1.2,0.39 0.37,0.27 0.66,0.68 0.93,1.25 0.27,0.59 0.47,1.32 0.59,2.25 0.12,0.96 0.17,2.11 0.17,3.48zm75.35 -0.51c0,1.4 -0.05,2.6 -0.17,3.57 -0.12,0.98 -0.32,1.76 -0.54,2.4 -0.24,0.61 -0.56,1.05 -0.93,1.32 -0.39,0.27 -0.83,0.39 -1.3,0.39l-53.4 0c-1.05,0 -1.96,-0.1 -2.72,-0.29 -0.76,-0.2 -1.4,-0.56 -1.86,-1.1 -0.49,-0.56 -0.83,-1.35 -1.05,-2.4 -0.22,-1.06 -0.32,-2.42 -0.32,-4.09 0,-1.59 0.07,-2.94 0.22,-4.06 0.14,-1.13 0.39,-2.13 0.78,-3.02 0.39,-0.88 0.88,-1.74 1.47,-2.57 0.61,-0.86 1.37,-1.76 2.35,-2.77l16.09 -17.19c3.21,-3.36 5.8,-6.39 7.76,-9.16 1.96,-2.74 3.5,-5.26 4.6,-7.54 1.1,-2.28 1.84,-4.36 2.25,-6.27 0.42,-1.91 0.61,-3.75 0.61,-5.46 0,-1.57 -0.25,-3.06 -0.76,-4.48 -0.49,-1.4 -1.25,-2.62 -2.23,-3.67 -0.98,-1.05 -2.21,-1.86 -3.7,-2.47 -1.47,-0.59 -3.21,-0.88 -5.24,-0.88 -2.82,0 -5.32,0.37 -7.49,1.08 -2.18,0.71 -4.09,1.52 -5.73,2.4 -1.67,0.91 -3.04,1.72 -4.14,2.45 -1.1,0.76 -1.96,1.13 -2.57,1.13 -0.44,0 -0.81,-0.14 -1.13,-0.44 -0.32,-0.27 -0.56,-0.76 -0.76,-1.42 -0.17,-0.69 -0.34,-1.57 -0.47,-2.72 -0.12,-1.13 -0.17,-2.5 -0.17,-4.11 0,-1.1 0.02,-2.03 0.1,-2.79 0.07,-0.74 0.2,-1.37 0.34,-1.94 0.12,-0.54 0.32,-1.03 0.56,-1.44 0.25,-0.39 0.66,-0.88 1.25,-1.47 0.61,-0.56 1.71,-1.3 3.3,-2.18 1.62,-0.91 3.58,-1.76 5.93,-2.6 2.35,-0.83 4.92,-1.54 7.76,-2.13 2.82,-0.56 5.76,-0.86 8.82,-0.86 4.85,0 9.06,0.61 12.69,1.84 3.6,1.22 6.61,2.91 9.01,5.09 2.4,2.18 4.16,4.75 5.34,7.74 1.17,2.99 1.76,6.19 1.76,9.65 0,3.01 -0.3,5.97 -0.86,8.89 -0.59,2.94 -1.79,6.07 -3.6,9.45 -1.81,3.36 -4.38,7.1 -7.69,11.19 -3.3,4.09 -7.69,8.84 -13.15,14.25l-10.85 11.09 36.58 0c0.49,0 0.93,0.15 1.32,0.44 0.42,0.27 0.76,0.71 1.06,1.32 0.29,0.59 0.49,1.37 0.63,2.35 0.15,0.98 0.22,2.15 0.22,3.48zm108.84 5.26c0,0.52 -0.12,0.95 -0.37,1.32 -0.22,0.37 -0.63,0.66 -1.2,0.91 -0.59,0.22 -1.37,0.39 -2.35,0.49 -0.98,0.1 -2.18,0.15 -3.6,0.15 -1.54,0 -2.79,-0.05 -3.75,-0.15 -0.95,-0.1 -1.71,-0.27 -2.33,-0.49 -0.59,-0.25 -1.03,-0.56 -1.27,-0.91 -0.27,-0.37 -0.42,-0.81 -0.42,-1.35l0 -7.13c-3.28,3.55 -6.76,6.29 -10.36,8.25 -3.63,1.96 -7.61,2.94 -12.02,2.94 -4.87,0 -9.01,-0.95 -12.37,-2.84 -3.38,-1.89 -6.13,-4.43 -8.25,-7.64 -2.13,-3.18 -3.67,-6.93 -4.63,-11.21 -0.95,-4.29 -1.44,-8.79 -1.44,-13.52 0,-5.68 0.61,-10.8 1.84,-15.35 1.22,-4.53 2.98,-8.4 5.34,-11.61 2.35,-3.21 5.26,-5.66 8.76,-7.4 3.48,-1.71 7.49,-2.57 12.05,-2.57 3.58,0 6.83,0.74 9.75,2.18 2.94,1.47 5.83,3.6 8.69,6.42l0 -34.61c0,-0.49 0.12,-0.9 0.39,-1.29 0.27,-0.37 0.74,-0.71 1.45,-0.96 0.68,-0.27 1.62,-0.47 2.74,-0.61 1.15,-0.15 2.62,-0.22 4.38,-0.22 1.76,0 3.23,0.07 4.38,0.22 1.13,0.14 2.06,0.34 2.72,0.61 0.67,0.25 1.15,0.59 1.42,0.96 0.29,0.39 0.44,0.81 0.44,1.29l0 94.11zm-17.92 -42.78c-2.57,-3.26 -5.07,-5.73 -7.42,-7.47 -2.37,-1.71 -4.85,-2.57 -7.44,-2.57 -2.33,0 -4.36,0.59 -6.05,1.76 -1.71,1.17 -3.06,2.72 -4.09,4.67 -1.02,1.99 -1.81,4.17 -2.3,6.56 -0.52,2.42 -0.76,4.9 -0.76,7.42 0,2.69 0.22,5.29 0.64,7.81 0.44,2.55 1.15,4.8 2.13,6.78 0.98,1.98 2.28,3.57 3.92,4.78 1.62,1.2 3.67,1.79 6.17,1.79 1.22,0 2.45,-0.17 3.63,-0.54 1.17,-0.37 2.35,-0.93 3.57,-1.76 1.22,-0.81 2.47,-1.86 3.77,-3.18 1.3,-1.32 2.72,-2.91 4.24,-4.83l0 -21.23zm95.16 8.91c0,2.2 -0.49,3.82 -1.47,4.87 -0.98,1.05 -2.32,1.59 -4.06,1.59l-38.98 0c0,2.72 0.32,5.17 0.98,7.4 0.64,2.2 1.66,4.09 3.06,5.63 1.42,1.54 3.23,2.72 5.46,3.52 2.22,0.81 4.87,1.23 7.98,1.23 3.16,0 5.93,-0.22 8.33,-0.69 2.37,-0.47 4.45,-0.95 6.19,-1.52 1.74,-0.56 3.18,-1.05 4.33,-1.52 1.15,-0.47 2.08,-0.69 2.79,-0.69 0.44,0 0.81,0.07 1.08,0.25 0.29,0.17 0.54,0.47 0.74,0.91 0.17,0.41 0.32,1.03 0.39,1.81 0.07,0.78 0.1,1.79 0.1,2.96 0,1.05 -0.02,1.96 -0.07,2.69 -0.05,0.74 -0.12,1.37 -0.22,1.89 -0.1,0.54 -0.22,0.98 -0.41,1.32 -0.2,0.37 -0.44,0.71 -0.76,1.05 -0.32,0.32 -1.15,0.78 -2.55,1.37 -1.4,0.59 -3.16,1.15 -5.31,1.72 -2.15,0.56 -4.6,1.05 -7.37,1.47 -2.76,0.42 -5.73,0.64 -8.89,0.64 -5.71,0 -10.68,-0.71 -14.96,-2.15 -4.26,-1.42 -7.84,-3.6 -10.73,-6.51 -2.86,-2.91 -4.99,-6.61 -6.41,-11.04 -1.4,-4.46 -2.11,-9.67 -2.11,-15.65 0,-5.68 0.74,-10.8 2.23,-15.38 1.47,-4.55 3.63,-8.42 6.46,-11.61 2.82,-3.18 6.25,-5.61 10.29,-7.27 4.06,-1.69 8.62,-2.52 13.69,-2.52 5.36,0 9.94,0.78 13.74,2.37 3.82,1.57 6.93,3.77 9.38,6.56 2.42,2.79 4.24,6.12 5.39,9.94 1.15,3.82 1.71,7.98 1.71,12.49l0 2.87zm-17.48 -5.14c0.14,-5.07 -0.88,-9.06 -3.06,-11.95 -2.18,-2.91 -5.53,-4.36 -10.09,-4.36 -2.3,0 -4.31,0.44 -6,1.3 -1.71,0.86 -3.13,2.01 -4.26,3.48 -1.13,1.47 -1.98,3.18 -2.57,5.17 -0.61,2.01 -0.96,4.11 -1.06,6.37l27.04 0zm121.73 13.57c0,4.9 -0.91,9.16 -2.72,12.86 -1.84,3.67 -4.29,6.73 -7.4,9.21 -3.14,2.45 -6.76,4.31 -10.92,5.56 -4.16,1.25 -8.62,1.86 -13.37,1.86 -3.21,0 -6.17,-0.27 -8.94,-0.81 -2.74,-0.54 -5.17,-1.18 -7.27,-1.94 -2.11,-0.74 -3.87,-1.52 -5.29,-2.35 -1.42,-0.83 -2.42,-1.57 -3.06,-2.18 -0.61,-0.64 -1.05,-1.55 -1.32,-2.72 -0.27,-1.18 -0.39,-2.84 -0.39,-5.05 0,-1.49 0.05,-2.72 0.14,-3.72 0.1,-1.01 0.25,-1.81 0.47,-2.45 0.22,-0.61 0.52,-1.05 0.86,-1.32 0.37,-0.27 0.79,-0.39 1.28,-0.39 0.66,0 1.62,0.39 2.84,1.2 1.22,0.78 2.79,1.66 4.7,2.62 1.91,0.95 4.21,1.83 6.88,2.62 2.64,0.81 5.73,1.2 9.23,1.2 2.3,0 4.36,-0.27 6.17,-0.81 1.84,-0.56 3.38,-1.32 4.65,-2.33 1.27,-1.01 2.22,-2.23 2.91,-3.7 0.66,-1.47 1,-3.11 1,-4.92 0,-2.11 -0.56,-3.92 -1.71,-5.41 -1.15,-1.52 -2.64,-2.84 -4.51,-4.02 -1.84,-1.17 -3.94,-2.28 -6.29,-3.3 -2.33,-1.03 -4.75,-2.1 -7.25,-3.26 -2.5,-1.15 -4.92,-2.45 -7.25,-3.91 -2.35,-1.45 -4.45,-3.18 -6.29,-5.22 -1.86,-2.03 -3.36,-4.43 -4.51,-7.22 -1.15,-2.77 -1.71,-6.1 -1.71,-9.96 0,-4.44 0.83,-8.35 2.47,-11.73 1.64,-3.36 3.87,-6.15 6.66,-8.38 2.82,-2.23 6.1,-3.89 9.9,-4.99 3.79,-1.1 7.83,-1.64 12.1,-1.64 2.18,0 4.38,0.17 6.59,0.52 2.21,0.32 4.26,0.78 6.17,1.35 1.91,0.59 3.6,1.22 5.09,1.94 1.47,0.74 2.45,1.32 2.94,1.81 0.47,0.47 0.79,0.88 0.96,1.2 0.17,0.34 0.32,0.78 0.44,1.35 0.13,0.54 0.2,1.22 0.25,2.09 0.05,0.83 0.07,1.86 0.07,3.11 0,1.37 -0.02,2.55 -0.1,3.5 -0.07,0.95 -0.2,1.74 -0.37,2.37 -0.17,0.61 -0.42,1.08 -0.71,1.35 -0.32,0.29 -0.74,0.44 -1.27,0.44 -0.52,0 -1.35,-0.34 -2.5,-1.01 -1.15,-0.66 -2.57,-1.4 -4.24,-2.21 -1.69,-0.78 -3.63,-1.49 -5.83,-2.13 -2.21,-0.66 -4.6,-0.98 -7.25,-0.98 -2.06,0 -3.84,0.25 -5.39,0.76 -1.52,0.49 -2.79,1.2 -3.82,2.08 -1.03,0.88 -1.81,1.94 -2.3,3.18 -0.52,1.25 -0.76,2.57 -0.76,3.94 0,2.06 0.56,3.84 1.69,5.34 1.13,1.52 2.64,2.87 4.53,4.04 1.89,1.15 4.04,2.25 6.44,3.28 2.37,1.03 4.82,2.13 7.32,3.26 2.49,1.15 4.94,2.45 7.32,3.92 2.4,1.47 4.53,3.21 6.41,5.24 1.86,2.03 3.38,4.41 4.53,7.17 1.15,2.75 1.72,5.98 1.72,9.7zm72.38 -8.42c0,2.2 -0.49,3.82 -1.47,4.87 -0.98,1.05 -2.32,1.59 -4.06,1.59l-38.98 0c0,2.72 0.32,5.17 0.98,7.4 0.64,2.2 1.66,4.09 3.06,5.63 1.42,1.54 3.23,2.72 5.46,3.52 2.22,0.81 4.87,1.23 7.98,1.23 3.16,0 5.93,-0.22 8.33,-0.69 2.37,-0.47 4.45,-0.95 6.19,-1.52 1.74,-0.56 3.18,-1.05 4.33,-1.52 1.15,-0.47 2.08,-0.69 2.79,-0.69 0.44,0 0.81,0.07 1.08,0.25 0.29,0.17 0.54,0.47 0.74,0.91 0.17,0.41 0.32,1.03 0.39,1.81 0.07,0.78 0.1,1.79 0.1,2.96 0,1.05 -0.02,1.96 -0.07,2.69 -0.05,0.74 -0.12,1.37 -0.22,1.89 -0.1,0.54 -0.22,0.98 -0.41,1.32 -0.2,0.37 -0.44,0.71 -0.76,1.05 -0.32,0.32 -1.15,0.78 -2.55,1.37 -1.4,0.59 -3.16,1.15 -5.31,1.72 -2.15,0.56 -4.6,1.05 -7.37,1.47 -2.76,0.42 -5.73,0.64 -8.89,0.64 -5.71,0 -10.68,-0.71 -14.96,-2.15 -4.26,-1.42 -7.84,-3.6 -10.73,-6.51 -2.86,-2.91 -4.99,-6.61 -6.41,-11.04 -1.4,-4.46 -2.11,-9.67 -2.11,-15.65 0,-5.68 0.74,-10.8 2.23,-15.38 1.47,-4.55 3.63,-8.42 6.46,-11.61 2.82,-3.18 6.25,-5.61 10.29,-7.27 4.06,-1.69 8.62,-2.52 13.69,-2.52 5.36,0 9.94,0.78 13.74,2.37 3.82,1.57 6.93,3.77 9.38,6.56 2.42,2.79 4.24,6.12 5.39,9.94 1.15,3.82 1.71,7.98 1.71,12.49l0 2.87zm-17.48 -5.14c0.14,-5.07 -0.88,-9.06 -3.06,-11.95 -2.18,-2.91 -5.53,-4.36 -10.09,-4.36 -2.3,0 -4.31,0.44 -6,1.3 -1.71,0.86 -3.13,2.01 -4.26,3.48 -1.13,1.47 -1.98,3.18 -2.57,5.17 -0.61,2.01 -0.96,4.11 -1.06,6.37l27.04 0z"/>
   <path class="fil0" d="M1053.79 64.53c0,5.68 -0.61,10.82 -1.83,15.38 -1.2,4.55 -2.99,8.45 -5.34,11.65 -2.33,3.21 -5.24,5.66 -8.72,7.4 -3.5,1.71 -7.49,2.57 -11.98,2.57 -1.86,0 -3.57,-0.17 -5.12,-0.54 -1.57,-0.36 -3.06,-0.9 -4.53,-1.64 -1.44,-0.76 -2.89,-1.67 -4.33,-2.77 -1.42,-1.1 -2.91,-2.4 -4.43,-3.87l0 30.12c0,0.49 -0.15,0.91 -0.44,1.3 -0.27,0.37 -0.76,0.71 -1.47,0.95 -0.69,0.27 -1.62,0.47 -2.75,0.61 -1.15,0.15 -2.62,0.22 -4.38,0.22 -1.76,0 -3.23,-0.07 -4.38,-0.22 -1.13,-0.15 -2.06,-0.34 -2.74,-0.61 -0.71,-0.24 -1.2,-0.59 -1.47,-0.95 -0.29,-0.39 -0.44,-0.81 -0.44,-1.3l0 -89.4c0,-0.47 0.12,-0.88 0.37,-1.25 0.22,-0.37 0.64,-0.66 1.25,-0.91 0.59,-0.22 1.37,-0.41 2.38,-0.54 0.98,-0.12 2.2,-0.17 3.67,-0.17 1.44,0 2.64,0.05 3.63,0.17 0.98,0.13 1.79,0.32 2.37,0.54 0.59,0.25 1.01,0.54 1.25,0.91 0.25,0.37 0.37,0.78 0.37,1.27l0 7.54c1.86,-1.91 3.67,-3.6 5.49,-5.05 1.79,-1.47 3.6,-2.67 5.46,-3.65 1.89,-0.98 3.79,-1.71 5.78,-2.21 1.99,-0.47 4.09,-0.71 6.34,-0.71 4.68,0 8.67,0.93 11.98,2.76 3.28,1.84 5.98,4.36 8.06,7.57 2.08,3.18 3.6,6.93 4.55,11.19 0.96,4.24 1.42,8.79 1.42,13.62zm-18.8 1.25c0,-2.72 -0.2,-5.34 -0.61,-7.84 -0.39,-2.49 -1.1,-4.72 -2.08,-6.68 -0.98,-1.96 -2.25,-3.53 -3.84,-4.68 -1.62,-1.17 -3.6,-1.76 -5.98,-1.76 -1.2,0 -2.37,0.17 -3.55,0.54 -1.18,0.37 -2.35,0.93 -3.58,1.76 -1.22,0.81 -2.47,1.86 -3.74,3.13 -1.3,1.3 -2.67,2.89 -4.09,4.8l0 21.08c2.52,3.18 4.95,5.63 7.22,7.37 2.3,1.74 4.68,2.6 7.15,2.6 2.35,0 4.33,-0.59 5.98,-1.79 1.64,-1.2 3.01,-2.77 4.04,-4.68 1.05,-1.94 1.84,-4.11 2.33,-6.56 0.51,-2.42 0.76,-4.87 0.76,-7.3zm95.23 -34.77c1.98,0 3.4,0.44 4.19,1.3 0.78,0.86 1.17,2.1 1.17,3.72l0 61.46c0,0.47 -0.14,0.88 -0.44,1.25 -0.27,0.37 -0.76,0.67 -1.42,0.91 -0.68,0.22 -1.62,0.42 -2.79,0.54 -1.17,0.12 -2.62,0.17 -4.33,0.17 -1.79,0 -3.25,-0.05 -4.43,-0.17 -1.18,-0.12 -2.1,-0.32 -2.79,-0.54 -0.66,-0.24 -1.15,-0.54 -1.42,-0.91 -0.29,-0.36 -0.44,-0.78 -0.44,-1.25l0 -51.79 -28.65 0 0 30.07c0,3.5 0.54,6.13 1.64,7.86 1.1,1.74 3.06,2.62 5.88,2.62 0.95,0 1.81,-0.07 2.57,-0.24 0.76,-0.17 1.45,-0.37 2.03,-0.59 0.61,-0.2 1.1,-0.39 1.52,-0.56 0.39,-0.17 0.79,-0.24 1.1,-0.24 0.29,0 0.56,0.07 0.83,0.24 0.25,0.17 0.47,0.49 0.61,1.01 0.13,0.49 0.27,1.18 0.4,2.03 0.12,0.88 0.17,1.96 0.17,3.3 0,2.1 -0.12,3.7 -0.36,4.78 -0.22,1.08 -0.56,1.86 -1.01,2.35 -0.42,0.52 -1.08,0.95 -1.94,1.3 -0.86,0.37 -1.86,0.68 -2.99,0.93 -1.1,0.27 -2.32,0.47 -3.65,0.61 -1.32,0.15 -2.64,0.22 -3.99,0.22 -3.57,0 -6.68,-0.47 -9.33,-1.37 -2.62,-0.91 -4.8,-2.3 -6.53,-4.19 -1.72,-1.89 -2.99,-4.26 -3.8,-7.15 -0.81,-2.86 -1.22,-6.27 -1.22,-10.19l0 -32.79 -7.76 0c-0.9,0 -1.62,-0.56 -2.08,-1.69 -0.49,-1.13 -0.74,-3.01 -0.74,-5.66 0,-1.39 0.05,-2.57 0.17,-3.52 0.12,-0.95 0.32,-1.71 0.56,-2.28 0.22,-0.54 0.54,-0.93 0.91,-1.18 0.34,-0.25 0.78,-0.37 1.25,-0.37l7.69 0 0 -14.33c0,-0.47 0.12,-0.9 0.39,-1.3 0.27,-0.36 0.76,-0.68 1.45,-0.95 0.68,-0.27 1.64,-0.47 2.82,-0.59 1.17,-0.12 2.62,-0.17 4.36,-0.17 1.76,0 3.23,0.05 4.41,0.17 1.18,0.12 2.11,0.32 2.79,0.59 0.66,0.27 1.15,0.59 1.42,0.95 0.29,0.4 0.44,0.83 0.44,1.3l0 14.33 41.36 0zm6.68 -19.17c0,3.64 -0.74,6.14 -2.23,7.54 -1.49,1.4 -4.24,2.08 -8.28,2.08 -4.06,0 -6.83,-0.66 -8.23,-2.01 -1.42,-1.35 -2.13,-3.77 -2.13,-7.25 0,-3.65 0.74,-6.17 2.2,-7.59 1.45,-1.4 4.21,-2.11 8.3,-2.11 4.02,0 6.76,0.68 8.2,2.06 1.45,1.35 2.15,3.77 2.15,7.27zm75.88 51.79c0,2.2 -0.49,3.82 -1.47,4.87 -0.98,1.05 -2.32,1.59 -4.06,1.59l-38.98 0c0,2.72 0.32,5.17 0.98,7.4 0.64,2.2 1.66,4.09 3.06,5.63 1.42,1.54 3.23,2.72 5.46,3.52 2.22,0.81 4.87,1.23 7.98,1.23 3.16,0 5.93,-0.22 8.33,-0.69 2.37,-0.47 4.45,-0.95 6.19,-1.52 1.74,-0.56 3.18,-1.05 4.33,-1.52 1.15,-0.47 2.08,-0.69 2.79,-0.69 0.44,0 0.81,0.07 1.08,0.25 0.29,0.17 0.54,0.47 0.74,0.91 0.17,0.41 0.32,1.03 0.39,1.81 0.07,0.78 0.1,1.79 0.1,2.96 0,1.05 -0.02,1.96 -0.07,2.69 -0.05,0.74 -0.12,1.37 -0.22,1.89 -0.1,0.54 -0.22,0.98 -0.41,1.32 -0.2,0.37 -0.44,0.71 -0.76,1.05 -0.32,0.32 -1.15,0.78 -2.55,1.37 -1.4,0.59 -3.16,1.15 -5.31,1.72 -2.15,0.56 -4.6,1.05 -7.37,1.47 -2.76,0.42 -5.73,0.64 -8.89,0.64 -5.71,0 -10.68,-0.71 -14.96,-2.15 -4.26,-1.42 -7.84,-3.6 -10.73,-6.51 -2.86,-2.91 -4.99,-6.61 -6.41,-11.04 -1.4,-4.46 -2.11,-9.67 -2.11,-15.65 0,-5.68 0.74,-10.8 2.23,-15.38 1.47,-4.55 3.63,-8.42 6.46,-11.61 2.82,-3.18 6.25,-5.61 10.29,-7.27 4.06,-1.69 8.62,-2.52 13.69,-2.52 5.36,0 9.94,0.78 13.74,2.37 3.82,1.57 6.93,3.77 9.38,6.56 2.42,2.79 4.24,6.12 5.39,9.94 1.15,3.82 1.71,7.98 1.71,12.49l0 2.87zm-17.48 -5.14c0.14,-5.07 -0.88,-9.06 -3.06,-11.95 -2.18,-2.91 -5.53,-4.36 -10.09,-4.36 -2.3,0 -4.31,0.44 -6,1.3 -1.71,0.86 -3.13,2.01 -4.26,3.48 -1.13,1.47 -1.98,3.18 -2.57,5.17 -0.61,2.01 -0.96,4.11 -1.06,6.37l27.04 0zm134.21 39.01c0,0.47 -0.14,0.88 -0.44,1.25 -0.27,0.37 -0.76,0.67 -1.42,0.91 -0.68,0.22 -1.59,0.42 -2.74,0.54 -1.15,0.12 -2.62,0.17 -4.38,0.17 -1.83,0 -3.33,-0.05 -4.48,-0.17 -1.15,-0.12 -2.08,-0.32 -2.76,-0.54 -0.68,-0.24 -1.18,-0.54 -1.44,-0.91 -0.27,-0.36 -0.4,-0.78 -0.4,-1.25l0 -37.96c0,-2.15 -0.2,-4.11 -0.61,-5.87 -0.39,-1.79 -1.03,-3.31 -1.86,-4.56 -0.83,-1.28 -1.89,-2.25 -3.13,-2.96 -1.28,-0.68 -2.77,-1.02 -4.53,-1.02 -2.15,0 -4.33,0.83 -6.51,2.52 -2.21,1.67 -4.58,4.11 -7.15,7.3l0 42.56c0,0.47 -0.14,0.88 -0.44,1.25 -0.27,0.37 -0.76,0.67 -1.47,0.91 -0.68,0.22 -1.62,0.42 -2.76,0.54 -1.15,0.12 -2.6,0.17 -4.31,0.17 -1.79,0 -3.26,-0.05 -4.41,-0.17 -1.15,-0.12 -2.09,-0.32 -2.77,-0.54 -0.71,-0.24 -1.2,-0.54 -1.47,-0.91 -0.29,-0.36 -0.44,-0.78 -0.44,-1.25l0 -37.96c0,-2.15 -0.2,-4.11 -0.61,-5.87 -0.39,-1.79 -1,-3.31 -1.83,-4.56 -0.81,-1.28 -1.86,-2.25 -3.14,-2.96 -1.3,-0.68 -2.82,-1.02 -4.53,-1.02 -2.21,0 -4.38,0.83 -6.59,2.52 -2.21,1.67 -4.58,4.11 -7.1,7.3l0 42.56c0,0.47 -0.15,0.88 -0.44,1.25 -0.27,0.37 -0.76,0.67 -1.47,0.91 -0.69,0.22 -1.62,0.42 -2.75,0.54 -1.15,0.12 -2.62,0.17 -4.38,0.17 -1.76,0 -3.23,-0.05 -4.38,-0.17 -1.13,-0.12 -2.06,-0.32 -2.74,-0.54 -0.71,-0.24 -1.2,-0.54 -1.47,-0.91 -0.29,-0.36 -0.44,-0.78 -0.44,-1.25l0 -64.06c0,-0.47 0.12,-0.88 0.37,-1.25 0.22,-0.37 0.66,-0.66 1.28,-0.91 0.63,-0.22 1.42,-0.41 2.4,-0.54 0.98,-0.12 2.23,-0.17 3.7,-0.17 1.54,0 2.79,0.05 3.79,0.17 1.01,0.13 1.79,0.32 2.35,0.54 0.54,0.25 0.93,0.54 1.18,0.91 0.24,0.37 0.37,0.78 0.37,1.25l0 7.4c3.52,-3.82 7.05,-6.66 10.58,-8.57 3.52,-1.91 7.2,-2.86 11.02,-2.86 2.64,0 5.02,0.27 7.13,0.83 2.1,0.54 3.97,1.32 5.63,2.35 1.64,1.03 3.06,2.25 4.26,3.67 1.2,1.44 2.2,3.03 3.01,4.8 1.91,-2.06 3.79,-3.82 5.63,-5.29 1.83,-1.47 3.67,-2.69 5.46,-3.63 1.79,-0.93 3.57,-1.62 5.39,-2.06 1.79,-0.47 3.6,-0.68 5.49,-0.68 4.24,0 7.84,0.71 10.75,2.15 2.91,1.42 5.26,3.38 7.05,5.85 1.81,2.45 3.09,5.34 3.84,8.64 0.76,3.31 1.15,6.79 1.15,10.48l0 40.97zm82.06 -32.89c0,5.68 -0.61,10.8 -1.86,15.35 -1.25,4.53 -3.04,8.4 -5.37,11.61 -2.35,3.21 -5.24,5.66 -8.64,7.4 -3.43,1.71 -7.3,2.57 -11.63,2.57 -2.15,0 -4.16,-0.2 -6.02,-0.61 -1.86,-0.39 -3.65,-1.06 -5.34,-1.96 -1.71,-0.93 -3.38,-2.06 -5.02,-3.45 -1.64,-1.4 -3.33,-3.06 -5.04,-5.02l0 6.98c0,0.54 -0.15,0.98 -0.39,1.35 -0.27,0.34 -0.71,0.66 -1.3,0.91 -0.61,0.22 -1.4,0.39 -2.4,0.49 -1.01,0.1 -2.23,0.15 -3.67,0.15 -1.47,0 -2.69,-0.05 -3.67,-0.15 -1.01,-0.1 -1.79,-0.27 -2.38,-0.49 -0.61,-0.25 -1.03,-0.54 -1.25,-0.91 -0.25,-0.37 -0.37,-0.81 -0.37,-1.32l0 -94.4c0,-0.49 0.15,-0.9 0.44,-1.29 0.27,-0.37 0.76,-0.71 1.47,-0.96 0.68,-0.27 1.62,-0.47 2.74,-0.61 1.15,-0.15 2.62,-0.22 4.38,-0.22 1.76,0 3.23,0.07 4.38,0.22 1.13,0.14 2.06,0.34 2.75,0.61 0.71,0.25 1.2,0.59 1.47,0.96 0.29,0.39 0.44,0.83 0.44,1.29l0 35.41c1.62,-1.62 3.26,-3.01 4.87,-4.16 1.62,-1.15 3.26,-2.09 4.87,-2.84 1.62,-0.74 3.28,-1.27 5.02,-1.62 1.72,-0.32 3.53,-0.49 5.44,-0.49 4.73,0 8.75,0.95 12.05,2.84 3.28,1.89 5.98,4.43 8.06,7.64 2.08,3.18 3.6,6.93 4.55,11.21 0.96,4.29 1.42,8.79 1.42,13.52zm-18.66 1.25c0,-2.72 -0.2,-5.34 -0.61,-7.86 -0.39,-2.55 -1.1,-4.78 -2.1,-6.73 -1.01,-1.96 -2.33,-3.53 -3.92,-4.68 -1.59,-1.17 -3.63,-1.76 -6.07,-1.76 -1.18,0 -2.35,0.17 -3.5,0.49 -1.15,0.34 -2.33,0.93 -3.55,1.74 -1.22,0.81 -2.48,1.86 -3.77,3.14 -1.3,1.29 -2.65,2.89 -4.09,4.8l0 21.23c2.55,3.23 4.97,5.68 7.27,7.37 2.33,1.69 4.75,2.52 7.3,2.52 2.33,0 4.34,-0.59 5.95,-1.79 1.62,-1.2 2.99,-2.75 4.06,-4.65 1.05,-1.91 1.84,-4.09 2.33,-6.51 0.47,-2.42 0.71,-4.87 0.71,-7.3zm74.3 -26.45c0,1.71 -0.05,3.13 -0.15,4.24 -0.1,1.1 -0.24,1.96 -0.41,2.57 -0.2,0.61 -0.47,1.05 -0.76,1.3 -0.32,0.25 -0.71,0.34 -1.2,0.34 -0.37,0 -0.81,-0.07 -1.3,-0.25 -0.47,-0.17 -1.01,-0.34 -1.62,-0.54 -0.59,-0.2 -1.25,-0.37 -1.96,-0.54 -0.74,-0.17 -1.52,-0.25 -2.37,-0.25 -1.01,0 -2.01,0.2 -3.01,0.61 -1.01,0.41 -2.06,1.03 -3.14,1.91 -1.08,0.86 -2.2,2.01 -3.38,3.43 -1.17,1.44 -2.42,3.21 -3.77,5.31l0 39.94c0,0.47 -0.15,0.88 -0.44,1.25 -0.27,0.37 -0.76,0.67 -1.47,0.91 -0.69,0.22 -1.62,0.42 -2.75,0.54 -1.15,0.12 -2.62,0.17 -4.38,0.17 -1.76,0 -3.23,-0.05 -4.38,-0.17 -1.13,-0.12 -2.06,-0.32 -2.74,-0.54 -0.71,-0.24 -1.2,-0.54 -1.47,-0.91 -0.29,-0.36 -0.44,-0.78 -0.44,-1.25l0 -64.06c0,-0.47 0.12,-0.88 0.37,-1.25 0.22,-0.37 0.66,-0.66 1.28,-0.91 0.63,-0.22 1.42,-0.41 2.4,-0.54 0.98,-0.12 2.23,-0.17 3.7,-0.17 1.54,0 2.79,0.05 3.79,0.17 1.01,0.13 1.79,0.32 2.35,0.54 0.54,0.25 0.93,0.54 1.18,0.91 0.24,0.37 0.37,0.78 0.37,1.25l0 7.98c1.66,-2.4 3.25,-4.36 4.72,-5.9 1.49,-1.54 2.91,-2.79 4.24,-3.7 1.35,-0.91 2.69,-1.55 4.04,-1.89 1.32,-0.37 2.67,-0.54 4.02,-0.54 0.61,0 1.3,0.02 2.01,0.1 0.71,0.07 1.47,0.2 2.22,0.37 0.76,0.17 1.45,0.37 2.01,0.56 0.59,0.22 1.01,0.44 1.27,0.68 0.25,0.25 0.44,0.52 0.56,0.78 0.13,0.3 0.22,0.69 0.32,1.2 0.1,0.49 0.17,1.25 0.22,2.25 0.05,1.01 0.07,2.35 0.07,4.07zm68.49 24.22c0,2.2 -0.49,3.82 -1.47,4.87 -0.98,1.05 -2.32,1.59 -4.06,1.59l-38.98 0c0,2.72 0.32,5.17 0.98,7.4 0.64,2.2 1.66,4.09 3.06,5.63 1.42,1.54 3.23,2.72 5.46,3.52 2.22,0.81 4.87,1.23 7.98,1.23 3.16,0 5.93,-0.22 8.33,-0.69 2.37,-0.47 4.45,-0.95 6.19,-1.52 1.74,-0.56 3.18,-1.05 4.33,-1.52 1.15,-0.47 2.08,-0.69 2.79,-0.69 0.44,0 0.81,0.07 1.08,0.25 0.29,0.17 0.54,0.47 0.74,0.91 0.17,0.41 0.32,1.03 0.39,1.81 0.07,0.78 0.1,1.79 0.1,2.96 0,1.05 -0.02,1.96 -0.07,2.69 -0.05,0.74 -0.12,1.37 -0.22,1.89 -0.1,0.54 -0.22,0.98 -0.41,1.32 -0.2,0.37 -0.44,0.71 -0.76,1.05 -0.32,0.32 -1.15,0.78 -2.55,1.37 -1.4,0.59 -3.16,1.15 -5.31,1.72 -2.15,0.56 -4.6,1.05 -7.37,1.47 -2.76,0.42 -5.73,0.64 -8.89,0.64 -5.71,0 -10.68,-0.71 -14.96,-2.15 -4.26,-1.42 -7.84,-3.6 -10.73,-6.51 -2.86,-2.91 -4.99,-6.61 -6.41,-11.04 -1.4,-4.46 -2.11,-9.67 -2.11,-15.65 0,-5.68 0.74,-10.8 2.23,-15.38 1.47,-4.55 3.63,-8.42 6.46,-11.61 2.82,-3.18 6.25,-5.61 10.29,-7.27 4.06,-1.69 8.62,-2.52 13.69,-2.52 5.36,0 9.94,0.78 13.74,2.37 3.82,1.57 6.93,3.77 9.38,6.56 2.42,2.79 4.24,6.12 5.39,9.94 1.15,3.82 1.71,7.98 1.71,12.49l0 2.87zm-17.48 -5.14c0.14,-5.07 -0.88,-9.06 -3.06,-11.95 -2.18,-2.91 -5.53,-4.36 -10.09,-4.36 -2.3,0 -4.31,0.44 -6,1.3 -1.71,0.86 -3.13,2.01 -4.26,3.48 -1.13,1.47 -1.98,3.18 -2.57,5.17 -0.61,2.01 -0.96,4.11 -1.06,6.37l27.04 0z"/>
  </g>
 </g>
</svg>
