<?xml version="1.0" encoding="UTF-8"?>
<!DOCTYPE svg PUBLIC "-//W3C//DTD SVG 1.1//EN" "http://www.w3.org/Graphics/SVG/1.1/DTD/svg11.dtd">
<!-- Creator: CorelDRAW 2020 (64-Bit) -->
<svg xmlns="http://www.w3.org/2000/svg" xml:space="preserve" width="55.5916mm" height="55.5916mm" version="1.1" style="shape-rendering:geometricPrecision; text-rendering:geometricPrecision; image-rendering:optimizeQuality; fill-rule:evenodd; clip-rule:evenodd"
viewBox="0 0 45504.99 45504.99"
 xmlns:xlink="http://www.w3.org/1999/xlink"
 xmlns:xodm="http://www.corel.com/coreldraw/odm/2003">
 <defs>
  <style type="text/css">
   <![CDATA[
    .str0 {stroke:black;stroke-width:163.71;stroke-miterlimit:22.9256}
    .fil0 {fill:#001C41}
    .fil3 {fill:white}
    .fil1 {fill:#016AFF;fill-rule:nonzero}
    .fil2 {fill:white;fill-rule:nonzero}
   ]]>
  </style>
 </defs>
 <g id="Capa_x0020_1">
  <metadata id="CorelCorpID_0Corel-Layer"/>
  <path class="fil0 str0" d="M22752.5 242.21c12432.02,0 22510.28,10078.26 22510.28,22510.28 0,12432.11 -10078.26,22510.37 -22510.28,22510.37 -12432.11,0 -22510.37,-10078.26 -22510.37,-22510.37 0,-12432.02 10078.26,-22510.28 22510.37,-22510.28z"/>
  <path class="fil1" d="M22752.41 0c6282.68,0 11971.01,2546.78 16088.36,6664.13 4117.43,4117.35 6664.21,9805.6 6664.21,16088.28 0,6282.68 -2546.78,11971.01 -6664.13,16088.45 -4117.43,4117.35 -9805.68,6664.13 -16088.45,6664.13 -6282.68,0 -11970.93,-2546.78 -16088.28,-6664.21 -4117.35,-4117.35 -6664.13,-9805.68 -6664.13,-16088.36 0,-6282.68 2546.78,-11970.93 6664.13,-16088.28 4117.43,-4117.35 9805.68,-6664.13 16088.28,-6664.13zm15656.33 7096.17c-4006.6,-4006.6 -9542.19,-6485.03 -15656.33,-6485.03 -6114.06,0 -11649.56,2478.43 -15656.25,6485.03 -4006.6,4006.6 -6485.03,9542.1 -6485.03,15656.25 0,6114.14 2478.43,11649.73 6485.03,15656.33 4006.6,4006.68 9542.1,6485.11 15656.25,6485.11 6114.22,0 11649.73,-2478.43 15656.41,-6485.03 4006.6,-4006.68 6485.03,-9542.27 6485.03,-15656.41 0,-6114.14 -2478.43,-11649.65 -6485.11,-15656.25z"/>
  <path class="fil1" d="M22752.41 1524.32c5861.78,0 11168.99,2376.19 15010.49,6217.69 3841.58,3841.5 6217.77,9148.62 6217.77,15010.4 0,5861.78 -2376.19,11168.99 -6217.69,15010.57 -3841.58,3841.5 -9148.7,6217.69 -15010.57,6217.69 -5861.78,0 -11168.91,-2376.19 -15010.4,-6217.77 -3841.5,-3841.5 -6217.69,-9148.7 -6217.69,-15010.49 0,-5861.78 2376.19,-11168.91 6217.69,-15010.4 3841.58,-3841.5 9148.7,-6217.69 15010.4,-6217.69zm14607.43 6620.75c-3738.19,-3738.19 -8902.89,-6050.54 -14607.43,-6050.54 -5704.45,0 -10869.07,2312.35 -14607.34,6050.54 -3738.19,3738.19 -6050.54,8902.81 -6050.54,14607.34 0,5704.54 2312.35,10869.23 6050.54,14607.43 3738.19,3738.28 8902.81,6050.62 14607.34,6050.62 5704.62,0 10869.23,-2312.35 14607.51,-6050.54 3738.19,-3738.28 6050.54,-8902.97 6050.54,-14607.51 0,-5704.54 -2312.35,-10869.15 -6050.62,-14607.34z"/>
  <g id="_2886263389552">
   <path class="fil2" d="M33949.56 28371.82c-1043.25,2098.46 -2659.01,3864.99 -4641.06,5093.56 -1919.19,1189.45 -4180.95,1876.38 -6600.53,1876.38 -3464.63,0 -6601.76,-1404.73 -8872.36,-3675.33 -2270.6,-2270.6 -3675.33,-5407.97 -3675.33,-8872.6 0,-436.95 23.82,-875.94 69.33,-1314.44 46.08,-443 114.76,-876.19 203.9,-1298.15 73.92,-260.71 814.3,-108.05 736.46,156.34 -84.88,401.75 -149.63,808.74 -192.36,1218.18 -41.5,399.62 -63.19,812.75 -63.19,1238.07 0,3256.72 1320.5,6205.74 3454.32,8339.56 2133.82,2133.82 5082.51,3454.32 8339.23,3454.32 2278.87,0 4405.07,-644.53 6206.07,-1761.05 1862.38,-1154.41 3380.4,-2814.37 4361.36,-4787.59 141.37,-341.09 817.99,70.48 674.16,332.74z"/>
   <path class="fil2" d="M10245.16 19446.66l-2316.44 -919.9 309.91 -780.09 1069.86 178.61c5.48,1.23 70.23,17.11 195.96,48.21 125.24,30.86 250.72,61.39 377.36,91.6 -83.9,-48.79 -187.7,-109.61 -311.95,-181.97 -124.01,-72.61 -192.12,-113.21 -204.89,-122.13l-893.95 -599.02 306.8 -772.72 2316.44 919.9 -209.14 526.66 -1771.12 -759.3 1640.15 1088.77 -168.87 425.24 -1940.23 -333.07 1809.26 662.87 -209.14 526.33z"/>
   <path class="fil2" d="M9121.04 15707.49l302.87 -526.01 1353.41 779.43c204.56,117.87 338.88,177.38 403.3,178.94 63.52,1.47 114.84,-31.19 153.56,-98.64 39.45,-68.35 41.26,-130.07 5.81,-184.99 -35.36,-55.58 -153.56,-140.46 -354.44,-256.45l-1353.73 -779.51 296.15 -514.14 1378.45 793.84c156.02,89.71 268.98,163.96 337.98,222.24 68.68,58.36 123.36,119.67 161.5,184.75 66.55,108.38 94.05,226.25 81.86,352.31 -11.95,126.14 -64.75,269.88 -157.57,430.48 -85.21,148.08 -175.83,256.78 -272.01,325.46 -96.51,69.33 -207.01,103.79 -331.93,104.78 -89.14,1.47 -190.15,-20.22 -303.77,-63.85 -112.31,-43.63 -292.14,-136.78 -539.18,-278.72l-1162.27 -669.91zm3415.76 -712.23l-1581.78 -1237.5 -296.48 379.24 -381.28 -297.96 977.6 -1250.27 381.28 298.28 -311.05 397.82 1581.78 1237.42 -370.07 472.96zm-870.13 -2823.86l439.07 -419.51 1078.94 1129.37c163.38,170.67 275.36,265.62 336.76,285.19 60.49,19.48 118.77,2.46 175.25,-51 57.14,-55.01 76.04,-113.29 57.71,-176.15 -18.91,-63.19 -108.05,-178.04 -268.32,-345.92l-1079.02 -1129.37 429.01 -410.02 1098.75 1150.08c124.58,130.4 212.25,233.29 262.02,308.68 49.77,75.39 84.23,149.63 102.89,222.57 33.56,123.03 26.52,243.68 -20.79,361.23 -47.31,117.55 -138.34,240.57 -272.33,368.76 -123.93,118.2 -241.23,196.95 -352.64,235.74 -112.39,39.05 -228.38,41.17 -348.38,6.96 -85.78,-24.07 -176.73,-73.26 -273.23,-146.85 -95.61,-73.83 -241.8,-213.73 -438.42,-419.43l-927.26 -970.32zm3090.71 -588.3l281.75 -199.07 -766.33 -789.58 484.59 988.66zm-71.46 1185.19l-978.26 -2359.41 583.14 -411 1887.43 1718.65 -489.66 345.27 -336.51 -346.82 -385.3 271.68 213.48 433.26 -494.33 348.38zm2871.18 -1734.2l-1177.91 597.55 -1126.91 -2223.04 535.5 -271.68 899.43 1773.57 642.08 -325.46 227.8 449.06zm4144.61 -1015.18l-131.05 -1715.21 -510.13 39.13 -29.06 -379.81 28.16 -2.21c183.77,-14 328.16,-59.51 433.18,-135.8 104.12,-76.04 169.44,-182.95 196.04,-321.2l393.24 -29.96 191.13 2501.43 -571.52 43.63zm1194.36 -62.21l3.03 -40.35c7.37,-94.63 25.05,-187.45 54.02,-277.82 28.4,-90.37 69.33,-180.16 121.8,-270.53 106.9,-187.7 266.6,-370.64 478.45,-549.5 31.19,-25.7 53.45,-44.61 68.43,-55.91l15.88 -15.88c232.88,-203.33 356.24,-388.32 368.76,-553.84 5.81,-76.62 -4.83,-135.88 -33.23,-179.84 -28.08,-43.06 -71.13,-66.88 -129.17,-71.46 -82.1,-6.06 -144.15,22.59 -186.55,86.44 -42.16,63.52 -69,168.87 -80.63,315.06l-3.03 43.38 -530.59 -40.6 5.16 -65.98c20.14,-266.85 103.22,-465.92 248.51,-597.79 145.29,-131.87 344.7,-188.1 597.22,-168.54 228.38,17.44 401.75,92.25 521.18,224.69 119.35,132.85 170.67,307.45 153.81,524.53 -9.74,128.6 -46.99,248.27 -111.08,359.67 -64.18,111.41 -160.27,221.34 -288.21,330.7 -27.18,24.07 -68.1,57.95 -122.78,102.81 -226.5,183.19 -370.89,337.41 -433.51,463.47l847.86 64.75 -37.57 489.09 -1527.76 -116.56zm3917.7 -1428.88l-427.37 1514.91c10.97,5.57 21.94,9.82 32.66,12.85 10.97,3.03 27.18,7.61 49.44,14.08 61.96,17.35 116.32,23.49 162.07,18.58 45.84,-4.91 87.01,-21.94 122.78,-51.57 29.3,-22.26 59.51,-74.82 91.27,-155.44 31.76,-81.2 81.53,-242.7 150.21,-486.31l30.86 -109.03c56.15,-199.65 90.37,-335.2 103.22,-407.31 12.2,-72.36 11.87,-124.83 -1.23,-156.26 -13.18,-40.6 -38.47,-75.47 -77.27,-104.12 -38.47,-28.73 -91.6,-52.8 -158.15,-71.79 -21.04,-5.81 -36.34,-10.07 -47.97,-12.77 -10.97,-2.46 -21.36,-4.34 -30.53,-5.81zm-1132.07 1787.9l677.19 -2398.54 637.17 179.84c233.29,65.98 399.95,134.33 501.37,204.56 101.01,70.56 171.57,162.73 210.29,275.36 30.53,88.57 40.03,193.92 28.4,316.95 -11.54,123.03 -62.29,343.79 -152.66,664.01 -90.37,319.97 -162.73,534.6 -217.08,645.19 -53.7,109.85 -117.22,195.39 -189.91,255.8 -91.84,75.39 -200.22,117.22 -323.25,124.26 -123.11,7.37 -301.07,-21.69 -534.36,-87.59l-637.17 -179.84zm1872.21 604.18l1022.13 -2273.06 1273.19 572.83 -198.5 441.12 -728.44 -327.59 -187.45 417.06 671.95 302.54 -205.46 456.18 -671.95 -302.29 -222.89 495.88 728.44 327.59 -208.24 462.24 -1272.78 -572.5zm2813.39 523.3l432.69 338.64 -44.94 57.38c-84.56,108.38 -130.97,194.82 -139.24,259.24 -8.51,64.67 18.66,121.47 81.28,170.34 49.44,38.8 101.91,52.8 157.16,41.83 55.33,-10.97 105.1,-45.51 150.53,-103.22 74.49,-95.53 75.72,-242.13 4.01,-439.32 -11.05,-32.99 -19.56,-58.61 -25.7,-75.39l-11.3 -31.51c-92.74,-272.91 -137.93,-457.9 -134.9,-557.77 3.68,-73.26 20.14,-146.28 49.44,-219.54 28.73,-72.93 70.81,-145.29 125.81,-215.85 134.33,-171.57 290.67,-266.2 469.85,-283.63 178.61,-18.34 357.79,43.63 536.73,183.85 195.72,152.58 306.55,316.54 334.63,493.35 28.08,176.15 -28.98,355.42 -171.24,537.06 -5.81,7.61 -14.98,18.01 -26.28,30.53 -11.3,13.1 -19.56,22.92 -25.95,30.86l-424.67 -331.93 18.91 -24.39c66.55,-85.54 103.22,-160.93 110.18,-226.58 6.71,-65.65 -15.88,-118.77 -68.35,-159.95 -44.61,-34.54 -92.25,-46.74 -143.17,-37.24 -51.65,9.74 -97.16,39.95 -137.11,90.94 -64.75,83.08 -57.14,231.41 23.49,444.89 14.32,39.62 25.05,69.58 32.09,90.94 7.61,16.53 16.13,40.27 26.85,72.03 86.11,231.16 124.58,399.7 116.64,505.95 -6.47,67.12 -24.15,136.13 -53.78,205.46 -29.88,69.33 -70.81,137.35 -123.36,204.56 -153.56,196.62 -323.9,306.55 -512.58,330.94 -188.1,24.47 -379.48,-39.95 -574.3,-192.36 -204.89,-159.95 -319.32,-330.94 -342.89,-513.24 -22.84,-181.97 43.71,-373.02 200.3,-573.65 9.82,-12.52 21.12,-25.95 32.09,-39.37 11.3,-13.75 30.53,-35.12 57.05,-63.85zm939.13 1804.76l1796.49 -1727.49 967.54 1006.34 -348.95 335.2 -553.26 -575.53 -329.72 316.95 510.78 531.24 -360.9 346.82 -510.45 -531.24 -391.76 376.78 553.26 575.45 -365.49 351.73 -967.54 -1006.25zm2684.3 864.89c4.58,7.61 10.4,16.53 16.53,25.95 6.38,10.4 16.13,23.25 29.3,40.35 74.16,93.4 149.31,144.72 225.27,152.33 75.47,8.51 160.36,-24.72 255.31,-99.86 78.75,-62.29 116.89,-129.17 116.56,-200.87 -0.57,-71.79 -41.83,-159.7 -123.6,-263.17l-32.09 -40.6 -487.29 385.87zm-1488.39 407.89l1953.98 -1546.99 366.71 463.47c134.98,170.34 227.15,301.97 277.49,394.46 50.1,92.82 80.06,180.74 90.37,263.17 14.98,108.7 -6.06,216.75 -62.21,324.23 -55.91,107.15 -144.48,208.57 -264.39,303.52 -197.85,156.59 -390.86,222.57 -578.64,196.29 -187.45,-26.28 -364.18,-143.17 -528.79,-351.08l-131.3 -165.84 -748.57 592.31 -374.65 -473.54zm1283.83 1829.48l1738.46 -1005.44 -240.9 -416.73 418.94 -242.13 794.41 1373.62 -418.61 242.38 -253.1 -437.52 -1738.46 1005.76 -300.74 -519.95zm619.81 1176.68l2317.91 -916.54 220.44 558.67 -2317.34 916.54 -221.01 -558.67zm391.11 918.01l2398.54 -676.54 378.91 1343.34 -465.68 131.3 -216.75 -768.46 -440.22 124.26 199.97 708.95 -481.8 135.88 -199.65 -708.95 -523.3 147.42 217.08 768.54 -488.19 137.68 -378.91 -1343.42zm491.87 1680.75l2473.28 -306.8 103.22 832.88 -1023.69 357.79c-5.48,1.56 -69.9,18.66 -195.14,51.9 -124.26,32.99 -249.09,66.88 -374.57,101.09 97.08,2.46 217.41,5.81 360.9,9.74 143.49,4.01 222.81,6.71 238.45,8.27l1071.58 95.53 102.32 824.94 -2473.03 307.21 -69.9 -562.1 1917.97 -185.89 -1961.59 -166.09 -56.23 -454.05 1861.48 -640.85 -1905.11 288.87 -69.9 -562.43zm1734.44 3404.22l-2.7 38.14c-9.17,117.3 7.61,205.21 51.9,264.72 43.3,59.59 115.42,92.82 215.85,100.44 87.01,6.71 156.26,-15.88 207.26,-67.45 51,-51.9 80.3,-129.17 87.91,-231.73 1.23,-16.21 2.21,-28.65 2.46,-37.82 0,-9.17 -0.25,-16.21 -1.23,-22.02l-561.45 -44.28zm-1074.11 -81.53l-3.93 51.65c-9.5,124.58 11.87,221.01 63.85,288.79 51.9,67.2 134.33,105.35 247.53,113.86 105.1,7.94 184.42,-17.03 238.2,-75.06 53.7,-58.61 85.13,-155.12 95.2,-288.87l3.11 -41.5 -643.96 -48.87zm-394.14 -632.25l2485.23 188.68 -49.11 643.88c-14.65,194.49 -32.99,334.05 -54.35,417.38 -21.36,83.33 -52.22,155.12 -92.82,214.05 -60.16,88.16 -136.45,152.33 -228.71,192.61 -91.84,40.27 -197.52,55.91 -318.42,46.74 -107.15,-8.27 -201.2,-37.9 -282.4,-87.67 -80.3,-50.34 -157.25,-126.06 -229.28,-228.62 -65.08,109.85 -146.85,189.58 -247.94,240.25 -100.76,49.77 -218.31,70.23 -352.31,59.84 -111.16,-8.27 -214.3,-35.69 -310.48,-81.86 -96.18,-46.66 -176.15,-107.15 -240.57,-181.97 -62.95,-72.36 -104.45,-157.16 -125.49,-257.03 -20.46,-99.54 -22.59,-250.97 -7.37,-454.63l54.02 -711.65zm1130.92 2862.58c-2.13,9.74 -5.24,22.59 -10.4,37.9 -4.58,14.9 -7.94,26.52 -9.82,34.46 -27.75,120.57 -24.07,212.17 11.62,273.56 36.02,61.39 109.61,104.69 221.99,130.64 104.12,24.15 183.44,16.53 238.77,-24.07 54.93,-40.03 97.33,-120.9 125.49,-241.56 1.47,-8.19 3.6,-19.81 6.06,-35.36 2.46,-15.88 5.24,-29.06 7.37,-38.8l-591.08 -136.78zm-1282.93 -907.04l2427.85 562.68 -152.42 657.96c-50.01,215.2 -96.1,369.42 -137.93,461.59 -41.83,93.48 -93.48,164.28 -154.87,214.38 -73.51,57.38 -155.04,94.63 -246.96,110.75 -90.94,15.88 -193.83,10.4 -308.02,-16.13 -139.89,-32.41 -251.62,-84.56 -334.63,-156.92 -82.76,-71.46 -142.27,-167.97 -178.61,-287.64 -120,162.4 -326.69,214.95 -619.81,157.25l-7.61 -1.56c-31.19,-6.06 -75.39,-14.9 -134.08,-27.42 -273.81,-58.94 -456.43,-51.9 -545.9,20.46l158.47 -683.66c54.02,-3.93 109.28,-2.7 166.74,2.78 56.15,6.38 116.32,16.21 178.86,30.86 39.45,9.17 86.11,21.04 141.12,36.02 54.93,14.98 89.71,24.39 107.15,28.4 148.08,34.46 254.57,38.14 318.42,10.64 63.85,-27.18 107.8,-92.82 131.62,-196.29l28.08 -120.57 -971.79 -225.02 134.33 -578.56zm-457.41 1927.38l2316.11 919.32 -514.71 1297.58 -450.04 -178.61 294.6 -742.19 -425 -168.87 -272.01 684.81 -465.02 -184.42 272.09 -685.13 -505.3 -200.22 -294.35 742.19 -471.41 -187.2 515.04 -1297.25z"/>
   <path class="fil3" d="M19315.04 9051.3l284.78 328.16c35.36,40.76 30.94,103.3 -9.82,138.75l-328.16 284.78c-40.85,35.36 -103.38,30.94 -138.75,-9.82l-284.78 -328.16c-35.44,-40.85 -31.02,-103.38 9.82,-138.75l328.16 -284.78c40.76,-35.44 103.3,-30.94 138.75,9.82z"/>
   <g>
    <path class="fil3" d="M20645.28 19181.04l-493.51 324.23c-77.19,44.28 -445.95,274.3 -481.89,319.97 5.73,21.61 38.06,70.89 51.57,99.86 29.71,64.01 83.08,287.07 120.16,378.99 20.87,51.9 16.94,72.52 37,122.29l272.83 885.11c37.65,115.99 118.2,414.44 155.61,500.63l386.36 1261.48c25.78,82.35 47.8,175.58 74.33,255.47 43.3,130.48 172.8,413.37 11.54,503.25 -77.27,42.97 -198.17,41.66 -258.26,-33.07 -56.32,-70.07 -558.99,-1761.21 -630.54,-2005.14l-465.6 -1508.6c-22.76,-70.07 -47.97,-208.73 -110.01,-243.44 -30.2,141.69 2.29,306.06 51.24,440.79 94.54,260.38 254.49,947.89 348.21,1255.18 167.4,549.01 304.67,1115.86 465.27,1668.14 43.14,148.4 -55.17,310.89 -223.63,270.94 -167.31,-39.62 -155.85,-199.16 -203.66,-336.43l-231.57 -835.99c-50.91,-184.59 -431.63,-1614.03 -479.84,-1648.9 -94.71,74.24 -1036.38,2610.3 -1130.51,2684.46 -209.22,165.02 -340.6,-112.31 -340.6,-112.31 -65.16,-5.98 -68.92,14.16 -121.39,25.87 -56.07,12.44 -1085.98,4.58 -1167.02,4.58 -207.34,-0.08 -362.54,-15.72 -435.88,-240.66 -29.63,-90.7 -20.63,-547.62 7.29,-643.47 64.67,-222.4 271.27,-214.79 462.65,-215.77 223.14,-1.23 446.52,0 669.66,-0.16 157.57,-0.08 493.59,-35.69 611.71,64.58 221.83,188.19 64.5,377.44 142.27,526.33 43.22,-62.05 815.2,-1984.35 912.2,-2219.77 29.3,-70.97 114.35,-257.35 121.23,-323.17 -159.05,45.51 -484.59,289.11 -648.13,385.79 -215.2,127.29 -433.92,274.63 -646.17,409.36 -202.92,128.92 -480.99,383.09 -710.59,154.46 -102.16,-101.66 -124.09,-270.53 -51.9,-395.12 52.55,-90.61 212.25,-175.83 303.69,-231.82 430.73,-263.66 852.69,-548.03 1281.7,-815.61 430.64,-268.57 857.77,-544.26 1287.67,-814.55l479.27 -303.69c64.99,-45.92 115.33,-58.94 170.92,-95.2 151.19,-98.64 -367.94,-401.26 -205.54,-686.03 40.93,-71.79 224.69,-187.61 301.8,-223.88 393.32,-184.59 794,166.49 988.25,498.42 167.97,287.23 300.41,879.71 341.18,1227.92 14.49,123.27 73.92,365.32 72.52,470.02 -2.37,169.61 -282.32,112.31 -381.45,75.06 -152.33,-57.3 -198.5,-121.64 -286.09,-249.99 -142.35,-208.57 -282.65,-420.9 -424.34,-630.45zm-4488.73 -3013.85c-30.78,114.03 -247.53,152.91 -196.95,298.45 120.49,346.91 132.85,342.16 419.18,466.74l287.15 110.18c45.76,18.5 141.61,42.07 180.9,80.06 45.76,44.2 73.34,121.23 56.23,188.1 -5.89,22.67 -33.48,57.3 -59.84,65.98 -46.41,15.31 -62.78,-11.95 -103.14,9.58 -45.59,24.31 -149.39,45.35 -208.32,41.09 -125.65,-9.17 -331.27,-142.51 -289.03,118.2 22.35,137.85 -109.69,241.23 -221.01,291.57 -232.88,105.18 -120.41,210.37 -154.3,333.56 -22.1,80.46 -32.33,66.79 43.96,182.54 30.2,45.76 65.32,117.22 79.4,170.26 17.76,66.88 59.92,111.57 83.41,179.18 47.72,137.03 -169.61,43.71 -248.76,231.98 -46.74,111 -125.24,237.3 -234.93,287.23 -42.32,19.24 -56.32,2.95 -105.92,18.99 -174.6,56.56 -95.36,98.15 -75.96,239.59 21.86,159.37 56.89,292.63 -42.57,436.37 -174.68,252.28 -319.81,398.88 -106.33,684.97 7.29,9.74 113.94,116.32 159.95,195.64 10.56,18.34 6.06,30.45 20.63,49.2 120.16,154.13 114.11,386.93 -27.83,516.84 -40.52,37.08 -25.62,74.73 -103.22,131.21 -94.87,68.92 -247.7,147.18 -224.94,283.14 16.53,98.88 75.8,305.9 110.75,401.42 35.93,98.15 42.16,99.54 -6.96,193.34 -35.36,67.69 -39.05,106.49 -101.83,158.88 -234.11,195.14 -428.84,120.49 -567.02,465.84 -34.3,85.87 -111.9,302.54 -123.52,387.26 -29.88,217.41 -164.04,192.2 -259.4,205.46 -113.37,15.8 -197.52,178.2 -239.1,272.25 -60.41,136.54 -42.97,282.98 17.6,414.6 129.17,280.93 121.31,324.31 44.12,599.68 -25.95,92.91 -83.41,79.24 -7.37,169.03 57.79,68.35 109.44,257.11 118.77,346.66 19.48,187.61 259.24,468.62 258.99,127.7 -0.16,-197.27 -55.99,-169.77 -104.04,-303.77 -17.76,-49.52 6.88,-112.55 51.32,-147.42 57.87,22.67 52.22,-15.14 101.5,38.88 144.8,158.72 86.03,392.17 395.2,357.38 132.61,-14.98 261.28,-23.74 392.58,-73.1 38.47,-14.49 74.73,-34.05 109.52,-36.26l261.53 -35.36c112.63,-22.92 295.83,-86.36 406.25,-41.17 56.89,23.33 54.11,41.17 87.26,74.41 -46.58,61.31 -82.18,136.29 -155.77,179.67 -33.23,19.65 -39.05,32.66 -69.66,55.17l-231.82 120c-237.22,117.55 -331.52,-34.3 -492.53,-4.67 -35.93,6.55 -48.13,20.79 -83.9,29.88l-141.37 62.87c-17.84,11.05 -3.11,-0.25 -19.56,14.98 -33.97,31.27 -24.72,52.47 -72.93,26.19 -4.58,40.85 -14.32,54.19 -39.45,76.7l-17.52 16.45c-39.29,38.31 -55.25,37 -89.22,63.85 -70.72,-41.91 -82.92,-111.65 -166.66,-69.99 -44.53,133.26 22.92,280.52 55.09,406.66 11.79,46.41 6.55,50.01 24.64,100.19 25.05,69.82 71.13,213.89 108.7,265.95 137.35,17.44 216.43,-118.94 300.08,-204.89 43.55,-44.78 60.49,-37.65 101.09,-69.09 113.12,-87.5 166,16.21 264.56,14.16 97.98,-1.96 267.91,-141.86 380.06,-48.13 26.85,22.35 69.09,52.96 87.83,82.27 57.3,89.3 60.08,291.08 105.68,405.1 22.02,55.01 42.81,43.96 50.51,119.67 5.98,58.77 10.23,231.32 -64.42,238.12 18.5,115.66 -125.81,182.54 -57.05,303.36 50.59,88.98 130.23,174.68 172.06,260.3 53.62,109.52 -100.76,198.5 -142.27,351.16 -10.72,39.45 9.5,35.36 -6.47,84.88 -31.92,99.54 -49.6,41.58 -48.38,179.59 2.7,289.36 140.55,269.14 264.39,383 97.9,89.88 235.91,96.1 376.29,270.7 104.78,130.23 85.54,150.53 111.82,308.11 44.86,27.91 95.85,37.41 149.14,31.51 124.26,-13.83 242.54,-2.29 368.6,-18.01 215.2,-26.85 1087.95,-55.66 1351.85,-55.66l394.38 -8.84c84.88,13.59 67.78,28.24 165.51,12.69 281.42,-44.86 400.44,64.67 533.37,30.45l30.7 41.66 39.45 -16.45 82.43 106.41c76.37,-74.49 53.53,-35.28 159.62,-15.96 60,10.97 106.9,15.14 166.09,37.65 69.33,26.44 115.5,7.86 174.11,30.37 70.64,27.18 98.96,36.84 172.14,54.84 154.95,38.23 342.08,120.25 482.79,199.07 66.71,37.41 66.71,-32.41 121.23,59.59 122.13,-17.84 144.56,89.55 281.75,36.02 0,-110.42 -35.36,-110.59 -94.87,-188.92 -38.88,-51.24 -75.39,-120.57 -130.4,-153.32 -87.34,-52.14 -186.14,-246.8 -230.59,-336.92 -23.74,-48.13 -47.89,-153.48 -72.61,-211.11 -49.03,-114.11 -98.8,-282.32 -189.17,-378.5l-113.62 -101.99c-10.64,-7.12 -27.75,-23.25 -44.37,-35.03 17.76,-207.67 177.87,-141.94 40.76,-507.59 -124.83,-332.83 -183.28,-683.09 -275.94,-1025.49 -22.84,-84.15 -17.76,-133.02 6.63,-215.94 86.77,-294.35 -25.05,-312.28 177.63,-836.32 30.78,-79.65 91.76,-122.21 147.26,-181.88 66.06,-71.13 83.9,-142.35 136.29,-204.23 123.03,-145.05 691.85,-371.05 886.74,-463.96 70.23,-33.48 163.71,-61.56 226.09,-103.14 62.21,-41.42 104.53,-114.27 174.35,-168.05 261.69,-201.69 314.74,-655.91 356.81,-958.12 13.18,-94.3 35.12,-190.72 45.84,-284.2 21.12,-184.59 76.86,-761.59 118.28,-868.08 33.97,-87.5 201.45,-324.39 264.89,-404.78 101.34,-128.35 249.74,-210.29 341.5,-328.16 190.31,-244.5 127.61,-146.19 386.28,-262.18 292.96,-131.38 202.18,-123.27 397.98,-258.83 428.11,-296.48 347.48,-252.2 666.96,-651.41 147.34,-184.09 233.62,-90.94 352.96,-314.82 38.23,-71.79 111.82,-130.81 124.34,-208.16 28.08,-172.55 -154.79,-186.39 -45.59,-531.65 73.59,-232.63 144.64,-175.01 175.09,-493.26 27.42,-286.17 165.43,-439.07 -123.44,-763.72 -141.12,-158.55 -243.77,-174.68 -442.1,-190.31 -210.21,-16.62 -406.58,-18.66 -614.49,-31.84 -253.43,-15.96 -273.97,-48.95 -439.16,-230.34 -55.99,-61.47 -103.63,-118.12 -163.63,-176.89 -61.88,-60.66 -94.79,-126.96 -148.49,-192.03 -111.82,-135.55 -262.35,-181.56 -367.37,-296.89 -123.44,-135.55 -161.75,-228.13 -251.54,-377.93 -136.45,-227.56 -138.01,-190.07 -204.15,-464.37 -93.32,-386.77 14.49,-296.4 3.11,-571.93 -111,14.57 -637.74,6.96 -749.88,-10.64 -427.53,-66.71 -1071.82,37.82 -1535.86,-30.45l-558.42 -10.8c-89.22,13.59 -105.18,-4.17 -185.81,-5.4 -258.83,-4.17 -513.4,10.8 -771.08,-12.2 -381.61,-34.05 -1317.06,14.57 -1554.44,-11.87 -119.26,-13.26 -229.36,-2.95 -345.27,-17.11 -82.35,-10.07 -456.1,-67.29 -329.39,101.75 26.19,34.87 42.89,36.92 25.62,85.7 -35.44,100.6 -51.49,91.19 -105.84,158.8l-18.83 -9.41z"/>
    <path class="fil3" d="M25475.19 22353.12c119.35,-502.6 205.7,-1085.16 307.29,-1601.18 322.02,102.81 1321.24,557.44 1594.63,735.31 -21.53,43.47 -1723.64,796.95 -1901.92,865.87zm726.47 -2292.78c21.69,-2.29 37.33,-8.02 53.29,-15.06 16.04,-7.04 32.5,-15.55 55.91,-23.25 280.6,-93.32 1623.12,-566.28 1692.37,-560.88 24.31,34.79 286.17,1509.26 286.9,1643.42 -78.66,1.72 -94.54,54.93 -181.64,56.81 -0.08,-159.29 -93.72,-261.78 -229.52,-326.69 -558.91,-267.01 -1122.49,-510.04 -1677.31,-774.36zm-139.56 -801.21c-24.97,-75.23 139.65,-680.06 139.56,-833.21 87.42,7.45 742.76,380.06 916.95,479.18l-1056.51 354.03zm1635.23 -1602.57c7.29,10.56 119.02,612.04 127.45,712.56 -443.74,-229.03 -885.27,-472.06 -1325.49,-707.07 30.94,-16.04 1071.08,-17.93 1198.04,-5.48zm-1734.03 5366.23c0.65,-0.9 2365.47,-1110.46 2474.34,-1112.34 324.23,1714.96 608.19,3461.93 897.8,5186.06 52.39,311.46 52.47,756.18 483.77,737.44 460.03,-20.05 377.44,-468.46 318.09,-781.31 -327.1,-1725.6 -592.72,-3472.65 -900.91,-5203.09 -123.44,-692.91 -239.67,-1387.29 -359.51,-2080.86 -119.84,-693.32 -247.7,-1388.44 -357.22,-2083.07 -35.77,-227.07 -169.85,-722.87 -414.76,-799.73 -152.09,-47.64 -413.04,-26.36 -576.51,-25.13 -360.08,2.78 -1593.9,-38.55 -1776.27,48.05 -113.7,54.02 -160.03,131.3 -179.92,232.23 -340.77,1726.42 -600.74,3551.97 -929.31,5297.55 -32.17,170.51 -50.91,329.47 -47.48,502.68 4.09,205.46 50.91,292.47 224.45,374.82 689.47,327.26 1354.31,679.65 2055.24,997 253.59,114.76 620.96,357.87 888.95,210.53 144.97,-79.65 199.48,-264.31 175.01,-419.84 -28.08,-178.2 -145.38,-250.89 -296.56,-319.97 -546.55,-249.66 -1125.19,-544.42 -1679.19,-761.01z"/>
    <path class="fil3" d="M24017.17 28427.48l5.16 1575.81c0,208.08 -18.66,296.73 144.88,281.83 120.49,-10.97 73.75,-146.93 73.75,-281.83 0,-138.83 -13.83,-670.97 14.24,-731.71 129.91,-25.29 94.71,58.69 94.38,164.2 -0.57,202.51 -19.73,669.83 23.98,817.74 52.63,5.16 122.37,12.03 163.88,-7.2 50.75,-53.04 -25.29,-1576.63 30.37,-1648.25 126.55,90.78 385.05,529.2 487.21,532.96 72.2,2.62 110.83,-55.5 146.93,-105.35 54.68,-75.47 321.61,-413.54 364.09,-417.71 54.6,88.32 -41.66,1518.84 34.79,1644.16l158.23 3.68c38.96,-272.17 -12.28,-781.48 17.27,-974.99 39.78,-21.77 64.83,-27.42 101.91,0.65 22.76,194.16 -30.2,919.24 26.03,962.63 38.88,22.67 123.27,17.76 166.74,2.46 21.12,-71.62 8.68,-1362.41 8.51,-1548.55 -0.33,-388.16 -21.94,-279.78 209.71,-559.48 70.72,-85.29 279.21,-384.07 356.4,-427.29 61.56,16.53 59.75,41.99 124.99,-21.86 120.98,-118.53 571.52,-731.87 630.45,-758.39 12.36,85.78 -174.19,1177.09 -193.43,1301.43 -4.01,62.87 21.69,149.63 70.89,183.77 52.22,36.26 170.1,15.72 236.15,25.54 76.21,226.17 -69,1628.36 52.39,1750.82 55.74,9.58 222.48,13.51 273.56,-2.54 114.27,-87.34 -14.73,-1684.59 60.66,-1744.19 41.75,-13.02 145.87,-14.24 184.99,1.8 73.67,66.88 -57.79,1608.96 59.51,1744.59 58.53,12.28 239.51,12.93 296.07,-3.68 86.28,-294.27 -13.42,-1569.34 37.9,-1743.04 56.89,-17.19 94.95,-6.71 134.08,-59.18 36.18,-48.38 43.47,-103.3 40.35,-164.94 -9.17,-184.91 -116.32,-1044.64 -88.98,-1096.71 63.03,29.47 341.42,706.99 438.5,759.38 76.21,41.01 278.47,-111.16 279.21,-112.72 29.55,-106.99 -169.85,-417.46 -228.46,-529.36 -92.58,-176.81 -462.98,-913.68 -534.03,-1021.4 -68.51,-103.79 -107.89,-163.22 -230.18,-161.67 -894.11,12.03 -599.43,-68.27 -898.12,276.92 -157.65,182.21 -922.11,1113.08 -925.71,1203.94 -3.03,76.54 -9.33,61.47 -61.64,123.27l-285.35 362.62c-239.1,268.57 -101.5,216.92 -394.95,217.33 -199.24,0.33 -253.51,121.31 -367.78,268.57 -43.71,56.32 -251.05,328.49 -290.18,348.3 -118.77,-77.68 -422.29,-560.39 -519.7,-595.5 -68.02,-24.56 -199.65,-13.92 -275.94,-14.49 -116.64,-0.9 -101.42,-11.05 -170.83,-94.95 -107.31,-129.74 -293.54,-351.33 -410.75,-529.93 -37.57,-57.3 -39.37,-104.69 -79.97,-162.73 -129.99,-185.73 -616.54,-769.61 -691.6,-871.52 -53.37,-72.44 -311.13,-394.38 -387.59,-453.07 -90.94,-69.58 -73.18,-77.6 -198.66,-77.76 -184.75,-0.33 -372.53,3.68 -556.95,-0.65 -116.07,-2.78 -124.5,1.47 -182.46,95.44l-609.25 764.04c-75.31,84.48 -178.28,215.85 -248.68,307.37 -67.61,87.83 -215.94,229.28 -206.44,336.43l224.45 172.8c115.66,-47.23 144.48,-130.31 223.55,-222.48 64.75,-75.47 132.85,-159.13 199.65,-243.28 46.08,-57.95 359.84,-463.88 391.35,-473.45 27.42,69.5 12.44,2526.56 12.03,3002.88 0,75.63 -19.15,355.5 48.13,390.53 43.55,16.78 220.19,12.36 270.7,4.09 81.12,-78.66 50.01,-292.14 50.01,-405.92 0.08,-224.53 -15.8,-1272.45 13.42,-1345.55 51.32,-6.79 160.52,-18.34 196.45,9.9 25.13,23.98 10.8,1138.37 10.89,1324.26 0,98.15 -27.67,353.94 36.1,413.04 44.04,15.47 222.73,13.26 271.02,3.44 88.81,-85.7 50.42,-273.15 50.51,-393.81l-0.08 -1327.95c0,-168.62 -17.44,-1709.89 13.34,-1743.86 8.19,-7.78 38.31,31.02 54.35,50.59l166.58 208.32c66.55,85.87 151.27,201.77 221.17,278.47 70.07,76.94 164.28,195.14 228.79,281.91 121.97,163.88 158.72,225.76 277.49,174.27 48.54,47.64 519.13,641.01 529.53,706.74z"/>
    <path class="fil3" d="M24919.38 13897.49c-259.4,182.13 -399.54,525.27 -420.98,833.78 -11.87,171.08 14.49,344.61 86.52,521.5 141.12,346.5 546.88,601.48 869.47,776.24 230.51,124.91 400.6,215.36 631.44,356.15 222.57,135.72 479.43,397.33 597.38,93.32 101.91,-262.84 105.59,-598.2 87.26,-880.11 -14.08,-215.2 -25.78,-393.64 -49.11,-609.25 -59.84,-554.33 -264.39,-970.97 -767.24,-1207.78 -313.75,-147.75 -754.87,-80.46 -1034.74,116.15z"/>
    <path class="fil3" d="M27357.13 14324.78c-42.24,74.98 -69.99,158.06 -96.75,256.45 -37.65,138.42 -71.21,432.28 -66.47,579.7 2.46,76.37 15.06,268.16 34.63,342.57 59.75,228.13 160.93,184.99 256.95,118.12 161.34,-112.31 413.45,-230.02 621.45,-355.83 261.12,-157.82 425.24,-411.49 413.86,-672.36 -10.89,-248.11 -180.98,-480 -416.89,-560.3 -294.27,-100.11 -596.65,25.54 -746.77,291.65z"/>
    <path class="fil3" d="M27926.93 24963.75c-61.64,24.47 -209.96,25.29 -305.73,171 -41.83,63.77 -65.57,72.36 -80.38,157.98 -13.59,78.58 -39.13,122.87 -14.49,207.75 30.29,103.71 70.72,243.44 165.43,311.3 77.11,55.33 274.3,122.62 361.72,96.59 102.32,-30.45 242.54,-85.21 305.9,-171.65 104.94,-143.33 105.84,-193.34 101.5,-376.29 -2.78,-120.41 -106.66,-268.49 -166.9,-309.74 -80.46,-55.17 -274.46,-123.68 -367.04,-86.93z"/>
    <path class="fil3" d="M21955.96 24982.9c-132.93,19.24 -60.57,-3.27 -171.65,58.2 -76.45,42.32 -71.3,47.31 -119.26,119.1l-81.86 156.59c-33.72,175.34 38.72,389.39 193.18,508.24 64.75,49.77 261.53,103.55 380.96,65.81 94.71,-29.96 232.14,-83.33 283.3,-181.97 77.11,-148.65 137.27,-287.64 53.37,-453.97 -20.46,-40.6 -11.3,-35.03 -37.65,-75.88 -43.63,-67.61 -109.52,-134 -176.4,-175.5 -54.52,-33.89 -48.7,-5.98 -101.26,-23.57 -43.96,-14.65 -17.19,-24.8 -85.29,-28.16 -35.61,-1.8 -89.22,-0.41 -124.91,1.06 -20.63,34.13 7.45,-1.96 -12.52,30.04z"/>
    <path class="fil3" d="M24442.33 27426.22l-22.67 -7.94c-107.89,-7.94 -187.78,-35.69 -291.73,22.92 -252.36,142.18 -233.13,517.57 43.63,631.44 306.88,126.06 594.11,-227.15 438.91,-484.26 -59.67,-98.64 -77.19,-103.55 -168.13,-162.16z"/>
    <path class="fil3" d="M25770.36 27411.9c-83.25,20.3 -58.61,-4.09 -128.76,43.96 -117.95,80.63 -190.72,193.26 -156.75,345.02 51,227.56 179.84,300.9 411.16,287.23 177.63,-10.48 309.17,-226.41 274.38,-401.42 -37.24,-187.53 -206.36,-322.18 -400.03,-274.79z"/>
    <polygon class="fil3" points="26074.53,27388.08 26108.91,27392.25 26098.35,27359.26 "/>
    <path class="fil3" d="M25815.71 30162.25c18.25,11.21 -4.26,23.98 32.17,-3.93 -36.18,-17.35 -19.81,-3.85 -32.17,3.93z"/>
    <path class="fil3" d="M21377.73 26337.13c0,26.36 14,1.72 6.96,0 -0.08,0 -6.96,-29.3 -6.96,0z"/>
    <polygon class="fil3" points="16156.55,16167.19 16153.6,16156.79 16145.25,16163.34 "/>
    <path class="fil3" d="M24930.44 18425.92l3.36 -3.44c-0.25,0.25 -4.5,2.29 -3.36,3.44z"/>
   </g>
  </g>
  <g id="_2886263383936">
   <path class="fil2" d="M19193.32 36992.39c-77.84,0 -145.95,-17.27 -204.07,-51.9 -58.45,-34.54 -103.79,-83.08 -136.04,-145.38 -32.17,-62.37 -48.46,-135.47 -48.46,-218.8l0 -306.3c0,-83.82 16.29,-156.92 48.46,-219.54 32.25,-62.37 77.6,-110.83 136.04,-145.46 58.12,-34.54 126.22,-51.81 204.07,-51.81 64.42,0 123.44,13.83 176.89,41.34 53.45,27.83 98.23,66.3 134.41,116.07 36.1,49.52 60.49,107.72 73.34,174.27l0 0 -160.6 0 0 0c-9.74,-35.93 -25.95,-67.12 -48.79,-94.05 -22.76,-27.01 -49.52,-47.72 -80.14,-62.62 -30.7,-14.65 -62.37,-22.26 -95.12,-22.26 -68.68,0 -123.68,24.31 -165.35,72.52 -41.91,48.46 -62.62,112.14 -62.62,191.54l0 306.3c0,79.4 20.71,143.08 62.62,191.3 41.66,47.89 96.67,72.03 165.35,72.03 48.46,0 94.3,-15.47 137.27,-46.17 42.97,-30.61 72.03,-74.9 86.77,-132.77l0 0 160.6 0 0 0c-12.85,66.55 -37.49,124.67 -73.92,174.19 -36.18,49.77 -80.96,88.32 -134.16,116.07 -53.12,27.5 -112.14,41.42 -176.56,41.42zm897.3 0c-104.53,0 -185.24,-30.37 -242.62,-90.94 -57.38,-60.74 -85.87,-145.95 -85.87,-255.96l0 -129.66c0,-109.03 28.49,-193.67 85.87,-253.43 57.38,-60 138.09,-89.88 242.62,-89.88 104.28,0 185.24,29.88 242.62,89.88 57.14,59.75 85.95,144.39 85.95,253.43l0 132.03c0,109.2 -28.81,194.16 -85.95,254.41 -57.38,60 -138.34,90.12 -242.62,90.12zm0 -148.81c54.76,0 97,-17.27 127.12,-51.65 29.88,-34.3 44.78,-82.27 44.78,-144.07l0 -132.03c0,-62.13 -14.9,-109.85 -44.78,-143.66 -30.12,-33.72 -72.36,-50.75 -127.12,-50.75 -54.19,0 -96.43,17.03 -126.79,50.75 -30.12,33.81 -45.02,81.53 -45.02,143.66l0 132.03c0,61.8 14.9,109.77 45.02,144.07 30.37,34.38 72.61,51.65 126.79,51.65zm551.3 137.27l0 -796.79 156.43 0 0 796.79 -156.43 0zm483.44 0l0 -482.87c0,-56.32 -14.41,-99.86 -43.22,-130.48 -28.9,-30.7 -69.99,-46.08 -123.19,-46.08 -51.32,0 -90.61,13.59 -118.69,40.85 -27.75,27.01 -41.91,65.24 -41.91,114.19l-15.96 -153.48c24.64,-47.97 56.56,-85.21 96.43,-111.41 39.54,-25.95 83.33,-39.05 131.54,-39.05 86.44,0 153.23,28.32 200.63,84.88 47.48,56.64 71.05,136.54 71.05,239.76l0 483.69 -156.67 0zm847.54 0l0 -1116.19 156.67 0 0 1116.19 -156.67 0zm-200.14 13.92c-88.08,0 -156.18,-28.32 -203.82,-84.88 -47.97,-56.64 -71.79,-136.29 -71.79,-239.26l0 -175.5c0,-103.55 23.25,-183.44 70.15,-240 46.9,-56.64 112.72,-84.88 197.6,-84.88 47.15,0 90.37,12.28 129.41,36.92 39.05,24.64 70.72,58.94 94.87,103.47l-16.29 162.73c0,-33.56 -5.98,-62.62 -18.34,-86.69 -12.28,-23.9 -30.12,-42.24 -53.45,-54.76 -23.33,-12.61 -51.32,-18.91 -84.64,-18.91 -51.81,0 -91.68,16.29 -120.25,48.46 -28.32,32.25 -42.4,77.6 -42.4,135.72l0 173.45c0,57.95 14.08,102.73 42.4,134.16 28.57,31.43 68.43,47.15 120.25,47.15 33.32,0 61.31,-6.55 84.64,-19.65 23.33,-13.1 41.17,-31.68 53.45,-56.32 12.36,-24.64 18.34,-53.94 18.34,-88.32l10.72 167.97c-14.08,35.93 -38.96,68.1 -73.83,96.43 -35.12,28.57 -80.96,42.73 -137.03,42.73zm1075.26 -13.92l0 -796.79 155.61 0 0 796.79 -155.61 0zm-324.15 -796.79l0 484.5c0,55.74 14.41,98.72 42.73,129.17 28.32,30.37 68.35,45.84 120.25,45.84 51.65,0 91.43,-13.92 119.18,-41.17 28.08,-27.5 41.99,-65.98 41.99,-115.5l10.72 166.58c-14.41,35.69 -39.62,67.86 -75.23,96.18 -35.85,28.57 -82.76,42.73 -140.46,42.73 -88,0 -156.1,-28.32 -203.82,-84.88 -47.97,-56.64 -71.79,-136.29 -71.79,-238.94l0 -484.5 156.43 0zm1039.41 808.33c-109.52,0 -194.16,-30.12 -254.41,-90.7 -60,-60.25 -90.12,-145.38 -90.12,-255.39l0 -131.3c0,-109.03 30.12,-193.34 90.12,-253.1 60.25,-59.51 144.88,-89.39 254.41,-89.39 62.62,0 118.69,11.05 168.95,33.07 50.1,22.02 90.12,53.45 119.76,94.3l0 0 -112.96 101.42 0 0c-21.94,-25.7 -47.89,-45.35 -78.34,-59.26 -30.12,-13.59 -61.8,-20.63 -95.12,-20.63 -60.25,0 -107.15,17.03 -140.38,50.75 -33.32,33.81 -49.77,81.28 -49.77,142.84l0 131.3c0,62.87 16.45,111.32 49.77,145.62 33.23,34.38 80.14,51.65 140.38,51.65 33.32,0 64.99,-7.61 95.12,-22.26 30.45,-14.98 56.4,-35.93 78.34,-63.19l0 0 112.96 109.03 0 0c-29.63,40.11 -69.66,70.72 -120.25,92.5 -50.34,21.69 -106.41,32.74 -168.46,32.74zm782.87 0c-109.52,0 -194.16,-30.12 -254.41,-90.7 -60,-60.25 -90.12,-145.38 -90.12,-255.39l0 -131.3c0,-109.03 30.12,-193.34 90.12,-253.1 60.25,-59.51 144.88,-89.39 254.41,-89.39 62.62,0 118.69,11.05 168.95,33.07 50.1,22.02 90.12,53.45 119.76,94.3l0 0 -112.96 101.42 0 0c-21.94,-25.7 -47.89,-45.35 -78.34,-59.26 -30.12,-13.59 -61.8,-20.63 -95.12,-20.63 -60.25,0 -107.15,17.03 -140.38,50.75 -33.32,33.81 -49.77,81.28 -49.77,142.84l0 131.3c0,62.87 16.45,111.32 49.77,145.62 33.23,34.38 80.14,51.65 140.38,51.65 33.32,0 64.99,-7.61 95.12,-22.26 30.45,-14.98 56.4,-35.93 78.34,-63.19l0 0 112.96 109.03 0 0c-29.63,40.11 -69.66,70.72 -120.25,92.5 -50.34,21.69 -106.41,32.74 -168.46,32.74zm461.34 -970.97l0 -156.75 156.43 0 0 156.75 -156.43 0zm0 959.43l0 -796.79 156.43 0 0 796.79 -156.43 0zm700.03 11.54c-104.53,0 -185.24,-30.37 -242.62,-90.94 -57.38,-60.74 -85.87,-145.95 -85.87,-255.96l0 -129.66c0,-109.03 28.49,-193.67 85.87,-253.43 57.38,-60 138.09,-89.88 242.62,-89.88 104.28,0 185.24,29.88 242.62,89.88 57.14,59.75 85.95,144.39 85.95,253.43l0 132.03c0,109.2 -28.81,194.16 -85.95,254.41 -57.38,60 -138.34,90.12 -242.62,90.12zm0 -148.81c54.76,0 97,-17.27 127.12,-51.65 29.88,-34.3 44.78,-82.27 44.78,-144.07l0 -132.03c0,-62.13 -14.9,-109.85 -44.78,-143.66 -30.12,-33.72 -72.36,-50.75 -127.12,-50.75 -54.19,0 -96.43,17.03 -126.79,50.75 -30.12,33.81 -45.02,81.53 -45.02,143.66l0 132.03c0,61.8 14.9,109.77 45.02,144.07 30.37,34.38 72.61,51.65 126.79,51.65zm13.92 -812.99l-98.23 -79.15 219.29 -272.5 112.88 93.81 -233.94 257.85zm537.38 950.26l0 -796.79 156.43 0 0 796.79 -156.43 0zm483.44 0l0 -482.87c0,-56.32 -14.41,-99.86 -43.22,-130.48 -28.9,-30.7 -69.99,-46.08 -123.19,-46.08 -51.32,0 -90.61,13.59 -118.69,40.85 -27.75,27.01 -41.91,65.24 -41.91,114.19l-15.96 -153.48c24.64,-47.97 56.56,-85.21 96.43,-111.41 39.54,-25.95 83.33,-39.05 131.54,-39.05 86.44,0 153.23,28.32 200.63,84.88 47.48,56.64 71.05,136.54 71.05,239.76l0 483.69 -156.67 0z"/>
   <path class="fil2" d="M17305.31 39561.44c-57.46,75.72 -184.67,258.66 -240.33,364.83 -257.03,490.97 -306.06,765.03 -792.12,1087.54 -98.72,65.48 -194.24,111.24 -273.32,154.22 -78.99,42.89 -144.48,75.14 -198.09,96.59 -78.09,36.1 -161.01,62.46 -248.84,79.07 -87.83,16.62 -176.64,24.39 -268.49,24.39 -28.24,0 -60.49,-3.85 -95.61,-12.61 -35.2,-8.84 -73.18,-18.66 -113.12,-30.37 -48.87,-13.59 -90.86,-24.39 -124.99,-34.13 -35.2,-9.74 -63.44,-15.63 -85.87,-17.6l-34.13 -34.13 -83 -11.71c-36.1,-1.96 -79.97,-19.48 -129.82,-53.7 -50.67,-35.12 -105.35,-81.94 -164.86,-143.41 -56.64,-57.63 -103.55,-111.32 -138.58,-163.06 -35.2,-51.65 -60.57,-98.55 -75.23,-140.55l-77.11 -245.9c-27.34,-83.98 -46.82,-152.25 -60.41,-203 -13.75,-51.73 -18.66,-84.88 -16.62,-100.52l31.19 -128.76c-15.72,-43.96 -27.34,-80.06 -36.1,-108.46 -8.84,-29.22 -12.69,-50.67 -12.69,-66.3 0,-14.65 4.83,-61.47 14.65,-140.55 8.76,-78.09 22.43,-186.39 40.03,-325.95 12.61,-26.36 27.26,-58.53 42.89,-97.57 14.65,-38.14 29.22,-81.12 42.97,-128.84l-8.76 -62.46c0,-15.63 2.86,-33.23 9.74,-52.72 6.88,-20.55 15.63,-42.97 27.34,-67.37 43.87,-93.72 87.83,-188.35 131.71,-283.06 43.96,-95.61 87.83,-188.35 131.79,-278.15 37.98,-68.35 86.85,-139.56 147.34,-211.76 59.51,-72.2 128.76,-148.32 206.85,-226.5 17.6,-18.42 38.14,-43.87 63.44,-74.08 24.47,-30.29 54.68,-63.44 88.9,-100.6 32.17,-18.5 71.21,-47.8 118.04,-86.85 46.82,-38.96 102.48,-88.73 167.89,-150.29 18.58,-7.78 41.99,-18.58 68.35,-31.19 27.34,-13.67 59.51,-30.29 97.57,-48.87 9.74,-5.73 21.45,-15.63 36.1,-28.24 13.67,-13.67 30.29,-28.24 49.85,-42.89 20.46,-19.56 97.57,-47.89 228.3,-85.95 131.79,-38.06 217.65,-57.54 257.6,-57.54 87.91,0 162.07,5.81 223.55,18.5 61.47,12.69 109.28,32.25 146.36,58.61l90.86 17.52c77.03,16.62 132.69,75.14 168.79,174.68 36.18,99.62 54.6,242.13 54.6,429.42 0,87.91 -0.9,158.15 -2.86,210.86 -1.96,51.73 -4.91,87.75 -8.76,107.39 -10.72,56.56 -24.39,128.76 -38.14,215.61 -14.57,86.93 -33.15,187.45 -56.56,302.62 -1.88,30.2 -14.65,80.96 -38.06,150.29 -24.39,69.25 -54.68,156.18 -93.72,258.58 -40.03,113.21 -74.08,198.17 -102.48,256.7 -29.22,58.53 -52.72,90.78 -72.2,95.61 -76.13,19.56 -158.06,40.03 -245.9,63.52 -41.99,0 -71.3,-3.03 -88.81,-9.82 -16.62,-6.79 -25.38,-17.6 -25.38,-33.15 0,-13.67 2.86,-34.22 9.74,-63.44 6.88,-28.32 9.74,-48.79 9.74,-59.51 -5.81,-73.26 -10.72,-146.44 -16.62,-220.52 0,-27.42 7.78,-80.14 22.51,-158.23 15.63,-78.01 38.06,-178.61 68.35,-300.57 33.23,-133.67 61.47,-239.1 86.85,-316.21 24.31,-78.09 44.86,-125.89 59.43,-145.38 55.74,-51.73 96.67,-100.6 122.05,-147.42 26.36,-46.82 39.05,-88.81 39.05,-127.86 0,-52.72 -12.69,-99.54 -38.06,-139.56 -26.36,-40.93 -64.42,-71.3 -116.15,-91.76 -49.69,-11.62 -99.54,-22.43 -150.29,-33.15 -50.75,-10.72 -100.44,-23.33 -150.29,-38.96 -40.03,15.63 -76.13,27.26 -107.31,34.13 -31.27,7.78 -58.61,14.57 -82.1,20.46 -127.78,21.45 -249.74,80.06 -367.78,177.55 -117.22,97.65 -229.44,231.41 -335.85,403.14 -87.83,149.31 -159.05,298.61 -211.68,448.9 -53.7,149.39 -89.88,299.59 -109.36,450.94 -7.78,44.94 -16.62,102.4 -28.32,169.85 -11.71,68.35 -28.32,147.34 -48.79,239.02 17.6,57.63 32.25,109.36 45.84,157.16l-28.24 260.63c0,9.74 7.78,29.22 25.38,58.45 17.52,30.37 43.96,73.26 79.97,130.81 21.45,32.25 40.03,70.31 57.54,114.19 16.62,43.96 30.37,93.72 40.03,149.39 3.93,12.69 10.8,27.34 21.45,42.89 10.8,14.73 22.51,27.34 35.2,37.16 29.3,24.31 56.64,46.82 82.92,65.32 83,87.91 169.85,154.3 262.59,199.16 92.74,44.94 191.3,67.29 295.75,67.29 9.74,0 44.86,-4.83 107.31,-14.57 61.56,-8.76 146.36,-24.39 254.74,-45.92 18.58,-13.67 43.96,-27.34 75.06,-39.95 31.35,-13.75 68.43,-28.32 112.31,-43.96 38.06,-38.06 76.37,-65.08 114.19,-82.02 306.71,-136.86 634.46,-765.19 795.39,-1060.85 31.35,-57.54 93.56,-139.24 156.67,-216.51l7.29 -10.97c10.23,-15.96 23.41,-33.56 40.44,-52.39l19.32 -16.78c41.09,-47.97 77.52,-88.98 99.78,-113.86l0 -2.13c-1.15,-14.24 -2.21,-26.19 -4.58,-34.79 0,-25.62 4.58,-68.35 14.9,-128.76 9.66,-59.84 18.74,-95.77 26.69,-108.3l-10.15 -31.35c14.24,-74.65 34.71,-156.18 60.9,-244.5 26.28,-88.32 55.91,-184.67 88.98,-287.81 11.38,-17.68 22.76,-40.44 35.28,-67.78 11.95,-26.77 25.62,-58.2 41.58,-92.33 18.83,-58.12 43.96,-118.53 74.65,-181.8 31.35,-63.27 66.14,-128.84 104.94,-195.47 52.39,-87.75 98.55,-153.89 138.99,-198.34 40.44,-44.45 76.94,-66.71 109.44,-66.71 64.42,0 108.21,12.61 132.2,37.65 23.9,25.13 35.93,71.79 35.93,140.79 0,17.6 -2.86,45.59 -9.17,82.59 -6.22,37.08 -9.09,65.57 -9.09,84.39 0,18.83 -6.3,45.51 -18.25,79.81 -12.52,34.71 -18.17,66.63 -18.17,95.12 -1.15,9.09 -4.01,17.68 -8.59,26.77l1.72 23.41c-4.58,15.39 -11.46,34.79 -19.97,56.97 -9.09,22.26 -20.46,48.46 -35.28,79.81 -7.45,27.91 -17.68,59.75 -29.71,96.84 -12.52,36.43 -26.77,76.37 -43.3,120.25 -6.79,10.89 -15.39,24.47 -25.62,40.44 -10.8,16.62 -22.18,34.22 -34.22,54.19 -3.44,14.82 -9.09,31.35 -17.03,50.18 -7.45,18.74 -18.34,41.01 -31.35,66.63 -6.88,13.67 -15.47,27.91 -26.85,43.3 -10.8,15.96 -24.47,35.93 -39.86,60.41 -6.79,10.8 -13.67,25.05 -21.61,41.58 -8.02,16.62 -16.62,35.36 -26.85,56.48 -11.95,19.32 -27.91,42.73 -48.46,70.07 -19.89,27.91 -42.65,60.98 -67.78,98.64 -34.79,60.98 -70.07,119.67 -106.58,174.93 0,108.3 21.04,189.74 63.85,244.5 42.73,55.25 107.07,82.59 192.61,82.59 5.16,0 21.61,-3.93 49.6,-11.95 27.91,-7.45 66.06,-19.97 114.52,-37 14.24,-8.59 31.92,-21.12 51.81,-37.65 19.4,-16.53 42.24,-35.85 67.86,-58.12l64.99 153.81c-29.14,25.7 -57.54,51.9 -86.69,78.66 -28.49,26.77 -58.04,53.04 -88.24,78.66 -34.22,29.06 -69,51.32 -104.94,66.14 -35.28,15.39 -70.07,22.76 -104.86,22.76 -17.68,0 -44.45,-1.72 -81.53,-5.65 -36.43,-4.01 -63.77,-6.3 -83.17,-6.3 -62.13,0 -113.37,-25.13 -153.81,-75.23 -40.52,-50.18 -69,-125.4 -85.54,-225.68 -2.21,-10.23 -5.08,-18.83 -9.17,-26.77 -2.78,-5.65 -6.96,-11.46 -12.77,-18.01zm9983.14 -524.12c11.13,-16.62 22.76,-29.39 36.92,-36.92 13.59,-7.12 27.26,-10.89 41.42,-10.89 36.92,0 68.6,9.17 94.22,27.75 25.54,18.42 42.4,46.82 50.59,83.82 7.69,33.15 14.73,66.47 20.71,99.62 6.55,33.81 12.03,67.45 16.37,101.26 7.04,21.2 16.29,53.37 26.6,96.34 10.89,43.06 18.58,67.53 23.98,74.16 4.91,10.23 13.02,17.93 23.41,22.76 10.89,4.91 23.9,7.12 39.78,7.12 18.99,0 38.64,-3.27 58.77,-10.4 19.56,-6.47 40.27,-18.5 61.47,-35.85 15.88,-13.67 32.66,-27.83 50.18,-41.99 17.35,-14.65 34.3,-28.81 51.08,-42.48l65.32 147.1c-16.86,16.86 -39.78,36.43 -67.45,58.2 -28.4,21.77 -62.13,47.39 -101.26,76.21 -43.63,31.6 -80.55,55.58 -111.08,70.72 -31.11,15.88 -53.94,23.41 -70.23,23.41 -96.34,0 -159.05,-11.38 -187.86,-33.72 -28.24,-22.26 -60.41,-84.39 -95.28,-186.22 -4.34,-9.17 -10.31,-18.91 -19.07,-30.94 -8.1,-11.46 -17.93,-25.62 -28.32,-41.42 -13.02,-24.47 -23.9,-42.97 -33.72,-54.93 -72.03,-97.24 -3.36,-278.96 53.45,-362.7zm348.95 -923.25c26.6,0 46.25,5.4 58.28,15.72 12.44,10.97 18.42,26.19 18.42,46.33 -6.55,30.04 -11.87,55.09 -15.8,75.14 -10.8,38.14 -20.14,69.66 -28.32,94.22 -7.53,24.39 -13.59,41.91 -17.93,52.8 -9.74,22.84 -22.92,43.55 -39.21,60.9 -16.37,17.44 -36.59,33.23 -59.92,47.39 -24.47,16.86 -44.61,28.81 -61.47,35.85 -16.29,6.63 -27.83,9.9 -34.3,8.84 -18.01,-2.21 -35.44,-4.34 -51.73,-6.06 -16.29,-1.15 -32.66,-2.13 -48.46,-2.13 -14.08,-7.69 -25.05,-21.77 -32.66,-42.97 -8.19,-21.28 -11.95,-50.18 -11.95,-86.03 0,-32.17 18.99,-72.44 58.2,-120.33 38.64,-48.46 72.93,-74.65 102.97,-77.93 17.93,-22.26 39.13,-47.31 63.68,-76.21 10.31,-7.61 24.47,-13.59 41.34,-18.5 16.86,-4.91 36.51,-7.04 58.85,-7.04zm247.7 1257.55l9.74 -10.89 4.34 -15.72c19.65,-23.41 35.93,-41.42 50.1,-55.09 13.59,-13.02 24.47,-23.41 31.6,-30.45 5.48,-5.48 17.35,-12.52 35.36,-20.71 18.58,-8.68 43.06,-18.99 73.51,-31.51l21.2 -13.1c7.12,-11.38 20.71,-28.24 39.78,-50.59 18.99,-22.35 42.48,-47.97 68.6,-76.78 5.48,-6.55 13.59,-13.1 23.9,-20.71 10.97,-7.61 21.94,-16.78 33.81,-28.81 25.7,-24.56 51.16,-49.52 76.29,-75.63 25.54,-26.19 49.52,-51.81 71.79,-77.35 9.82,-9.17 29.39,-26.69 59.35,-51.73 29.39,-25.05 70.31,-59.92 120.9,-104.53 7.61,-5.48 20.63,-13.1 40.27,-22.84 19.07,-10.4 44.12,-22.35 74.57,-35.93 14.16,-6.63 24.47,-16.86 31.02,-31.02 7.04,-14.73 10.4,-32.66 10.4,-54.93 8.68,-14.24 16.86,-31.11 24.97,-50.75 8.27,-19.65 15.8,-42.97 22.92,-69.17 10.89,-33.23 19.07,-59.84 25.05,-80.55 5.89,-21.2 10.4,-34.79 13.59,-42.48 17.93,-47.89 42.48,-103.88 73.02,-168.21 31.02,-64.75 67.45,-138.25 110.51,-221.58 21.12,-43.55 46.25,-91.92 74.57,-144.8 18.01,-26.69 38.64,-46.82 60.9,-59.84 22.43,-13.59 45.76,-20.22 69.74,-20.22 19.56,0 33.72,7.61 42.4,22.35 9.33,14.73 13.67,36.43 13.67,65.32 0,45.76 -3.27,89.39 -9.82,131.3 -5.89,41.34 -17.93,79.97 -34.87,116.4 -3.27,7.04 -5.89,18.58 -8.1,33.23 -2.21,14.73 -4.42,33.15 -6.55,54.43 -1.15,14.73 -4.91,28.9 -11.95,43.06 -7.2,13.51 -15.8,26.69 -26.11,38.06 0,7.61 -1.15,16.37 -3.27,26.69 -2.21,9.82 -4.42,21.77 -6.55,35.93l-22.43 28.32c-2.13,6.55 -3.19,14.24 -3.19,23.49 0,8.68 0,17.84 0,27.67 0,6.55 -3.85,19.07 -11.46,37.57 -7.04,18.5 -18.5,45.18 -33.15,78.91 -17.44,36.51 -31.02,64.83 -40.85,86.03 -10.31,21.28 -15.8,34.87 -16.94,40.27 -4.26,4.99 -9.74,13.67 -16.78,25.62 -7.04,11.46 -15.31,24.56 -24.56,39.78l4.34 34.79 -102.32 366.96c0,40.27 0.57,74.65 1.64,103.47 1.15,28.32 4.26,51.16 9.74,68.02 4.91,18.01 13.59,40.27 26.28,65.89 11.87,26.11 27.67,53.94 46.17,83.82 12.03,20.22 25.62,34.87 41.42,43.63 15.8,9.25 32.66,13.51 50.59,13.51 20.14,0 40.27,-5.32 61.06,-16.86 20.63,-10.8 41.26,-28.32 62.54,-51.73 13.02,27.83 25.54,53.94 37.08,78.5 11.38,24.39 20.63,47.31 28.24,68.6 -5.4,3.19 -16.86,14.08 -34.3,32.58 -17.35,18.58 -40.85,45.18 -69.17,78.99 -16.78,20.14 -38.06,34.79 -63.11,44.12 -25.05,8.68 -55.5,13.59 -91.51,13.59 -79.97,0 -144.8,-21.28 -194.33,-62.7 -50.1,-41.34 -84.97,-103.38 -105.02,-186.06 -4.42,-17.03 -8.27,-31.6 -11.38,-44.2 -3.27,-13.02 -6.63,-24.47 -9.9,-34.79 -7.12,-20.14 -20.14,-41.91 -38.06,-65.4 -7.12,10.97 -13.1,18.58 -17.44,23.98 -12.52,8.76 -26.6,20.71 -42.57,36.51 -15.14,16.29 -30.94,36.43 -46.74,60.98 -3.27,10.4 -9.25,23.41 -17.44,38.64 -8.68,15.8 -20.14,33.72 -35.36,55.01 -33.72,39.7 -68.02,78.91 -103.47,119.18 -34.79,39.78 -70.23,78.99 -105.1,117.05 -47.8,53.37 -91.92,92.09 -132.28,117.05 -40.27,25.05 -75.14,37.65 -105.1,37.65 -53.29,0 -92.5,-12.61 -118.12,-37.65 -25.54,-24.97 -38.06,-64.18 -38.06,-117.55 0,-24.47 9.25,-58.77 27.75,-102.89 18.5,-44.69 27.75,-77.35 27.75,-98.64l-9.82 -25.46 -65.24 -147.1zm802.43 -454.55c0,-5.4 -2.21,-13.67 -6.55,-23.9 -15.8,15.72 -35.36,34.22 -58.69,55.99 -23.41,21.2 -50.75,44.12 -82.84,69.74 -7.69,17.35 -24.47,44.04 -50.67,80.55 -26.69,37.08 -63.68,82.27 -111.57,136.7 -14.16,15.72 -32.58,42.89 -56.07,82.18 -22.92,38.64 -51.73,85.95 -85.46,142.67 -12.03,22.26 -23.98,48.95 -37,81.04 0,6.55 4.34,13.1 13.02,20.79 31.51,-9.33 70.81,-37.65 117.05,-83.9 45.76,-46.25 100.76,-110.01 164.45,-192.2 65.89,-87.09 114.84,-161.17 146.36,-222.16 32.17,-60.98 47.97,-110.59 47.97,-147.5zm583.71 385.38l144.64 -94.71c5.48,-5.4 11.54,-12.44 19.07,-21.77 7.69,-8.68 15.88,-21.77 25.62,-38.55 7.61,-14.16 17.52,-25.62 29.39,-35.44 12.03,-9.25 26.19,-18.01 42.57,-25.62 8.1,-10.31 20.63,-23.98 36.43,-39.7 15.8,-15.88 36.02,-34.3 60.41,-55.42 12.03,-6.63 26.69,-15.88 44.61,-28.4 18.01,-12.03 37.57,-28.4 58.77,-48.46 96.92,-91.51 181.39,-160.03 254.24,-205.79 73.02,-45.76 133.92,-68.6 184.09,-68.6 27.75,0 47.89,5.89 60.9,17.35 13.75,12.03 20.14,28.32 20.14,49.6 0,22.18 -3.77,41.91 -11.87,58.77 -8.27,17.44 -20.14,31.6 -37.65,42.97 -26.03,19.65 -54.93,40.93 -85.95,64.26 -16.94,22.35 -37.57,45.76 -62.13,70.81 -24.47,25.05 -52.8,49.52 -86.03,74 -10.23,14.16 -19.56,26.19 -26.6,37.08 -5.48,4.91 -15.8,14.73 -30.53,28.24 -14.73,14.16 -34.22,30.04 -58.77,47.97 -10.89,23.41 -33.72,53.86 -69.74,90.94 -35.36,37.49 -82.67,82.1 -142.1,133.92 -7.53,7.61 -20.63,24.47 -40.27,51.16 -18.99,26.69 -44.04,61.56 -74.49,105.59l10.8 14.16c23.41,-7.61 47.97,-20.14 73.51,-38.14 25.62,-18.42 53.94,-42.48 84.88,-71.79 36.02,-33.23 65.32,-59.92 88.24,-80.55 22.92,-20.79 39.21,-34.38 49.03,-40.93 7.04,-4.34 14.73,-8.68 21.77,-12.52 7.61,-4.26 16.37,-9.82 25.54,-16.37 49.03,-58.28 94.71,-101.75 136.7,-129.5 42.48,-28.32 81.61,-42.4 118.2,-42.4 22.26,0 39.13,8.59 50.59,26.03 12.03,17.44 18.5,44.12 20.71,78.99 -2.21,53.29 -3.36,104.45 -3.36,152.99 -1.06,34.3 8.27,64.75 27.83,92.01 19.56,27.18 45.18,40.85 76.78,40.85 9.74,0 18.99,-2.78 27.75,-8.19 9.25,-5.48 18.5,-12.52 27.75,-21.2 7.61,-9.9 14.65,-19.07 21.2,-27.83 7.12,-8.68 14.24,-16.86 21.28,-25.62 4.26,-2.13 10.23,-5.98 18.5,-11.38 7.61,-5.48 15.14,-11.95 22.84,-19.65 15.23,32.17 28.32,59.92 38.72,83.9 10.23,23.98 17.93,45.18 23.33,63.19 -24.47,22.26 -48.38,45.68 -72.36,69.66 -23.98,24.39 -49.03,47.39 -75.72,68.68 -32.09,24.39 -62.62,42.89 -92.5,55.42 -29.39,12.52 -59.43,18.42 -89.3,18.42 -68.6,0 -121.88,-19.48 -158.96,-58.69 -37.08,-39.7 -58.77,-99.13 -65.4,-179.18 0,-9.17 -1.56,-18.99 -3.77,-29.39 -2.7,-9.74 -8.68,-20.14 -16.86,-30.94 -5.48,5.4 -11.46,10.8 -17.44,16.86 -6.47,5.98 -14.16,13.59 -22.35,22.92 -14.16,10.8 -31.6,23.9 -52.22,40.19 -20.63,15.8 -44.61,34.87 -72.44,57.22 -37.57,38.06 -68.6,69.66 -94.22,94.13 -25.46,24.47 -44.04,41.99 -54.43,52.8 -21.12,18.01 -46.17,35.93 -74.57,53.86 -27.75,18.01 -59.84,36.59 -94.71,56.15 -22.26,11.46 -41.34,20.71 -57.71,27.83 -15.8,7.04 -27.75,10.23 -34.79,10.23 -51.16,0 -89.3,-12.52 -113.86,-37.57 -24.47,-24.97 -36.43,-63.68 -36.43,-116.48 0,-28.9 6.55,-56.15 19.07,-82.18 12.52,-26.03 31.02,-51.73 55.99,-76.21 2.29,-14.16 3.27,-25.13 3.27,-33.72 0,-5.48 -0.98,-10.97 -3.77,-16.37 -2.7,-5.98 -6.55,-12.52 -10.4,-19.65 -6.47,-15.23 -13.51,-32.09 -21.77,-50.67 -7.61,-19.07 -16.29,-39.13 -26.03,-60.41 4.26,-4.26 10.23,-12.52 18.42,-24.39 7.61,-12.03 16.94,-27.26 27.91,-44.78zm1173.65 69.17c9.82,-10.23 18.99,-23.41 28.81,-38.55 9.9,-15.23 22.43,-32.17 38.64,-50.18l106.17 -92.01c4.42,-2.7 6.63,-7.04 7.12,-12.44 0.65,-5.48 0.65,-12.52 0.65,-22.35 -1.15,-13.59 -2.21,-25.05 -4.5,-33.23 0,-24.47 4.5,-65.32 14.16,-123.03 9.33,-57.14 18.01,-91.43 25.7,-103.47l-9.9 -29.96c13.59,-71.21 33.23,-149.14 58.36,-233.45 25.05,-84.39 53.29,-176.48 84.88,-274.95 10.89,-16.94 21.86,-38.72 33.72,-64.83 11.46,-25.54 24.56,-55.58 39.7,-88.24 18.01,-55.42 41.99,-113.21 71.38,-173.7 29.88,-60.33 63.11,-122.95 100.19,-186.63 50.1,-83.9 94.22,-147.1 132.85,-189.5 38.55,-42.48 73.42,-63.68 104.53,-63.68 61.47,0 103.38,12.03 126.3,35.93 22.84,23.9 34.22,68.6 34.22,134.49 0,16.78 -2.62,43.55 -8.68,78.91 -5.98,35.36 -8.76,62.62 -8.76,80.55 0,18.01 -5.98,43.63 -17.44,76.21 -11.87,33.23 -17.35,63.68 -17.35,91.02 -1.06,8.68 -3.85,16.86 -8.19,25.54l1.64 22.26c-4.34,14.73 -10.8,33.23 -19.07,54.43 -8.68,21.28 -19.56,46.33 -33.72,76.21 -6.96,26.77 -16.86,57.3 -28.24,92.66 -12.03,34.79 -25.7,72.85 -41.42,114.84 -6.55,10.31 -14.73,23.41 -24.47,38.64 -10.4,15.88 -21.28,32.66 -32.66,51.73 -3.36,14.08 -8.76,29.88 -16.29,47.89 -7.12,18.01 -17.52,39.29 -30.04,63.68 -6.55,13.1 -14.65,26.69 -25.62,41.42 -10.4,15.14 -23.33,34.3 -38.06,57.71 -6.55,10.23 -13.1,23.9 -20.71,39.78 -7.61,15.63 -15.72,33.64 -25.62,53.78 -11.38,18.58 -26.6,40.93 -46.25,67.04 -19.07,26.69 -40.85,58.2 -64.83,94.13 -33.15,58.28 -66.96,114.35 -101.75,167.15 0,103.47 20.14,181.31 60.98,233.53 40.76,52.88 102.24,78.99 183.93,78.99 4.99,0 20.79,-3.85 47.39,-11.46 26.77,-7.12 63.19,-18.99 109.52,-35.36 13.59,-8.19 30.45,-20.14 49.52,-35.93 18.42,-15.8 40.27,-34.3 64.83,-55.58l61.96 147.1c-27.75,24.39 -54.93,49.52 -82.76,75.06 -27.26,25.54 -55.5,50.59 -84.31,75.14 -32.74,27.75 -65.98,48.95 -100.27,63.11 -33.64,14.73 -66.88,21.77 -100.19,21.77 -16.86,0 -42.32,-1.64 -77.76,-5.4 -34.87,-3.77 -60.98,-5.98 -79.48,-5.98 -59.43,0 -108.38,-23.9 -147.01,-71.87 -38.64,-47.89 -65.89,-119.76 -81.69,-215.61 -2.21,-9.82 -4.83,-17.93 -8.68,-25.62 -3.77,-7.61 -10.4,-15.8 -20.05,-25.54 -13.75,13.59 -30.04,30.45 -48.54,49.52 -18.5,19.15 -40.85,40.85 -67.45,65.4l-65.4 -147.1zm760.6 -1249.37l-10.97 -6.63c-59.35,57.22 -104.45,111.65 -134.41,162.81 -30.53,50.67 -45.18,100.27 -45.18,148.08 0,7.12 -3.85,19.65 -10.4,37.57 -7.04,17.52 -17.44,39.78 -31.02,67.45 -17.44,32.74 -34.79,69.17 -52.8,108.46 -20.14,59.26 -35.36,107.72 -46.33,144.8 -10.23,37.57 -15.8,63.68 -15.8,79.97l9.82 12.52c9.25,-1.06 21.28,-10.31 34.95,-28.81 13.59,-17.93 29.88,-44.69 47.8,-79.4 8.19,-19.07 20.71,-41.5 36.51,-67.04 15.8,-25.62 33.81,-55.5 53.94,-91.02 16.78,-23.33 44.04,-83.25 81.04,-179.59 37.08,-96.84 57.71,-158.47 60.57,-185.08 0.98,-21.2 4.26,-42.4 8.59,-63.19 4.91,-20.63 9.25,-40.76 13.67,-60.9zm-5803.09 465.76c18.01,-32.25 34.87,-60.49 49.44,-84.97 9,-55.66 15.39,-109.28 20.46,-161.99 4.75,-51.73 13.51,-106.41 23.08,-161.01 6.55,-82.02 4.01,-147.42 -7.37,-197.19 -11.46,-49.69 -31.76,-81.04 -59.59,-94.63l-158.96 -77.11c-18.01,-7.86 -44.45,-16.62 -79.81,-28.32 -20.46,0 -39.21,9.74 -53.86,28.32 -16.04,19.56 -29.55,46.82 -41.09,82.92 -4.34,13.67 -11.62,51.73 -21.77,114.19 -11.46,63.44 -25.78,151.27 -45.68,265.46 -4.75,27.34 -9.5,54.68 -15.72,83 -6.3,29.22 -11.46,57.54 -14.65,85.87 -6.22,19.56 -6.55,41.99 -1.96,67.37 5.57,25.38 13.51,55.58 23.08,89.8 -21.86,38.06 -30.94,130.72 -26.85,277.08 3.03,146.44 18.91,344.53 45.68,594.36 22.51,207.91 43.63,389.47 62.21,545.57 18.5,156.18 37.9,285.02 56.64,385.54 10.15,53.7 22.1,111.24 36.67,172.72 14.16,62.54 28.73,126.88 43.71,193.26 -30.29,40.03 -57.46,76.13 -83.33,108.3 -6.47,26.44 -8.76,45.92 -6.63,57.63 16.62,30.29 37.41,69.25 62.21,117.14 25.05,46.82 54.76,100.52 88.49,160.03 30.78,16.62 63.68,36.1 99.05,56.64 16.13,38.06 29.96,71.21 39.21,100.44 29.55,20.55 58.77,36.18 86.6,46.9 27.75,10.72 55.5,15.63 81.86,15.63 47.8,0 98.88,-22.43 154.46,-68.35 56.56,-45.84 92.09,-92.74 107.31,-140.55 10.23,-32.17 0.57,-72.2 -28.08,-120.08 -28.65,-47.72 -43.14,-78.99 -44.28,-93.64l18.09 -29.3 40.11 -37.08c23.08,-47.8 47.56,-90.7 72.61,-129.74 26.11,-39.05 54.93,-77.11 84.97,-113.21 52.14,-56.64 105.84,-126.88 158.64,-209.88 52.8,-82.92 108.38,-177.63 164.69,-284.04 25.7,-49.77 45.27,-89.71 59.43,-119.02 14.24,-29.3 23.41,-48.79 26.52,-58.53 12.2,-13.67 25.95,-32.25 43.47,-56.64 17.84,-25.38 37.57,-53.7 58.53,-85.87 30.04,-63.44 66.96,-142.51 111.73,-237.14 45.18,-95.69 95.36,-206.93 151.68,-334.79 4.99,-15.55 12.52,-33.15 24.23,-54.68 11.46,-20.46 26.69,-46.74 46.08,-77.03 20.79,-28.32 36.43,-52.72 46.08,-74.24 10.48,-20.46 18.66,-39.95 23.98,-56.56 15.8,-55.66 32.17,-110.26 49.03,-162.98 25.13,-41.99 37.08,-67.37 35.36,-74.16l13.34 -112.31c26.93,-26.28 52.8,-58.53 77.68,-96.59 24.8,-38.06 45.02,-82.92 61.47,-134.65 5.89,-18.58 8.84,-37.08 8.59,-54.68 0.41,-16.62 -1.15,-33.15 -4.26,-47.8 19.73,-31.27 36.26,-61.47 52.39,-93.72 15.8,-31.19 29.22,-64.42 40.76,-100.52 28.9,-29.3 51.57,-57.54 69.09,-84.88 16.45,-27.34 26.28,-51.73 27.26,-73.18l18.83 -114.19c16.78,-28.32 31.11,-51.73 43.22,-71.21 14.9,-114.19 26.6,-205.95 32.74,-274.3 7.2,-68.27 9.5,-112.22 7.94,-131.71 -7.2,-66.39 -31.11,-120.08 -69.66,-161.09 -39.7,-41.01 -96.02,-69.25 -169.11,-84.88 -20.46,-18.5 -38.88,-34.22 -55.99,-44.86 -15.8,-11.71 -32.5,-17.6 -50.01,-17.6 -20.55,0 -43.14,9.74 -68.19,30.29 -24.8,19.48 -48.79,48.79 -71.62,86.85 -20.05,32.17 -36.84,63.44 -48.79,94.63 -12.52,30.29 -22.18,57.63 -28.4,82.92 -14.57,70.31 -32.58,151.35 -54.02,243.03 -22.1,90.78 -48.95,193.26 -80.87,305.49 -0.49,13.67 1.56,35.2 5.81,64.42 3.44,29.3 2.78,52.72 -2.86,70.31 -5.89,18.5 -22.35,48.79 -48.46,90.7 -27.01,41.99 -43.79,73.26 -49.77,91.76 -3.68,11.71 -8.27,32.17 -14.32,63.44 -5.81,30.29 -18.25,87.83 -38.88,173.7 -20.79,43.96 -45.18,89.8 -72.12,137.68 -6.55,20.46 -14.57,54.6 -23.9,102.48 -9.41,47.8 -17.68,82.92 -25.13,106.33 -4.01,12.69 -9.5,23.41 -15.23,29.3 -6.06,6.79 -22.26,33.15 -48.62,78.99 -14.32,41.99 -34.46,89.8 -58.69,144.48 -23.98,53.7 -52.39,118.12 -86.11,193.26 -30.29,64.42 -67.78,145.38 -112.31,242.05 -45.76,97.57 -95.2,209.8 -149.63,337.66l-33.07 94.63c-4.09,12.69 -12.93,28.32 -26.6,46.9 -13.75,18.5 -31.43,37.08 -51.98,55.58 -28.24,51.73 -58.61,107.39 -90.94,166 -31.68,59.43 -64.67,120 -98.23,182.46 -10.72,21.45 -22.92,38.06 -35.12,48.79 -13.51,11.71 -26.11,17.6 -37.82,17.6 -27.59,-41.99 -47.07,-84.88 -58.45,-128.84 -10.07,-20.55 -20.05,-59.51 -29.63,-115.17 -9.25,-56.64 -18.17,-132.77 -26.03,-227.4 -0.74,-25.38 -5.98,-54.68 -13.67,-88.81 -8.59,-34.13 -17.68,-73.18 -28.08,-117.14 -13.18,-38.06 -25.29,-107.31 -35.85,-208.9 -11.87,-100.44 -21.94,-234.19 -32.74,-399.05 -6.88,-137.68 -12.85,-253.84 -17.35,-349.44 -4.99,-94.71 -7.04,-167.89 -5.16,-219.62l2.78 -54.6zm-2329.45 931.03c7.94,-7.94 15.96,-17.68 24.56,-30.78 7.94,-12.52 17.6,-26.77 29.06,-42.16l128.76 -87.75c15.96,-18.83 39.95,-42.81 72.36,-71.87 32.5,-28.98 72.36,-64.99 120.25,-106.58 5.73,-12.52 14.82,-26.77 27.91,-42.73 12.61,-15.96 27.91,-31.92 45.59,-47.89 15.39,-14.24 31.35,-27.91 46.74,-40.44 15.39,-13.1 30.2,-25.62 43.3,-37.65 16.53,-17.03 32.5,-33.56 47.31,-50.1 15.39,-16.53 30.2,-33.07 46.17,-48.46 17.68,-15.39 35.93,-27.91 54.76,-37.08 18.74,-8.51 39.86,-13.1 62.05,-13.1 24.47,0 42.81,2.86 55.91,9.17 12.52,6.3 19.32,14.82 20.46,25.62 -10.8,25.7 -22.84,51.32 -34.71,76.94l9.66 15.39c49.03,-19.4 87.18,-33.07 115.09,-42.16 27.99,-8.59 45.59,-13.1 53.62,-13.1 80.87,0 141.86,24.47 182.29,74.08 40.52,49.6 60.98,124.83 60.98,224.53 0,19.32 -2.21,41.58 -6.79,67.2 -4.58,25.13 -11.38,53.04 -21.69,83.25 -10.8,33.64 -22.76,60.98 -35.85,83.25 -12.52,22.76 -24.47,38.72 -35.93,48.38 4.58,12.52 9.66,22.26 15.39,28.49 5.08,5.73 12.52,9.17 21.69,9.17 8.51,0 17.68,-2.86 27.34,-8.59 9.66,-5.65 21.04,-13.67 34.13,-25.05 11.46,24.47 22.26,50.1 32.58,76.37 10.8,26.19 21.61,51.81 32.41,77.44 -19.89,17.68 -39.29,35.36 -58.12,52.47 -19.4,16.53 -39.29,33.07 -60.41,48.46 -25.62,21.69 -49.52,37.08 -72.36,46.17 -22.84,9.66 -45.02,14.24 -67.29,14.24 -25.62,0 -46.66,-5.65 -63.77,-18.25 -16.53,-12.52 -29.63,-29.63 -39.95,-52.39 -27.91,37 -61.56,71.21 -100.85,101.99 -39.37,30.78 -83.17,56.4 -130.48,76.37 -27.91,13.67 -53.62,23.9 -76.37,31.35 -22.84,7.37 -43.3,10.8 -62.13,10.8 -5.73,0 -16.53,2.29 -32.5,6.88 -16.53,4.5 -29.63,6.79 -39.37,6.79 -63.19,0 -120.82,-26.77 -171.49,-80.96 -51.32,-53.53 -76.94,-113.94 -76.94,-180.08 0,-26.77 6.22,-62.13 18.25,-106.58 12.52,-43.79 18.83,-69.5 18.83,-77.44 0,-8.02 -2.86,-14.24 -8.02,-19.4 -4.5,-4.58 -11.95,-7.45 -20.46,-7.45 -5.73,0 -18.83,8.51 -40.52,25.13 -21.04,16.53 -50.67,40.44 -89.47,71.79 -3.44,4.58 -7.37,11.38 -11.95,19.89 -4.58,9.17 -11.38,18.83 -21.69,30.2 -9.09,-25.62 -19.32,-51.24 -30.7,-77.44 -11.38,-26.28 -23.98,-51.9 -37.65,-76.37zm803.5 -302.62c-5.65,1.15 -13.59,6.79 -23.9,17.68 -10.8,10.23 -21.04,23.41 -30.78,39.29 -15.96,25.05 -33.56,53.04 -53.53,83.25 -12.61,13.67 -25.13,23.9 -39.29,30.7 -13.75,7.45 -29.71,12.61 -47.31,15.96 -11.38,1.23 -22.84,12.03 -35.36,32.5 -12.03,20.55 -23.9,50.75 -36.51,89.55 -11.95,34.71 -21.04,63.77 -26.77,88.32 -5.65,24.47 -7.94,44.94 -7.94,62.05 0,30.78 7.37,54.19 23.33,70.15 15.39,15.39 39.29,23.33 71.21,23.33 51.32,0 98.06,-14.24 141.37,-42.73 42.73,-28.49 82.67,-71.21 120.82,-127.61 17.68,-21.12 34.13,-41.09 49.6,-60.41 9.09,-6.3 16.45,-17.11 21.61,-32.5 5.73,-14.82 11.46,-33.64 17.11,-55.91l29.63 -95.12c-9.66,-33.07 -19.32,-59.92 -27.91,-79.24 -9.09,-19.4 -18.25,-31.35 -26.77,-35.85 -5.73,-3.52 -17.68,-6.88 -37.08,-10.89 -18.83,-4.01 -46.17,-7.94 -81.53,-12.52zm-1758.67 302.62l10.31 -11.38 4.5 -17.11c30.2,-41.09 83.25,-94.63 159.05,-160.76 75.8,-66.06 127.61,-119.67 156.67,-160.68 11.46,-17.68 23.98,-30.78 38.8,-38.72 14.24,-7.45 28.49,-11.38 43.3,-11.38 38.72,0 71.79,9.66 98.55,28.98 26.85,19.4 44.45,49.03 52.96,87.83 8.02,34.71 15.47,69.5 21.69,104.28 6.88,35.36 12.61,70.64 17.11,106 7.37,22.18 17.11,55.83 27.91,100.85 11.38,45.02 19.4,70.64 25.13,77.52 5.08,10.8 13.67,18.83 24.47,23.9 11.38,5.16 25.05,7.45 41.58,7.45 19.97,0 40.52,-3.44 61.56,-10.8 20.55,-6.88 42.16,-19.4 64.42,-37.65 16.53,-14.24 34.22,-29.06 52.39,-43.87 18.25,-15.39 35.93,-30.2 53.62,-44.45l68.35 153.81c-17.68,17.68 -41.58,38.23 -70.64,60.98 -29.63,22.84 -64.99,49.6 -106,79.81 -45.59,33.07 -84.31,58.2 -116.24,74.08 -32.5,16.53 -56.4,24.56 -73.51,24.56 -100.93,0 -166.41,-11.95 -196.62,-35.36 -29.63,-23.41 -63.27,-88.32 -99.78,-194.9 -4.58,-9.66 -10.8,-19.97 -19.89,-32.5 -8.59,-11.95 -18.83,-26.77 -29.63,-43.3 -13.75,-25.7 -25.13,-45.02 -35.36,-57.54 -9.66,-13.1 -18.25,-19.4 -25.05,-19.4 -17.68,0 -41.66,12.03 -71.3,35.93 -30.2,23.9 -66.63,59.84 -109.93,107.64l-8.19 -20.46 7.61 20.46c-5.73,3.44 -17.68,14.82 -35.93,34.22 -18.25,19.4 -42.73,47.31 -72.36,82.67 -17.68,21.12 -39.86,36.43 -66.06,46.08 -26.28,9.17 -58.2,14.32 -95.77,14.32 -83.82,0 -151.6,-22.26 -203.49,-65.57 -52.39,-43.3 -88.9,-108.3 -109.93,-194.9 -4.58,-17.68 -8.59,-33.07 -11.95,-46.17 -3.44,-13.67 -6.88,-25.62 -10.31,-36.51 -7.37,-21.04 -21.04,-43.79 -39.86,-68.35 -7.45,11.38 -13.67,19.4 -18.25,25.05 -13.1,9.17 -27.91,21.69 -44.45,38.23 -15.96,17.11 -32.5,38.23 -49.03,63.85 -3.44,10.8 -9.66,24.47 -18.17,40.44 -9.17,16.53 -21.12,35.36 -37.08,57.54 -35.36,41.58 -71.21,82.59 -108.3,124.83 -36.43,41.58 -73.51,82.59 -109.93,122.54 -50.18,55.83 -96.34,96.34 -138.5,122.46 -42.24,26.28 -78.66,39.37 -110.01,39.37 -55.83,0 -96.92,-13.1 -123.68,-39.37 -26.77,-26.11 -39.95,-67.2 -39.95,-123.03 0,-25.7 9.74,-61.56 29.14,-107.72 19.4,-46.74 29.06,-80.96 29.06,-103.14l-10.31 -26.85 -68.35 -153.81 10.31 -11.38 4.5 -16.53c20.55,-24.47 37.57,-43.3 52.47,-57.63 14.24,-13.67 25.62,-24.47 32.99,-31.84 5.73,-5.73 18.25,-13.1 37.08,-21.69 19.4,-9.09 45.02,-19.97 76.94,-32.99l22.26 -13.75c7.37,-11.95 21.61,-29.63 41.58,-52.96 19.89,-23.41 44.45,-50.18 71.79,-80.38 5.65,-6.88 14.24,-13.67 25.05,-21.69 11.46,-7.94 22.84,-17.6 35.36,-30.2 26.77,-25.62 53.53,-51.81 79.81,-79.15 26.77,-27.42 51.81,-54.19 75.23,-80.96 10.23,-9.66 30.7,-27.91 62.13,-54.11 30.7,-26.28 73.51,-62.7 126.47,-109.44 7.94,-5.73 21.69,-13.67 42.16,-23.98 19.97,-10.8 46.17,-23.33 78.09,-37.57 14.82,-6.88 25.62,-17.68 32.5,-32.5 7.37,-15.39 10.8,-34.13 10.8,-57.54 9.09,-14.82 17.68,-32.41 26.19,-52.96 8.59,-20.55 16.53,-45.02 23.98,-72.44 11.38,-34.71 19.97,-62.7 26.19,-84.31 6.3,-22.18 10.8,-36.43 14.24,-44.45 18.83,-50.18 44.45,-108.87 76.37,-176.15 32.5,-67.78 70.72,-144.72 115.66,-231.9 22.26,-45.59 48.46,-96.34 78.09,-151.6 18.83,-27.91 40.44,-49.03 63.85,-62.7 23.33,-14.24 47.89,-21.12 72.93,-21.12 20.55,0 35.36,8.02 44.45,23.41 9.74,15.39 14.24,38.23 14.24,68.43 0,47.89 -3.44,93.4 -10.23,137.35 -6.3,43.22 -18.83,83.74 -36.51,121.88 -3.36,7.45 -6.22,19.4 -8.51,34.79 -2.29,15.39 -4.58,34.79 -6.88,56.97 -1.06,15.39 -5.16,30.2 -12.52,45.02 -7.37,14.24 -16.53,27.99 -27.34,39.86 0,8.02 -1.15,17.19 -3.44,27.99 -2.29,10.23 -4.58,22.76 -6.79,37.57l-23.41 29.63c-2.29,6.88 -3.44,14.82 -3.44,24.47 0,9.17 0,18.83 0,29.14 0,6.88 -3.93,19.89 -11.95,39.29 -7.37,19.4 -19.32,47.31 -34.71,82.67 -18.25,38.14 -32.5,67.78 -42.81,89.96 -10.8,22.26 -16.45,36.51 -17.68,42.24 -4.5,5.16 -10.23,14.24 -17.6,26.77 -7.45,11.95 -15.96,25.7 -25.62,41.66l4.5 36.43 -107.15 384.07c0,42.24 0.57,78.09 1.72,108.3 1.15,29.63 4.58,53.62 10.23,71.3 5.16,18.74 14.24,42.07 27.34,68.92 12.61,27.34 29.14,56.4 48.54,87.75 12.52,21.04 26.69,36.51 43.3,45.59 16.45,9.74 34.13,14.24 52.96,14.24 21.04,0 42.16,-5.73 63.85,-17.68 21.61,-11.38 43.3,-29.63 65.48,-54.11 13.75,29.06 26.85,56.4 38.8,82.02 4.5,10.07 9.17,20.22 13.34,30.04l-4.26 -10.07c-8.51,-19.97 -17.68,-43.3 -26.77,-70.07 -2.29,-6.88 -5.16,-13.1 -8.59,-18.83 -3.36,-5.08 -7.37,-9.66 -11.95,-13.1zm695.86 -1316.49c27.91,0 48.46,5.73 60.98,16.53 13.1,11.46 19.32,27.42 19.32,48.46 -6.79,31.35 -12.52,57.54 -16.45,78.58 -11.38,39.95 -21.12,73.02 -29.71,98.64 -7.94,25.62 -14.24,43.96 -18.74,55.33 -10.23,23.9 -23.9,45.51 -41.01,63.77 -17.11,18.25 -38.23,34.79 -62.7,49.6 -25.7,17.68 -46.74,30.2 -64.42,37.57 -17.11,6.88 -29.06,10.31 -35.85,9.17 -18.83,-2.29 -37.08,-4.58 -54.19,-6.3 -17.11,-1.15 -34.22,-2.21 -50.67,-2.21 -14.82,-8.02 -26.28,-22.84 -34.22,-45.02 -8.59,-22.26 -12.52,-52.47 -12.52,-90.12 0,-33.56 19.89,-75.72 60.98,-125.89 40.44,-50.75 76.37,-78.09 107.64,-81.53 18.83,-23.33 41.09,-49.6 66.71,-79.81 10.8,-7.94 25.62,-14.24 43.3,-19.32 17.68,-5.16 38.14,-7.45 61.56,-7.45zm-1251.49 840.58c0,-5.65 -2.21,-14.24 -6.79,-25.05 -16.53,16.53 -37.08,35.93 -61.56,58.69 -24.47,22.18 -53.04,46.17 -86.6,72.93 -8.02,18.25 -25.7,46.17 -53.04,84.39 -27.91,38.72 -66.63,86.03 -116.81,143.08 -14.82,16.45 -34.22,44.94 -58.69,86.03 -23.9,40.44 -54.11,89.96 -89.47,149.22 -12.52,23.41 -25.05,51.32 -38.8,84.97 0,6.88 4.58,13.67 13.75,21.61 32.99,-9.66 74,-39.29 122.46,-87.75 47.89,-48.38 105.51,-115.09 172.14,-201.12 68.92,-91.19 120.25,-168.7 153.32,-232.55 33.64,-63.85 50.1,-115.66 50.1,-154.46zm-2229.43 475.91c4.58,-3.44 7.94,-7.45 10.8,-11.38 2.86,-4.58 4.58,-10.31 4.58,-16.53 18.83,-15.39 40.44,-37.08 64.42,-63.85 24.47,-27.34 51.81,-58.69 82.02,-95.2 24.47,-33.64 49.6,-66.63 75.8,-100.27 26.28,-33.64 54.11,-66.63 84.31,-100.27 24.56,-33.64 48.54,-68.43 72.44,-104.37 23.98,-36.43 49.6,-71.79 76.37,-105.92 44.45,-21.69 78.66,-36.51 103.14,-45.68 24.47,-8.51 41.01,-13.1 50.18,-13.1 16.53,0 29.55,5.16 38.72,15.96 8.51,10.31 13.1,25.7 13.1,45.68 0,6.79 -1.72,16.45 -5.08,28.4 -3.44,12.52 -6.88,25.7 -11.46,40.52 -7.94,22.18 -17.11,45.02 -26.77,68.35 -9.17,38.8 -19.4,78.09 -31.92,116.81 -11.95,39.37 -23.9,77.52 -34.79,115.74 -11.38,47.89 -19.89,91.76 -26.19,131.62 -6.22,40.44 -9.09,76.94 -9.09,110.51 0,62.13 2.86,108.3 9.09,138.5 6.3,30.2 14.82,43.3 26.19,39.95 10.89,-6.3 24.56,-14.24 41.58,-23.98 16.62,-9.66 36.02,-20.46 58.2,-32.41 19.89,-21.12 42.73,-47.31 67.78,-78.66 25.13,-31.35 55.33,-67.86 90.61,-110.59 20.55,-30.78 41.09,-61.47 62.13,-91.68 7.45,-8.59 16.53,-19.4 27.34,-31.92 10.89,-12.03 20.55,-24.56 29.06,-36.51 21.12,-53.62 45.1,-93.48 71.3,-119.67 26.19,-26.28 55.25,-39.37 87.18,-39.37 29.06,0 52.47,4.01 69.5,10.89 17.11,7.37 29.06,18.17 35.93,33.07 3.44,7.37 6.3,21.04 8.02,39.86 2.21,18.74 3.36,43.87 3.36,75.23 0,11.95 2.86,30.2 7.45,53.53 5.16,23.41 7.94,40.52 7.94,51.9 0,41.01 6.88,71.79 21.69,92.33 14.24,21.04 36.43,31.35 66.63,31.35 8.51,0 18.83,-2.29 30.78,-5.73 12.03,-4.01 23.9,-7.94 35.93,-13.1l68.43 153.81c-66.71,40.52 -121.39,71.3 -164.2,92.33 -43.3,21.12 -75.23,31.43 -96.34,31.43 -55.17,0 -100.85,-14.24 -136.7,-43.38 -35.36,-29.06 -61.56,-71.79 -78.09,-128.76 -2.29,-13.1 -7.45,-26.77 -14.24,-39.86 -7.45,-13.75 -16.53,-26.85 -27.99,-40.52 -9.66,11.38 -21.04,24.56 -34.13,40.52 -12.52,15.31 -26.28,30.7 -40.44,46.66 -30.2,36.51 -60.41,72.36 -90.61,107.72 -29.63,35.36 -60.41,70.15 -91.76,104.28 -38.72,45.59 -78.09,79.24 -117.38,99.78 -39.37,20.46 -76.37,30.78 -111.16,30.78 -50.75,0 -92.33,-15.47 -123.11,-46.17 -31.35,-30.2 -51.32,-75.88 -60.41,-136.21 -9.66,-57.63 -16.53,-102.65 -19.97,-135.06 -3.36,-32.5 -3.93,-51.9 -1.72,-58.69 -2.21,-32.5 -5.08,-57.05 -9.09,-73.51 -4.01,-16.53 -9.66,-25.13 -17.68,-25.13l-9.66 5.16 -95.12 97.41c-3.44,8.02 -9.17,17.68 -16.62,29.14 -7.94,11.38 -18.74,25.62 -31.92,42.07 -4.5,-16.45 -12.52,-37.57 -23.9,-62.05l-7.37 -15.63 5.08 11.62c10.89,25.05 18.83,47.31 24.47,66.06 -25.62,23.41 -50.67,47.89 -75.72,73.02 -25.13,25.62 -51.32,49.6 -79.24,71.79 -33.64,25.62 -65.57,45.02 -96.92,58.12 -30.78,13.1 -62.13,19.4 -93.4,19.4 -71.87,0 -127.7,-20.55 -166.49,-61.56 -38.72,-41.58 -61.47,-103.71 -68.35,-187.53 0,-9.66 -1.72,-19.89 -4.01,-30.78 -2.86,-10.23 -9.09,-21.04 -17.68,-32.41 -5.65,5.65 -11.95,11.38 -18.17,17.68 -6.88,6.22 -14.9,14.24 -23.41,23.9 -14.82,11.38 -33.07,25.05 -54.68,42.16 -21.69,16.53 -46.74,36.51 -75.8,59.84 -39.37,39.95 -71.79,72.93 -98.64,98.64 -26.77,25.62 -46.17,43.87 -56.97,55.25 -22.18,18.83 -48.46,37.65 -78.01,56.4 -29.14,18.83 -62.78,38.23 -99.21,58.69 -23.33,12.03 -43.3,21.69 -60.41,29.06 -16.53,7.45 -29.06,10.8 -36.43,10.8 -53.62,0 -93.48,-13.1 -119.18,-39.29 -25.62,-26.19 -38.14,-66.63 -38.14,-121.97 0,-30.2 6.79,-58.69 19.97,-86.03 13.1,-27.34 32.41,-54.19 58.61,-79.81 2.37,-14.82 3.44,-26.19 3.44,-35.36 0,-5.65 -1.06,-11.38 -3.93,-17.03 -2.86,-6.3 -6.88,-13.18 -10.89,-20.55 -6.79,-15.96 -14.24,-33.64 -22.76,-53.04 -7.94,-19.89 -17.11,-40.93 -27.34,-63.19 4.58,-4.58 10.8,-13.1 19.4,-25.62 7.94,-12.52 17.6,-28.49 28.98,-46.82l151.6 -99.13c5.73,-5.65 12.03,-13.1 19.97,-22.76 8.02,-9.17 16.53,-22.84 26.77,-40.52 8.02,-14.82 18.25,-26.69 30.78,-37 12.61,-9.74 27.42,-18.83 44.53,-26.77 8.51,-10.8 21.61,-25.05 38.14,-41.66 16.53,-16.45 37.57,-35.85 63.19,-58.12 12.61,-6.79 27.99,-16.53 46.82,-29.63 18.74,-12.52 39.29,-29.63 61.47,-50.67 101.5,-95.77 189.82,-167.56 266.2,-215.44 76.37,-47.89 140.14,-71.79 192.61,-71.79 29.06,0 50.1,6.22 63.85,18.25 14.24,12.52 21.04,29.55 21.04,51.81 0,23.33 -3.93,43.87 -12.52,61.56 -8.51,18.25 -21.04,33.07 -39.29,45.02 -27.42,20.55 -57.63,42.73 -90.04,67.2 -17.68,23.41 -39.37,47.89 -64.99,74.16 -25.7,26.19 -55.25,51.81 -90.04,77.44 -10.8,14.9 -20.55,27.42 -27.91,38.8 -5.73,5.16 -16.53,15.39 -31.92,29.63 -15.39,14.82 -35.85,31.35 -61.56,50.18 -11.38,24.47 -35.28,56.4 -72.93,95.12 -37,39.37 -86.6,86.03 -148.73,140.22 -7.94,7.94 -21.69,25.62 -42.24,53.53 -19.89,27.91 -46.17,64.42 -78.09,110.59l11.46 14.82c24.56,-7.94 50.18,-21.12 76.94,-39.86 26.77,-19.4 56.4,-44.45 88.9,-75.31 37.57,-34.71 68.35,-62.62 92.33,-84.31 23.9,-21.61 41.01,-35.85 51.24,-42.73 7.45,-4.5 15.39,-9.09 22.84,-13.1 8.02,-4.58 17.11,-10.23 26.77,-17.11 51.32,-60.98 99.21,-106.58 143,-135.64 44.53,-29.63 85.54,-44.45 123.77,-44.45 23.33,0 41.01,9.17 52.96,27.34 12.52,18.25 19.32,46.17 21.69,82.67 -2.37,55.83 -3.44,109.36 -3.44,160.11 -1.15,35.93 8.51,67.86 29.06,96.34 20.55,28.49 47.23,42.73 80.3,42.73 10.31,0 19.97,-2.86 29.06,-8.51 9.74,-5.73 19.4,-13.1 29.14,-22.26 7.94,-10.23 15.31,-19.97 22.18,-29.06 7.37,-9.17 14.82,-17.68 22.18,-26.77 4.58,-2.29 10.89,-6.3 19.4,-11.95 7.61,-5.48 15.23,-11.87 22.84,-19.4l-0.57 -1.15zm-1429.29 -1307.89l-11.38 -6.88c-62.13,59.84 -109.44,116.89 -140.79,170.42 -31.92,52.96 -47.31,104.86 -47.31,154.95 0,7.45 -3.93,20.55 -10.8,39.37 -7.37,18.25 -18.25,41.58 -32.5,70.64 -18.17,34.22 -36.51,72.44 -55.25,113.45 -21.12,62.05 -37.08,112.8 -48.46,151.6 -10.89,39.29 -16.53,66.63 -16.53,83.74l10.23 13.1c9.74,-1.15 22.26,-10.8 36.51,-30.2 14.24,-18.83 31.35,-46.74 50.1,-83.17 8.59,-19.97 21.69,-43.3 38.23,-70.15 16.53,-26.77 35.36,-58.04 56.48,-95.12 17.6,-24.56 46.17,-87.18 84.88,-188.1 38.72,-101.42 60.41,-165.84 63.27,-193.75 1.06,-22.26 4.5,-44.45 9.09,-66.06 5.16,-21.69 9.66,-42.81 14.24,-63.85z"/>
  </g>
 </g>
</svg>
