<?xml version="1.0" encoding="UTF-8"?>
<!DOCTYPE svg PUBLIC "-//W3C//DTD SVG 1.1//EN" "http://www.w3.org/Graphics/SVG/1.1/DTD/svg11.dtd">
<!-- Creator: CorelDRAW 2020 (64-Bit) -->
<svg xmlns="http://www.w3.org/2000/svg" xml:space="preserve" width="59.1177mm" height="4.4933mm" version="1.1" style="shape-rendering:geometricPrecision; text-rendering:geometricPrecision; image-rendering:optimizeQuality; fill-rule:evenodd; clip-rule:evenodd"
viewBox="0 0 4202.04 319.38"
 xmlns:xlink="http://www.w3.org/1999/xlink"
 xmlns:xodm="http://www.corel.com/coreldraw/odm/2003">
 <defs>
  <style type="text/css">
   <![CDATA[
    .fil0 {fill:white;fill-rule:nonzero}
   ]]>
  </style>
 </defs>
 <g id="Capa_x0020_1">
  <metadata id="CorelCorpID_0Corel-Layer"/>
  <path class="fil0" d="M136.98 222.58l-2.32 9.45c-7.56,1.57 -13.82,2.36 -18.62,2.36 -4.63,0 -12.3,-0.45 -22.97,-1.41 -8.07,-0.62 -15.3,-0.95 -21.67,-0.95 -11,0 -22.35,1.01 -34.03,3.04l2.32 -9.11c11.12,-1.12 19.24,-3.43 24.32,-6.92 3.61,-2.53 6.72,-6.85 9.31,-12.93 2.59,-6.07 8.47,-27.37 17.61,-63.79l21.1 -87.29 1.18 -4.1c-6.48,-0.23 -11.39,-0.33 -14.67,-0.33 -20.37,0 -36.51,2.19 -48.43,6.57 -11.96,4.39 -20.93,10.73 -26.92,19.05 -5.98,8.38 -8.97,17.37 -8.97,26.98 0,3.43 0.62,6.53 1.81,9.39 0.85,1.97 3.28,5.17 7.16,9.55 3.72,4.05 5.59,7.75 5.59,11.19 0,2.92 -1.13,5.45 -3.33,7.53 -2.2,2.08 -4.85,3.15 -7.9,3.15 -4.63,0 -8.42,-2.19 -11.29,-6.57 -4.17,-6.46 -6.27,-14.73 -6.27,-24.67 0,-13.43 4.18,-26.42 12.48,-39.01 8.29,-12.65 19.75,-22.43 34.31,-29.34 14.51,-6.92 32.23,-10.34 53.05,-10.34 9.87,0 25.67,1.46 47.41,4.38 15.41,2.03 26.58,3.04 33.52,3.04 6.94,0 11.86,-1.12 14.73,-3.43 2.87,-2.3 4.29,-5.39 4.29,-9.22 0,-0.79 -0.17,-2.3 -0.5,-4.61 -0.34,-2.08 -0.51,-3.43 -0.51,-4.11 0,-2.98 1.02,-5.39 2.99,-7.36 2.03,-1.97 4.41,-2.99 7.16,-2.99 3.33,0 6.1,1.18 8.25,3.6 2.2,2.42 3.27,5.67 3.27,9.72 0,8.32 -4.46,15.45 -13.43,21.47 -8.91,6.02 -23.87,9.06 -44.87,9.06 -7.51,0 -15.52,-0.34 -24.04,-1.02 -1.07,3.94 -4.58,17.37 -10.38,40.19l-14.4 57 -8.74 34.79 -9.09 39.68c7.39,0.68 13.55,1.01 18.35,1.01 7.39,0 15.13,-0.9 23.14,-2.7z"/>
  <path id="1" class="fil0" d="M202.11 232.03l-24.66 0 11.57 -44.29c5.64,-21.76 10.56,-42.38 14.73,-61.95 0.97,-4.83 1.47,-7.81 1.47,-9.05 0,-2.53 -1.19,-3.77 -3.61,-3.77 -1.7,0 -4.23,1.12 -7.62,3.38 -3.44,2.3 -9.65,7.93 -18.57,16.86l-5.08 -5.74c10.61,-11.35 21.22,-19.9 31.83,-25.57 10.55,-5.67 18.68,-8.49 24.32,-8.49 1.98,0 3.55,0.45 4.68,1.35 1.19,0.9 1.75,2.03 1.75,3.38 0,1.46 -0.73,5.22 -2.2,11.41l-7.22 29.62c11.12,-17.42 23.64,-32.26 37.64,-44.63 6.72,-5.9 12.3,-8.88 16.82,-8.88 3.33,0 6.09,1.07 8.29,3.21 2.2,2.13 3.28,4.61 3.28,7.47 0,2.99 -1.07,5.46 -3.22,7.53 -2.15,2.08 -7.51,4.56 -16.09,7.42 -8.18,2.75 -14.78,6.07 -19.92,9.89 -5.14,3.87 -10.72,9.78 -16.87,17.71 -6.09,7.93 -10.38,14.78 -12.81,20.63 -2.43,5.84 -6.1,19.45 -11.06,40.69l-7.46 31.82z"/>
  <path id="2" class="fil0" d="M385.65 90.67l11.06 -2.25 -12.36 41.65c-4.91,16.58 -9.6,35.7 -14,57.33 -2.42,11.75 -3.61,19.33 -3.61,22.71 0,3.37 1.36,5.06 4.12,5.06 1.69,0 4.52,-1.13 8.29,-3.38 6.77,-3.99 13.27,-8.93 19.48,-14.83l5.3 6.4c-12.53,11.29 -20.54,18.15 -24.1,20.51 -7.05,4.78 -13.7,8.32 -20.09,10.57 -4.24,1.52 -8.29,2.3 -12.25,2.3 -2.82,0 -4.97,-0.68 -6.43,-1.97 -1.41,-1.29 -2.15,-3.26 -2.15,-5.73 0,-1.63 0.45,-3.88 1.36,-6.75l6.6 -22.15c-9.47,11.3 -20.82,20.97 -33.91,29.06 -8.02,5 -15.41,7.53 -22.13,7.53 -6.43,0 -11.29,-2.25 -14.73,-6.75 -4.63,-6.07 -6.94,-14 -6.94,-23.78 0,-11.64 3.11,-24.61 9.31,-38.89 6.27,-14.28 14.56,-27.26 25.06,-38.89 10.44,-11.64 21.44,-20.24 33.02,-25.74 8.91,-4.16 20.37,-6.24 34.37,-6.24 3.55,0 7.11,0.23 10.72,0.68l4.02 -6.46zm-20.49 25.46c-5.92,-1.18 -10.95,-1.8 -15.01,-1.8 -9.87,0 -18.51,2.7 -25.91,8.15 -7.39,5.45 -14.22,15.23 -20.53,29.34 -6.33,14.1 -9.49,28.21 -9.49,42.26 0,7.48 1.24,12.82 3.78,16.13 2.54,3.31 5.87,4.95 9.94,4.95 7.56,0 15.69,-4.11 24.38,-12.25 8.69,-8.21 15.07,-20.01 19.13,-35.35l13.71 -51.43z"/>
  <path id="3" class="fil0" d="M465.28 122.43c8.92,-9.78 17.73,-16.97 26.42,-21.53 8.64,-4.56 16.25,-6.8 22.92,-6.8 7.67,0 13.88,3.09 18.5,9.22 4.63,6.13 6.94,15.4 6.94,27.82 0,17.99 -4.23,35.58 -12.69,52.78 -8.52,17.26 -18.96,30.35 -31.5,39.34 -12.47,9 -24.66,13.49 -36.57,13.49 -10.11,0 -18.22,-2.98 -24.27,-8.88 -6.03,-5.91 -9.08,-13.6 -9.08,-23.04 0,-7.59 1.47,-18.1 4.46,-31.59l19.35 -87.06c4.75,-21.36 10.68,-37.6 17.84,-48.79 7.17,-11.13 16.53,-20.07 28.22,-26.7 11.69,-6.69 22.75,-10.01 33.19,-10.01 6.27,0 10.89,1.07 13.78,3.26 2.94,2.14 4.39,5.06 4.39,8.71 0,3.31 -1.29,6.07 -3.94,8.32 -2.65,2.19 -6.38,3.32 -11.23,3.32 -3.61,0 -9.88,-0.85 -18.74,-2.53 -3.95,-0.79 -7.51,-1.18 -10.56,-1.18 -5.53,0 -9.94,2.98 -13.38,8.93 -2.48,4.61 -5.98,16.3 -10.38,35.13l-13.66 57.79zm32.57 -10.46c-5.36,0 -11.8,3.26 -19.19,9.72 -7.39,6.52 -14.39,17.98 -20.99,34.51 -6.61,16.47 -9.88,32.6 -9.88,48.51 0,5.9 1.86,10.9 5.64,14.89 3.78,3.99 8.24,6.02 13.26,6.02 12.19,0 23.08,-9.67 32.62,-29.01 9.54,-19.33 14.34,-38.56 14.34,-57.72 0,-8.71 -1.81,-15.79 -5.42,-21.3 -2.54,-3.77 -5.98,-5.62 -10.38,-5.62z"/>
  <path id="4" class="fil0" d="M670.11 90.67l11.06 -2.25 -12.36 41.65c-4.91,16.58 -9.59,35.7 -14,57.33 -2.42,11.75 -3.61,19.33 -3.61,22.71 0,3.37 1.36,5.06 4.12,5.06 1.69,0 4.52,-1.13 8.29,-3.38 6.77,-3.99 13.27,-8.93 19.48,-14.83l5.3 6.4c-12.53,11.29 -20.53,18.15 -24.1,20.51 -7.05,4.78 -13.71,8.32 -20.09,10.57 -4.23,1.52 -8.29,2.3 -12.25,2.3 -2.82,0 -4.97,-0.68 -6.43,-1.97 -1.41,-1.29 -2.15,-3.26 -2.15,-5.73 0,-1.63 0.45,-3.88 1.36,-6.75l6.6 -22.15c-9.48,11.3 -20.83,20.97 -33.92,29.06 -8.01,5 -15.41,7.53 -22.12,7.53 -6.44,0 -11.29,-2.25 -14.73,-6.75 -4.63,-6.07 -6.94,-14 -6.94,-23.78 0,-11.64 3.11,-24.61 9.31,-38.89 6.27,-14.28 14.56,-27.26 25.06,-38.89 10.44,-11.64 21.44,-20.24 33.02,-25.74 8.91,-4.16 20.37,-6.24 34.37,-6.24 3.56,0 7.12,0.23 10.73,0.68l4.01 -6.46zm-20.49 25.46c-5.92,-1.18 -10.95,-1.8 -15,-1.8 -9.88,0 -18.52,2.7 -25.91,8.15 -7.4,5.45 -14.22,15.23 -20.54,29.34 -6.33,14.1 -9.49,28.21 -9.49,42.26 0,7.48 1.24,12.82 3.79,16.13 2.54,3.31 5.86,4.95 9.93,4.95 7.56,0 15.69,-4.11 24.38,-12.25 8.69,-8.21 15.07,-20.01 19.13,-35.35l13.71 -51.43z"/>
  <path id="5" class="fil0" d="M771.52 22.6c3.39,0 6.21,1.13 8.42,3.32 2.2,2.25 3.27,5.12 3.27,8.6 0,4.78 -1.69,8.99 -5.02,12.64 -3.33,3.65 -7,5.45 -11.06,5.45 -3.39,0 -6.21,-1.12 -8.42,-3.43 -2.2,-2.3 -3.27,-5.29 -3.27,-8.99 0,-4.89 1.63,-9.06 4.85,-12.48 3.22,-3.43 6.99,-5.12 11.22,-5.12zm-65.52 110.62l-6.43 -7.08c9.37,-10.12 19.53,-18.21 30.36,-24.29 10.9,-6.07 19.25,-9.11 25.12,-9.11 2.42,0 4.46,0.73 6.04,2.2 1.58,1.51 2.37,3.37 2.37,5.67 0,2.87 -1.75,10.68 -5.31,23.44l-28.61 104.1c-9.59,35.25 -20.15,59.13 -31.72,71.56 -11.57,12.42 -25.12,18.66 -40.7,18.66 -7.67,0 -13.59,-1.46 -17.72,-4.32 -4.12,-2.87 -6.21,-6.13 -6.21,-9.84 0,-2.59 0.96,-4.83 2.88,-6.69 1.92,-1.86 4.29,-2.76 7.05,-2.76 3.05,0 7.46,1.41 13.21,4.21 6.6,3.26 11.69,4.89 15.18,4.89 5.98,0 10.72,-2.75 14.39,-8.2 3.61,-5.39 9.08,-22.71 16.37,-51.99 7.45,-30.02 13.77,-54.47 18.96,-73.24l11.57 -41.54c2.2,-6.75 3.33,-10.96 3.33,-12.59 0,-0.9 -0.39,-1.68 -1.07,-2.3 -0.73,-0.68 -1.47,-1.02 -2.25,-1.02 -4.29,0 -13.21,6.75 -26.81,20.24z"/>
  <path id="6" class="fil0" d="M886.88 90.67l11.07 -2.25 -12.36 41.65c-4.91,16.58 -9.6,35.7 -14,57.33 -2.43,11.75 -3.62,19.33 -3.62,22.71 0,3.37 1.36,5.06 4.12,5.06 1.69,0 4.51,-1.13 8.29,-3.38 6.77,-3.99 13.26,-8.93 19.48,-14.83l5.3 6.4c-12.53,11.29 -20.54,18.15 -24.1,20.51 -7.05,4.78 -13.71,8.32 -20.09,10.57 -4.23,1.52 -8.29,2.3 -12.25,2.3 -2.81,0 -4.96,-0.68 -6.43,-1.97 -1.41,-1.29 -2.15,-3.26 -2.15,-5.73 0,-1.63 0.45,-3.88 1.36,-6.75l6.6 -22.15c-9.47,11.3 -20.83,20.97 -33.91,29.06 -8.02,5 -15.41,7.53 -22.13,7.53 -6.44,0 -11.29,-2.25 -14.73,-6.75 -4.63,-6.07 -6.94,-14 -6.94,-23.78 0,-11.64 3.11,-24.61 9.32,-38.89 6.26,-14.28 14.56,-27.26 25.06,-38.89 10.44,-11.64 21.44,-20.24 33.02,-25.74 8.91,-4.16 20.38,-6.24 34.37,-6.24 3.55,0 7.11,0.23 10.72,0.68l4.01 -6.46zm-20.49 25.46c-5.93,-1.18 -10.95,-1.8 -15.01,-1.8 -9.88,0 -18.52,2.7 -25.91,8.15 -7.39,5.45 -14.22,15.23 -20.54,29.34 -6.32,14.1 -9.48,28.21 -9.48,42.26 0,7.48 1.24,12.82 3.78,16.13 2.54,3.31 5.86,4.95 9.94,4.95 7.56,0 15.69,-4.11 24.38,-12.25 8.69,-8.21 15.06,-20.01 19.13,-35.35l13.71 -51.43z"/>
  <path id="7" class="fil0" d="M921.09 132.54l-5.75 -5.73c14.22,-13.43 25.56,-22.38 34.03,-26.76 8.41,-4.44 15.64,-6.63 21.62,-6.63 2.37,0 4.17,0.5 5.53,1.46 1.29,0.95 1.98,2.08 1.98,3.43 0,0.96 -0.28,2.7 -0.8,5.17l-7.51 33.1c11.18,-12.42 25.23,-24 42.16,-34.79 8.98,-5.57 16.37,-8.38 22.18,-8.38 4.29,0 7.67,1.35 10.05,4.05 2.42,2.69 3.67,6.63 3.67,11.69 0,3.43 -0.51,7.26 -1.53,11.53 -1.75,7.14 -6.33,22.7 -13.77,46.65 -7,22.37 -10.5,37.27 -10.5,44.63 0,2.3 0.33,4.04 0.96,5.17 0.68,1.18 1.63,1.75 2.82,1.75 3.21,0 8.24,-3.09 15.07,-9.28 4.85,-4.44 9.7,-8.54 14.56,-12.31l3.72 6.07c-10.09,11.13 -20.53,20.07 -31.38,26.87 -6.94,4.33 -12.58,6.52 -17.09,6.52 -4.18,0 -7.4,-1.51 -9.71,-4.55 -2.31,-3.04 -3.44,-7.98 -3.44,-14.84 0,-9.78 6.16,-34.06 18.4,-72.96 3.78,-13.83 5.64,-21.86 5.64,-24.17 0,-3.26 -2.03,-4.89 -6.1,-4.89 -4.39,0 -10.09,2.31 -17.04,6.92 -10.38,6.8 -19.02,14.78 -25.96,24 -4.41,5.96 -8.13,15.4 -11.07,28.33l-13.43 57.45 -24.61 0c4.63,-16.47 8.64,-32.21 12.08,-47.22l14.68 -62.56c0.56,-2.47 0.85,-4.21 0.85,-5.28 0,-2.87 -1.12,-4.33 -3.33,-4.33 -1.81,0 -4.34,1.12 -7.67,3.43 -6.89,4.5 -13.33,10.01 -19.31,16.47z"/>
  <path id="8" class="fil0" d="M1199.11 197.63l4.74 6.41c-14.73,12.53 -25.68,20.8 -32.8,24.9 -9.92,5.68 -17.72,8.49 -23.41,8.49 -2.66,0 -4.8,-0.73 -6.44,-2.25 -1.63,-1.46 -2.48,-3.15 -2.48,-5.06 0,-1.86 0.62,-4.95 1.81,-9.28l5.81 -20.18c-13.26,14.34 -24.27,24 -33.13,29.12 -8.81,5.11 -16.76,7.64 -23.82,7.64 -5.81,0 -10.73,-2.59 -14.67,-7.7 -4.01,-5.12 -5.98,-12.64 -5.98,-22.54 0,-15.69 5.36,-33.67 16.13,-54.02 10.73,-20.34 22.69,-35.35 35.84,-45.14 13.21,-9.72 25.23,-14.61 36.18,-14.61 2.43,0 6.04,0.4 10.89,1.12 5.19,-21.36 10.1,-36.98 14.85,-46.76 4.74,-9.84 10.83,-18.27 18.35,-25.4 7.5,-7.14 16.02,-12.64 25.67,-16.53 9.65,-3.88 18.62,-5.85 26.98,-5.85 4.45,0 7.95,1.19 10.61,3.49 2.65,2.36 3.95,5.28 3.95,8.82 0,3.43 -1.24,6.24 -3.67,8.38 -2.42,2.19 -5.76,3.26 -9.99,3.26 -2.76,0 -7.95,-0.5 -15.47,-1.51 -7.56,-1.02 -12.69,-1.52 -15.52,-1.52 -3.84,0 -7.28,1.18 -10.21,3.48 -2.94,2.31 -5.76,7.31 -8.41,14.96 -1.75,4.95 -5.7,20.74 -11.91,47.32l-23.2 99.6c-2.71,11.75 -4.07,19.56 -4.07,23.44 0,4.1 1.63,6.13 4.8,6.13 2.03,0 4.35,-0.68 7,-2.03 3.67,-2.14 10.89,-7.53 21.56,-16.19zm-34.77 -85.04c-8.86,-1.97 -15.06,-2.98 -18.67,-2.98 -7.39,0 -14.62,2.92 -21.62,8.71 -7.05,5.79 -13.88,17.04 -20.42,33.73 -6.55,16.64 -9.82,31.2 -9.82,43.56 0,5.62 1.52,10.23 4.51,13.82 3.04,3.6 6.49,5.39 10.33,5.39 4.63,0 9.93,-2.02 15.86,-6.13 8.53,-6.07 15.24,-13.49 20.15,-22.2 2.99,-5.51 6.99,-19.06 12.08,-40.59l7.61 -33.33z"/>
  <path id="9" class="fil0" d="M1303.24 93.42c10.83,0 19.82,4.27 26.98,12.87 7.16,8.54 10.78,20.46 10.78,35.75 0,24.34 -8.64,46.26 -25.85,65.65 -17.21,19.39 -35.38,29.06 -54.62,29.06 -11.8,0 -21.34,-3.82 -28.57,-11.52 -7.22,-7.7 -10.83,-18.21 -10.83,-31.47 0,-23.04 6.6,-44.35 19.87,-63.91 16.65,-24.29 37.42,-36.43 62.25,-36.43zm-14.11 12.48c-9.37,0 -18.4,6.69 -27.15,20.01 -8.74,13.32 -13.09,31.76 -13.09,55.2 0,14.27 2.71,25.52 8.07,33.78 3.95,6.01 9.25,9.05 15.86,9.05 9.2,0 17.61,-5.73 25.22,-17.14 9.66,-14.78 14.51,-33.16 14.51,-55.14 0,-16.47 -2.21,-28.22 -6.66,-35.24 -4.46,-7.03 -10.05,-10.51 -16.77,-10.51z"/>
  <path id="10" class="fil0" d="M1433.45 134.4l-6.44 -6.57c10.05,-11.97 19.99,-20.8 29.86,-26.53 9.93,-5.67 18.51,-8.54 25.74,-8.54 2.76,0 4.91,0.68 6.55,2.08 1.58,1.35 2.37,3.37 2.37,6.01 0,3.21 -0.33,6.47 -1.07,9.84 -0.74,3.37 -2.94,11.35 -6.72,23.95 16.87,-16.81 28.38,-27.21 34.54,-31.14 10.38,-6.69 19.87,-10.06 28.45,-10.06 5.59,0 10.33,2.64 14.22,7.93 3.83,5.23 5.75,13.21 5.75,23.83 0,26.53 -8.29,51.77 -24.94,75.71 -16.65,23.89 -35.05,35.86 -55.26,35.86 -7.9,0 -15.86,-2.13 -23.75,-6.35l-14 54.3c-0.85,3.26 -1.3,5.96 -1.3,8.03 0,4.11 1.53,7.03 4.63,8.77 4.74,2.76 14.73,5 29.97,6.75l-2.14 8.1c-17.73,-1.35 -31.67,-2.03 -41.82,-2.03 -10.5,0 -24.04,0.68 -40.69,2.03l2.14 -8.1c8.36,-0.9 14.46,-3.21 18.23,-6.92 3.84,-3.76 6.89,-10.4 9.2,-19.95l29.86 -124.89c5.64,-23.27 8.47,-36.2 8.47,-38.84 0,-2.87 -1.41,-4.27 -4.12,-4.27 -4.85,0 -14.05,7.02 -27.71,21.02zm33.19 77.9c8.74,8.66 17.66,12.99 26.86,12.99 13.21,0 24.84,-10.29 34.82,-30.8 9.99,-20.52 15.01,-40.53 15.01,-60.03 0,-6.3 -1.41,-11.02 -4.23,-14.28 -2.82,-3.2 -6.6,-4.83 -11.34,-4.83 -5.3,0 -11.29,2.59 -17.95,7.76 -10.27,7.98 -18.12,15.96 -23.53,23.83 -3.84,5.73 -7.51,15.57 -10.95,29.62l-8.69 35.75z"/>
  <path id="11" class="fil0" d="M1662.02 93.42c10.83,0 19.81,4.27 26.98,12.87 7.16,8.54 10.78,20.46 10.78,35.75 0,24.34 -8.64,46.26 -25.85,65.65 -17.21,19.39 -35.38,29.06 -54.62,29.06 -11.8,0 -21.34,-3.82 -28.57,-11.52 -7.22,-7.7 -10.83,-18.21 -10.83,-31.47 0,-23.04 6.6,-44.35 19.87,-63.91 16.65,-24.29 37.42,-36.43 62.25,-36.43zm-14.11 12.48c-9.37,0 -18.4,6.69 -27.15,20.01 -8.74,13.32 -13.09,31.76 -13.09,55.2 0,14.27 2.7,25.52 8.06,33.78 3.96,6.01 9.26,9.05 15.87,9.05 9.2,0 17.61,-5.73 25.22,-17.14 9.66,-14.78 14.51,-33.16 14.51,-55.14 0,-16.47 -2.2,-28.22 -6.65,-35.24 -4.46,-7.03 -10.05,-10.51 -16.77,-10.51z"/>
  <path id="12" class="fil0" d="M1746.06 232.03l-24.66 0 11.57 -44.29c5.64,-21.76 10.56,-42.38 14.73,-61.95 0.97,-4.83 1.47,-7.81 1.47,-9.05 0,-2.53 -1.19,-3.77 -3.61,-3.77 -1.7,0 -4.23,1.12 -7.62,3.38 -3.44,2.3 -9.65,7.93 -18.57,16.86l-5.08 -5.74c10.61,-11.35 21.22,-19.9 31.83,-25.57 10.55,-5.67 18.68,-8.49 24.32,-8.49 1.98,0 3.55,0.45 4.68,1.35 1.19,0.9 1.75,2.03 1.75,3.38 0,1.46 -0.73,5.22 -2.2,11.41l-7.22 29.62c11.12,-17.42 23.64,-32.26 37.64,-44.63 6.72,-5.9 12.3,-8.88 16.82,-8.88 3.33,0 6.09,1.07 8.29,3.21 2.2,2.13 3.27,4.61 3.27,7.47 0,2.99 -1.07,5.46 -3.21,7.53 -2.15,2.08 -7.51,4.56 -16.09,7.42 -8.18,2.75 -14.78,6.07 -19.92,9.89 -5.14,3.87 -10.72,9.78 -16.87,17.71 -6.09,7.93 -10.38,14.78 -12.81,20.63 -2.44,5.84 -6.11,19.45 -11.06,40.69l-7.46 31.82z"/>
  <path id="13" class="fil0" d="M1977.91 190.55l5.42 7.08c-26.97,25.63 -50.06,38.45 -69.36,38.45 -7.79,0 -13.78,-2.64 -17.9,-7.87 -4.12,-5.28 -6.21,-13.71 -6.21,-25.29 0,-23.44 7.17,-46.71 21.5,-69.93 16.09,-26.36 35.27,-39.57 57.68,-39.57 7.79,0 13.77,1.97 17.89,5.85 4.12,3.87 6.21,9.22 6.21,16.01 0,7.14 -2.48,14.11 -7.45,21.03 -4.97,6.92 -13.83,14.11 -26.58,21.53 -6.43,3.6 -20.09,10.11 -41.03,19.56 -0.96,5.9 -1.46,11.52 -1.46,16.92 0,7.75 1.24,13.21 3.72,16.24 2.49,3.09 6.1,4.61 10.84,4.61 4.51,0 9.43,-1.29 14.85,-3.82 7.28,-3.38 17.88,-10.34 31.88,-20.8zm-57.84 -23.61c17.72,-7.87 31.04,-16.36 39.96,-25.41 6.03,-6.35 9.08,-12.64 9.08,-18.89 0,-4.66 -1.24,-8.43 -3.72,-11.24 -2.48,-2.76 -5.7,-4.16 -9.65,-4.16 -4.07,0 -8.02,1.51 -11.86,4.61 -5.2,4.04 -9.54,10.17 -13.04,18.32 -5.08,12.03 -8.69,24.28 -10.78,36.76z"/>
  <path id="14" class="fil0" d="M2074.93 192.23l5.64 6.07c-8.64,9.67 -18.8,18.49 -30.48,26.48 -11.74,7.98 -21.45,11.97 -29.01,11.97 -3.45,0 -6.21,-1.29 -8.41,-3.87 -2.2,-2.59 -3.33,-6.13 -3.33,-10.63 0,-8.82 3.38,-27.04 10.21,-54.75l17.83 -72.34c6.5,-26.08 11.91,-43.61 16.32,-52.49 6.82,-13.49 16.48,-24 28.94,-31.48 12.48,-7.48 25.68,-11.19 39.51,-11.19 4.74,0 8.47,1.13 11.12,3.43 2.71,2.3 4.07,5.06 4.07,8.26 0,3.6 -1.3,6.53 -3.9,8.83 -2.65,2.3 -6.43,3.43 -11.46,3.43 -3.22,0 -7.85,-0.56 -13.82,-1.68 -5.25,-0.9 -10.05,-1.35 -14.51,-1.35 -4.46,0 -7.85,0.96 -10.16,2.81 -3.11,2.58 -5.98,8.09 -8.52,16.52 -2.59,8.44 -6.72,25.01 -12.47,49.86l-16.76 68.97c-8.18,34.62 -12.25,52.66 -12.25,54.18 0,3.54 1.24,5.28 3.77,5.28 2.43,0 5.94,-1.41 10.56,-4.27 9.03,-5.73 18.07,-13.09 27.1,-22.03z"/>
  <path id="15" class="fil0" d="M2212.02 122.43c8.91,-9.78 17.72,-16.97 26.41,-21.53 8.64,-4.56 16.25,-6.8 22.92,-6.8 7.67,0 13.88,3.09 18.51,9.22 4.63,6.13 6.94,15.4 6.94,27.82 0,17.99 -4.24,35.58 -12.7,52.78 -8.52,17.26 -18.96,30.35 -31.5,39.34 -12.47,9 -24.66,13.49 -36.57,13.49 -10.11,0 -18.22,-2.98 -24.27,-8.88 -6.03,-5.91 -9.08,-13.6 -9.08,-23.04 0,-7.59 1.47,-18.1 4.46,-31.59l19.35 -87.06c4.74,-21.36 10.67,-37.6 17.83,-48.79 7.17,-11.13 16.53,-20.07 28.22,-26.7 11.69,-6.69 22.75,-10.01 33.19,-10.01 6.27,0 10.89,1.07 13.78,3.26 2.94,2.14 4.4,5.06 4.4,8.71 0,3.31 -1.3,6.07 -3.95,8.32 -2.65,2.19 -6.38,3.32 -11.23,3.32 -3.61,0 -9.88,-0.85 -18.74,-2.53 -3.95,-0.79 -7.51,-1.18 -10.56,-1.18 -5.53,0 -9.94,2.98 -13.38,8.93 -2.48,4.61 -5.98,16.3 -10.38,35.13l-13.65 57.79zm32.56 -10.46c-5.36,0 -11.79,3.26 -19.19,9.72 -7.39,6.52 -14.39,17.98 -20.99,34.51 -6.61,16.47 -9.87,32.6 -9.87,48.51 0,5.9 1.86,10.9 5.64,14.89 3.78,3.99 8.25,6.02 13.26,6.02 12.19,0 23.09,-9.67 32.62,-29.01 9.55,-19.33 14.34,-38.56 14.34,-57.72 0,-8.71 -1.81,-15.79 -5.42,-21.3 -2.54,-3.77 -5.98,-5.62 -10.38,-5.62z"/>
  <path id="16" class="fil0" d="M2374.68 22.6c3.38,0 6.21,1.13 8.41,3.32 2.2,2.25 3.28,5.12 3.28,8.6 0,4.78 -1.7,8.99 -5.03,12.64 -3.33,3.65 -7.06,5.45 -11.24,5.45 -3.27,0 -6.03,-1.12 -8.23,-3.43 -2.21,-2.3 -3.28,-5.29 -3.28,-8.99 0,-4.89 1.58,-9.06 4.73,-12.48 3.22,-3.43 7,-5.12 11.35,-5.12zm-65.53 109.27l-7.12 -5.73c10.95,-12.09 21,-20.63 30.03,-25.74 9.03,-5.12 16.76,-7.65 23.09,-7.65 3.5,0 6.2,0.79 8.06,2.31 1.86,1.51 2.83,3.6 2.83,6.23 0,3.15 -3.55,16.7 -10.67,40.53 -11.57,38.95 -17.38,62.45 -17.38,70.43 0,1.63 0.39,2.93 1.19,3.99 0.78,1.07 1.57,1.63 2.48,1.63 3.5,0 12.52,-6.97 27.09,-20.9l6.43 6.4c-15.07,14.28 -26.13,23.44 -33.07,27.43 -6.94,3.99 -12.59,5.96 -16.98,5.96 -3.9,0 -6.94,-1.24 -9.2,-3.65 -2.26,-2.42 -3.39,-5.79 -3.39,-10.11 0,-13.72 8.3,-47.27 24.9,-100.61 0.78,-2.53 1.18,-4.78 1.18,-6.75 0,-2.2 -1.02,-3.32 -2.99,-3.32 -2.2,0 -4.74,0.9 -7.56,2.64 -2.82,1.8 -9.14,7.42 -18.91,16.92z"/>
  <path id="17" class="fil0" d="M2471.91 190.55l5.42 7.08c-26.98,25.63 -50.07,38.45 -69.37,38.45 -7.78,0 -13.78,-2.64 -17.89,-7.87 -4.12,-5.28 -6.21,-13.71 -6.21,-25.29 0,-23.44 7.17,-46.71 21.51,-69.93 16.09,-26.36 35.27,-39.57 57.68,-39.57 7.78,0 13.77,1.97 17.89,5.85 4.12,3.87 6.21,9.22 6.21,16.01 0,7.14 -2.48,14.11 -7.45,21.03 -4.97,6.92 -13.83,14.11 -26.58,21.53 -6.43,3.6 -20.09,10.11 -41.03,19.56 -0.95,5.9 -1.46,11.52 -1.46,16.92 0,7.75 1.23,13.21 3.72,16.24 2.48,3.09 6.09,4.61 10.84,4.61 4.51,0 9.42,-1.29 14.84,-3.82 7.29,-3.38 17.89,-10.34 31.89,-20.8zm-57.84 -23.61c17.72,-7.87 31.03,-16.36 39.95,-25.41 6.04,-6.35 9.09,-12.64 9.09,-18.89 0,-4.66 -1.24,-8.43 -3.72,-11.24 -2.49,-2.76 -5.71,-4.16 -9.65,-4.16 -4.07,0 -8.02,1.51 -11.86,4.61 -5.2,4.04 -9.53,10.17 -13.04,18.32 -5.08,12.03 -8.69,24.28 -10.78,36.76z"/>
  <path id="18" class="fil0" d="M2505.04 132.54l-5.76 -5.73c14.22,-13.43 25.57,-22.38 34.03,-26.76 8.41,-4.44 15.64,-6.63 21.62,-6.63 2.37,0 4.18,0.5 5.54,1.46 1.29,0.95 1.98,2.08 1.98,3.43 0,0.96 -0.28,2.7 -0.8,5.17l-7.51 33.1c11.17,-12.42 25.23,-24 42.16,-34.79 8.98,-5.57 16.37,-8.38 22.18,-8.38 4.29,0 7.67,1.35 10.05,4.05 2.42,2.69 3.67,6.63 3.67,11.69 0,3.43 -0.52,7.26 -1.53,11.53 -1.75,7.14 -6.33,22.7 -13.77,46.65 -7,22.37 -10.5,37.27 -10.5,44.63 0,2.3 0.33,4.04 0.95,5.17 0.68,1.18 1.63,1.75 2.83,1.75 3.21,0 8.24,-3.09 15.07,-9.28 4.85,-4.44 9.7,-8.54 14.56,-12.31l3.72 6.07c-10.1,11.13 -20.54,20.07 -31.38,26.87 -6.94,4.33 -12.58,6.52 -17.1,6.52 -4.17,0 -7.39,-1.51 -9.7,-4.55 -2.31,-3.04 -3.44,-7.98 -3.44,-14.84 0,-9.78 6.15,-34.06 18.4,-72.96 3.79,-13.83 5.64,-21.86 5.64,-24.17 0,-3.26 -2.03,-4.89 -6.1,-4.89 -4.39,0 -10.1,2.31 -17.04,6.92 -10.38,6.8 -19.02,14.78 -25.96,24 -4.4,5.96 -8.12,15.4 -11.06,28.33l-13.43 57.45 -24.61 0c4.63,-16.47 8.64,-32.21 12.08,-47.22l14.68 -62.56c0.56,-2.47 0.85,-4.21 0.85,-5.28 0,-2.87 -1.13,-4.33 -3.33,-4.33 -1.81,0 -4.34,1.12 -7.67,3.43 -6.89,4.5 -13.33,10.01 -19.31,16.47z"/>
  <path id="19" class="fil0" d="M2742.76 190.55l5.42 7.08c-26.97,25.63 -50.06,38.45 -69.37,38.45 -7.78,0 -13.77,-2.64 -17.89,-7.87 -4.12,-5.28 -6.21,-13.71 -6.21,-25.29 0,-23.44 7.17,-46.71 21.5,-69.93 16.09,-26.36 35.27,-39.57 57.68,-39.57 7.79,0 13.77,1.97 17.89,5.85 4.12,3.87 6.21,9.22 6.21,16.01 0,7.14 -2.49,14.11 -7.45,21.03 -4.97,6.92 -13.83,14.11 -26.59,21.53 -6.43,3.6 -20.09,10.11 -41.03,19.56 -0.96,5.9 -1.46,11.52 -1.46,16.92 0,7.75 1.24,13.21 3.72,16.24 2.49,3.09 6.1,4.61 10.84,4.61 4.51,0 9.43,-1.29 14.85,-3.82 7.28,-3.38 17.88,-10.34 31.88,-20.8zm-57.84 -23.61c17.72,-7.87 31.04,-16.36 39.96,-25.41 6.03,-6.35 9.08,-12.64 9.08,-18.89 0,-4.66 -1.24,-8.43 -3.72,-11.24 -2.48,-2.76 -5.7,-4.16 -9.65,-4.16 -4.07,0 -8.01,1.51 -11.85,4.61 -5.2,4.04 -9.54,10.17 -13.04,18.32 -5.08,12.03 -8.69,24.28 -10.78,36.76z"/>
  <path id="20" class="fil0" d="M2843.62 93.42c9.82,0 17.44,1.91 22.8,5.74 5.37,3.82 8.02,8.2 8.02,13.15 0,2.98 -1.13,5.62 -3.38,7.82 -2.26,2.19 -4.97,3.31 -8.19,3.31 -2.08,0 -3.89,-0.45 -5.47,-1.41 -1.52,-0.95 -3.72,-3.31 -6.6,-7.02 -5.42,-7.19 -10.73,-10.79 -16.03,-10.79 -4.52,0 -8.52,1.74 -12.02,5.17 -3.45,3.43 -5.2,7.75 -5.2,12.87 0,4.5 1.07,8.88 3.28,13.1 2.2,4.21 7.78,11.01 16.71,20.4 12.19,12.93 18.28,25.18 18.28,36.82 0,11.58 -4.97,21.75 -14.91,30.46 -9.93,8.71 -22.69,13.04 -38.32,13.04 -13.15,0 -22.92,-2.64 -29.29,-7.93 -6.38,-5.34 -9.6,-11.86 -9.6,-19.61 0,-3.82 1.19,-6.97 3.61,-9.5 2.43,-2.53 5.37,-3.77 8.92,-3.77 3.05,0 5.7,1.02 7.9,3.04 2.2,2.03 3.27,4.39 3.27,7.14 0,1.12 -0.05,2.52 -0.22,4.27 -0.06,1.4 -0.11,2.64 -0.11,3.6 0,3.65 1.52,6.69 4.62,9.22 3,2.52 7.12,3.76 12.3,3.76 5.94,0 11.18,-1.01 15.75,-3.04 4.51,-2.02 8.02,-5.11 10.55,-9.22 2.54,-4.1 3.85,-8.2 3.85,-12.25 0,-3.94 -1.19,-7.88 -3.55,-11.86 -2.43,-3.94 -7.73,-10.46 -16.09,-19.56 -11.51,-12.7 -17.27,-24.96 -17.27,-36.65 0,-10.73 4.35,-20.18 13.1,-28.22 8.75,-8.03 19.81,-12.08 33.3,-12.08z"/>
  <path id="21" class="fil0" d="M2925.68 68.19l26.52 -9.95 -11.62 46.32 33.69 0 -2.66 11.81 -33.97 0 -14.44 54.8c-4.75,16.58 -7.06,28.16 -7.06,34.62 0,2.98 0.62,5.12 1.86,6.41 1.29,1.29 2.99,1.96 5.2,1.96 3.44,0 8.63,-2.02 15.69,-6.07 9.2,-5.34 18,-11.41 26.36,-18.21l6.32 7.42c-24.15,18.15 -40.25,29.28 -48.42,33.33 -8.13,4.11 -14.68,6.13 -19.65,6.13 -4.07,0 -7.28,-1.46 -9.65,-4.44 -2.37,-2.99 -3.55,-7.76 -3.55,-14.45 0,-7.93 2.09,-19.95 6.26,-36.19l16.77 -65.31 -26.81 0 2.99 -11.81 26.87 0 9.31 -36.36z"/>
  <path id="22" class="fil0" d="M3100.52 90.67l11.07 -2.25 -12.36 41.65c-4.91,16.58 -9.6,35.7 -14,57.33 -2.43,11.75 -3.61,19.33 -3.61,22.71 0,3.37 1.35,5.06 4.12,5.06 1.69,0 4.52,-1.13 8.29,-3.38 6.77,-3.99 13.26,-8.93 19.48,-14.83l5.3 6.4c-12.53,11.29 -20.54,18.15 -24.1,20.51 -7.05,4.78 -13.71,8.32 -20.09,10.57 -4.24,1.52 -8.29,2.3 -12.25,2.3 -2.82,0 -4.97,-0.68 -6.43,-1.97 -1.41,-1.29 -2.15,-3.26 -2.15,-5.73 0,-1.63 0.45,-3.88 1.35,-6.75l6.6 -22.15c-9.47,11.3 -20.83,20.97 -33.91,29.06 -8.02,5 -15.41,7.53 -22.13,7.53 -6.44,0 -11.29,-2.25 -14.73,-6.75 -4.63,-6.07 -6.94,-14 -6.94,-23.78 0,-11.64 3.1,-24.61 9.31,-38.89 6.27,-14.28 14.56,-27.26 25.06,-38.89 10.44,-11.64 21.45,-20.24 33.02,-25.74 8.91,-4.16 20.38,-6.24 34.37,-6.24 3.55,0 7.11,0.23 10.72,0.68l4.01 -6.46zm-20.49 25.46c-5.93,-1.18 -10.95,-1.8 -15.01,-1.8 -9.88,0 -18.52,2.7 -25.91,8.15 -7.39,5.45 -14.22,15.23 -20.54,29.34 -6.32,14.1 -9.48,28.21 -9.48,42.26 0,7.48 1.24,12.82 3.78,16.13 2.54,3.31 5.86,4.95 9.94,4.95 7.56,0 15.69,-4.11 24.38,-12.25 8.69,-8.21 15.06,-20.01 19.13,-35.35l13.71 -51.43z"/>
  <path id="23" class="fil0" d="M3160.75 232.03l-24.66 0 11.56 -44.29c5.65,-21.76 10.56,-42.38 14.73,-61.95 0.96,-4.83 1.47,-7.81 1.47,-9.05 0,-2.53 -1.19,-3.77 -3.61,-3.77 -1.7,0 -4.24,1.12 -7.63,3.38 -3.44,2.3 -9.65,7.93 -18.57,16.86l-5.08 -5.74c10.61,-11.35 21.22,-19.9 31.83,-25.57 10.55,-5.67 18.68,-8.49 24.32,-8.49 1.98,0 3.55,0.45 4.68,1.35 1.18,0.9 1.75,2.03 1.75,3.38 0,1.46 -0.73,5.22 -2.2,11.41l-7.22 29.62c11.12,-17.42 23.65,-32.26 37.64,-44.63 6.72,-5.9 12.3,-8.88 16.82,-8.88 3.33,0 6.1,1.07 8.29,3.21 2.21,2.13 3.28,4.61 3.28,7.47 0,2.99 -1.07,5.46 -3.22,7.53 -2.14,2.08 -7.5,4.56 -16.08,7.42 -8.19,2.75 -14.78,6.07 -19.92,9.89 -5.14,3.87 -10.73,9.78 -16.87,17.71 -6.1,7.93 -10.38,14.78 -12.81,20.63 -2.44,5.84 -6.11,19.45 -11.07,40.69l-7.45 31.82z"/>
  <path id="24" class="fil0" d="M3417.15 92.41l13.04 -3.09c-8.02,25.69 -15.3,51.43 -21.96,77.28 -4.85,18.44 -8.19,33.84 -10.05,46.15 -0.95,6.13 -1.52,13.94 -1.63,23.38 -0.23,15.85 -1.98,28.55 -5.25,38.23 -4.63,13.54 -13.26,24.39 -25.85,32.65 -12.64,8.27 -27.54,12.37 -44.87,12.37 -14.85,0 -26.53,-3.49 -35.05,-10.46 -8.52,-6.97 -12.82,-14.96 -12.82,-23.95 0,-8.93 3.45,-17.2 10.27,-24.9 5.08,-5.84 15.69,-12.87 31.83,-21.07 8.13,-4.27 15.81,-8.66 22.98,-13.21 -8.13,4.16 -14.51,6.24 -19.02,6.24 -4.12,0 -7.73,-1.91 -10.84,-5.68 -3.16,-3.77 -4.74,-8.82 -4.74,-15.06 0,-20.18 6.04,-40.19 18.06,-60.14 12.08,-19.9 26.58,-34.85 43.57,-44.8 10.44,-6.13 23.53,-9.22 39.29,-9.22 3.1,0 6.88,0.06 11.39,0.23l1.63 -4.95zm-18.45 24.05c-5.25,-0.95 -9.93,-1.46 -14,-1.46 -10.44,0 -19.41,2.75 -26.92,8.26 -7.45,5.51 -13.82,14.78 -19.13,27.77 -7.39,18.44 -11.06,33.89 -11.06,46.49 0,5.17 1.46,9.5 4.34,13.04 2.94,3.54 6.21,5.29 9.87,5.29 4.34,0 9.82,-2.14 16.31,-6.35 6.49,-4.27 11.79,-9.55 15.91,-15.96 4.12,-6.4 8.35,-17.42 12.64,-33.05l12.02 -44.01zm-22.4 90.11c-7.51,6.69 -21.96,17.42 -43.34,32.09 -18.91,12.7 -30.48,21.86 -34.82,27.49 -4.29,5.68 -6.44,11.75 -6.44,18.1 0,6.24 2.77,11.86 8.36,16.87 5.58,5 12.35,7.47 20.31,7.47 7.51,0 14.78,-1.85 21.84,-5.5 7.05,-3.71 13.21,-9 18.46,-15.96 5.25,-6.97 8.86,-14.84 10.83,-23.61 1.98,-8.82 3.05,-20.4 3.16,-34.9 0.11,-3.21 0.68,-10.51 1.63,-22.03z"/>
  <path id="25" class="fil0" d="M3527.99 190.55l5.42 7.08c-26.98,25.63 -50.07,38.45 -69.37,38.45 -7.78,0 -13.78,-2.64 -17.89,-7.87 -4.12,-5.28 -6.21,-13.71 -6.21,-25.29 0,-23.44 7.17,-46.71 21.51,-69.93 16.09,-26.36 35.27,-39.57 57.68,-39.57 7.78,0 13.77,1.97 17.89,5.85 4.12,3.87 6.21,9.22 6.21,16.01 0,7.14 -2.48,14.11 -7.45,21.03 -4.97,6.92 -13.83,14.11 -26.58,21.53 -6.43,3.6 -20.09,10.11 -41.03,19.56 -0.95,5.9 -1.46,11.52 -1.46,16.92 0,7.75 1.23,13.21 3.72,16.24 2.48,3.09 6.09,4.61 10.84,4.61 4.51,0 9.42,-1.29 14.84,-3.82 7.29,-3.38 17.89,-10.34 31.89,-20.8zm-57.84 -23.61c17.72,-7.87 31.03,-16.36 39.95,-25.41 6.04,-6.35 9.09,-12.64 9.09,-18.89 0,-4.66 -1.24,-8.43 -3.72,-11.24 -2.49,-2.76 -5.71,-4.16 -9.65,-4.16 -4.07,0 -8.02,1.51 -11.86,4.61 -5.2,4.04 -9.53,10.17 -13.04,18.32 -5.08,12.03 -8.69,24.28 -10.78,36.76z"/>
  <path id="26" class="fil0" d="M3561.12 132.54l-5.76 -5.73c14.22,-13.43 25.57,-22.38 34.03,-26.76 8.41,-4.44 15.64,-6.63 21.62,-6.63 2.37,0 4.18,0.5 5.54,1.46 1.29,0.95 1.98,2.08 1.98,3.43 0,0.96 -0.29,2.7 -0.8,5.17l-7.51 33.1c11.17,-12.42 25.23,-24 42.16,-34.79 8.98,-5.57 16.36,-8.38 22.18,-8.38 4.29,0 7.67,1.35 10.05,4.05 2.42,2.69 3.67,6.63 3.67,11.69 0,3.43 -0.52,7.26 -1.53,11.53 -1.75,7.14 -6.33,22.7 -13.77,46.65 -7,22.37 -10.5,37.27 -10.5,44.63 0,2.3 0.33,4.04 0.95,5.17 0.68,1.18 1.63,1.75 2.83,1.75 3.21,0 8.24,-3.09 15.07,-9.28 4.85,-4.44 9.7,-8.54 14.56,-12.31l3.72 6.07c-10.1,11.13 -20.54,20.07 -31.38,26.87 -6.94,4.33 -12.58,6.52 -17.1,6.52 -4.17,0 -7.39,-1.51 -9.7,-4.55 -2.32,-3.04 -3.44,-7.98 -3.44,-14.84 0,-9.78 6.15,-34.06 18.4,-72.96 3.79,-13.83 5.64,-21.86 5.64,-24.17 0,-3.26 -2.03,-4.89 -6.1,-4.89 -4.39,0 -10.1,2.31 -17.04,6.92 -10.38,6.8 -19.02,14.78 -25.96,24 -4.4,5.96 -8.12,15.4 -11.06,28.33l-13.43 57.45 -24.61 0c4.63,-16.47 8.64,-32.21 12.08,-47.22l14.68 -62.56c0.56,-2.47 0.85,-4.21 0.85,-5.28 0,-2.87 -1.13,-4.33 -3.33,-4.33 -1.81,0 -4.34,1.12 -7.67,3.43 -6.89,4.5 -13.33,10.01 -19.31,16.47z"/>
  <path id="27" class="fil0" d="M3798.84 190.55l5.42 7.08c-26.97,25.63 -50.07,38.45 -69.37,38.45 -7.78,0 -13.77,-2.64 -17.89,-7.87 -4.12,-5.28 -6.21,-13.71 -6.21,-25.29 0,-23.44 7.17,-46.71 21.5,-69.93 16.09,-26.36 35.27,-39.57 57.68,-39.57 7.78,0 13.77,1.97 17.89,5.85 4.12,3.87 6.21,9.22 6.21,16.01 0,7.14 -2.49,14.11 -7.45,21.03 -4.97,6.92 -13.83,14.11 -26.59,21.53 -6.43,3.6 -20.09,10.11 -41.03,19.56 -0.96,5.9 -1.46,11.52 -1.46,16.92 0,7.75 1.24,13.21 3.72,16.24 2.48,3.09 6.1,4.61 10.84,4.61 4.51,0 9.43,-1.29 14.85,-3.82 7.28,-3.38 17.88,-10.34 31.88,-20.8zm-57.84 -23.61c17.72,-7.87 31.04,-16.36 39.96,-25.41 6.03,-6.35 9.08,-12.64 9.08,-18.89 0,-4.66 -1.24,-8.43 -3.72,-11.24 -2.49,-2.76 -5.7,-4.16 -9.65,-4.16 -4.07,0 -8.01,1.51 -11.85,4.61 -5.2,4.04 -9.54,10.17 -13.04,18.32 -5.08,12.03 -8.69,24.28 -10.78,36.76z"/>
  <path id="28" class="fil0" d="M3857.99 232.03l-24.66 0 11.57 -44.29c5.64,-21.76 10.56,-42.38 14.73,-61.95 0.97,-4.83 1.47,-7.81 1.47,-9.05 0,-2.53 -1.19,-3.77 -3.61,-3.77 -1.7,0 -4.24,1.12 -7.63,3.38 -3.44,2.3 -9.65,7.93 -18.57,16.86l-5.08 -5.74c10.61,-11.35 21.22,-19.9 31.83,-25.57 10.55,-5.67 18.68,-8.49 24.32,-8.49 1.98,0 3.55,0.45 4.68,1.35 1.18,0.9 1.75,2.03 1.75,3.38 0,1.46 -0.73,5.22 -2.2,11.41l-7.22 29.62c11.12,-17.42 23.65,-32.26 37.64,-44.63 6.72,-5.9 12.3,-8.88 16.82,-8.88 3.32,0 6.09,1.07 8.29,3.21 2.21,2.13 3.28,4.61 3.28,7.47 0,2.99 -1.07,5.46 -3.22,7.53 -2.14,2.08 -7.5,4.56 -16.08,7.42 -8.19,2.75 -14.78,6.07 -19.92,9.89 -5.14,3.87 -10.72,9.78 -16.87,17.71 -6.09,7.93 -10.38,14.78 -12.81,20.63 -2.44,5.84 -6.11,19.45 -11.07,40.69l-7.45 31.82z"/>
  <path id="29" class="fil0" d="M4041.53 90.67l11.07 -2.25 -12.36 41.65c-4.91,16.58 -9.6,35.7 -14,57.33 -2.43,11.75 -3.62,19.33 -3.62,22.71 0,3.37 1.36,5.06 4.12,5.06 1.69,0 4.51,-1.13 8.29,-3.38 6.77,-3.99 13.26,-8.93 19.48,-14.83l5.3 6.4c-12.53,11.29 -20.54,18.15 -24.1,20.51 -7.05,4.78 -13.71,8.32 -20.09,10.57 -4.23,1.52 -8.29,2.3 -12.25,2.3 -2.81,0 -4.96,-0.68 -6.43,-1.97 -1.41,-1.29 -2.15,-3.26 -2.15,-5.73 0,-1.63 0.45,-3.88 1.35,-6.75l6.6 -22.15c-9.47,11.3 -20.83,20.97 -33.91,29.06 -8.02,5 -15.41,7.53 -22.13,7.53 -6.44,0 -11.29,-2.25 -14.73,-6.75 -4.63,-6.07 -6.94,-14 -6.94,-23.78 0,-11.64 3.1,-24.61 9.31,-38.89 6.26,-14.28 14.56,-27.26 25.06,-38.89 10.44,-11.64 21.45,-20.24 33.02,-25.74 8.91,-4.16 20.38,-6.24 34.37,-6.24 3.55,0 7.11,0.23 10.72,0.68l4.01 -6.46zm-20.49 25.46c-5.93,-1.18 -10.95,-1.8 -15.01,-1.8 -9.88,0 -18.52,2.7 -25.91,8.15 -7.39,5.45 -14.22,15.23 -20.54,29.34 -6.32,14.1 -9.48,28.21 -9.48,42.26 0,7.48 1.24,12.82 3.78,16.13 2.54,3.31 5.86,4.95 9.94,4.95 7.56,0 15.69,-4.11 24.38,-12.25 8.69,-8.21 15.06,-20.01 19.13,-35.35l13.71 -51.43z"/>
  <path id="30" class="fil0" d="M4139.62 192.23l5.64 6.07c-8.64,9.67 -18.8,18.49 -30.49,26.48 -11.73,7.98 -21.44,11.97 -29,11.97 -3.45,0 -6.21,-1.29 -8.41,-3.87 -2.2,-2.59 -3.33,-6.13 -3.33,-10.63 0,-8.82 3.38,-27.04 10.21,-54.75l17.83 -72.34c6.5,-26.08 11.91,-43.61 16.31,-52.49 6.82,-13.49 16.48,-24 28.95,-31.48 12.47,-7.48 25.68,-11.19 39.51,-11.19 4.73,0 8.47,1.13 11.12,3.43 2.71,2.3 4.06,5.06 4.06,8.26 0,3.6 -1.29,6.53 -3.9,8.83 -2.64,2.3 -6.43,3.43 -11.45,3.43 -3.22,0 -7.85,-0.56 -13.82,-1.68 -5.25,-0.9 -10.05,-1.35 -14.51,-1.35 -4.45,0 -7.84,0.96 -10.15,2.81 -3.11,2.58 -5.98,8.09 -8.52,16.52 -2.6,8.44 -6.72,25.01 -12.47,49.86l-16.76 68.97c-8.19,34.62 -12.25,52.66 -12.25,54.18 0,3.54 1.24,5.28 3.77,5.28 2.42,0 5.93,-1.41 10.56,-4.27 9.03,-5.73 18.06,-13.09 27.1,-22.03z"/>
 </g>
</svg>
